<svg xmlns="http://www.w3.org/2000/svg" width="257" height="77" fill="none" viewBox="0 0 257 77"><path fill="#fff" d="M255.194 67.92c0 4.07-3.251 7.39-7.309 7.39H8.975c-4.026 0-7.309-3.288-7.309-7.39V9.112c0-4.071 3.283-7.39 7.308-7.39h238.911c4.027 0 7.309 3.319 7.309 7.39z"/><path fill="#fff" d="M247.923 77H9.011C4.057 77 0 72.93 0 67.92V9.111C0 4.102 4.026 0 9.011 0h238.912c4.954 0 9.012 4.07 9.012 9.112V67.92c-.032 5.01-4.058 9.081-9.012 9.081"/><path fill="#242424" d="M255.194 67.92c0 4.07-3.251 7.39-7.309 7.39H8.975c-4.026 0-7.309-3.288-7.309-7.39V9.112c0-4.071 3.283-7.39 7.308-7.39h238.911c4.027 0 7.309 3.319 7.309 7.39z"/><path fill="#fff" d="M57.356 38.108c-.062-6.2 5.017-9.237 5.265-9.362-2.88-4.228-7.34-4.823-8.919-4.854-3.747-.407-7.37 2.255-9.29 2.255-1.95 0-4.893-2.224-8.051-2.161-4.088.063-7.897 2.442-9.972 6.169-4.304 7.546-1.084 18.663 3.035 24.769 2.075 3.006 4.49 6.325 7.649 6.2 3.097-.125 4.242-2.004 7.99-2.004 3.685 0 4.8 2.004 8.02 1.91 3.313-.063 5.42-3.006 7.401-6.012 2.385-3.414 3.345-6.795 3.375-6.983-.061-.032-6.44-2.505-6.503-9.927M51.256 19.852c1.672-2.098 2.818-4.979 2.477-7.86-2.415.094-5.42 1.691-7.153 3.758-1.549 1.816-2.911 4.79-2.54 7.578 2.725.188 5.481-1.41 7.216-3.476M102.187 60.654h-4.335l-2.354-7.516H87.23l-2.26 7.516h-4.212l8.144-25.615h5.048zm-7.432-10.678-2.137-6.701c-.216-.69-.65-2.286-1.27-4.823h-.061c-.248 1.096-.65 2.693-1.208 4.823l-2.106 6.7zM123.126 51.199c0 3.131-.836 5.636-2.539 7.452-1.517 1.629-3.406 2.443-5.636 2.443q-3.623 0-5.202-2.63v9.707h-4.057V48.286c0-1.972-.062-4.008-.155-6.074h3.561l.217 2.943h.062c1.363-2.192 3.406-3.32 6.162-3.32 2.168 0 3.964.846 5.389 2.6 1.455 1.69 2.198 3.945 2.198 6.764m-4.149.156c0-1.785-.403-3.288-1.208-4.446-.867-1.221-2.044-1.816-3.53-1.816-.991 0-1.92.344-2.725 1.002a4.85 4.85 0 0 0-1.611 2.63c-.123.5-.185.908-.185 1.252v3.07c0 1.346.402 2.473 1.207 3.412.806.94 1.889 1.378 3.19 1.378 1.517 0 2.725-.595 3.561-1.785q1.3-1.785 1.301-4.697M144.126 51.199c0 3.131-.836 5.636-2.539 7.452-1.517 1.629-3.406 2.443-5.636 2.443q-3.623 0-5.202-2.63v9.707h-4.057V48.286c0-1.972-.062-4.008-.155-6.074h3.561l.217 2.943h.062c1.363-2.192 3.406-3.32 6.163-3.32 2.167 0 3.963.846 5.387 2.6 1.488 1.69 2.199 3.945 2.199 6.764m-4.119.156c0-1.785-.402-3.288-1.207-4.446-.867-1.221-2.044-1.816-3.53-1.816-.991 0-1.92.344-2.725 1.002-.805.688-1.332 1.565-1.61 2.63-.124.5-.186.908-.186 1.252v3.07c0 1.346.402 2.473 1.207 3.412.806.908 1.889 1.378 3.19 1.378 1.517 0 2.725-.595 3.561-1.785q1.301-1.785 1.3-4.697M167.626 53.483c0 2.192-.743 3.946-2.26 5.324-1.641 1.503-3.964 2.254-6.906 2.254-2.725 0-4.924-.532-6.565-1.597l.93-3.413c1.765 1.065 3.746 1.597 5.852 1.597 1.518 0 2.725-.345 3.561-1.033.837-.69 1.27-1.629 1.27-2.787 0-1.034-.341-1.91-1.053-2.63-.713-.72-1.858-1.378-3.499-1.973-4.429-1.66-6.658-4.134-6.658-7.328 0-2.098.774-3.82 2.353-5.166s3.655-2.004 6.225-2.004c2.291 0 4.242.407 5.76 1.22l-1.023 3.351c-1.423-.783-3.065-1.19-4.861-1.19-1.425 0-2.571.345-3.345 1.065a3.04 3.04 0 0 0-1.021 2.317c0 1.002.402 1.848 1.176 2.505.681.595 1.889 1.253 3.685 1.973 2.168.877 3.778 1.91 4.8 3.1 1.084 1.159 1.579 2.63 1.579 4.415M181.083 45.28h-4.49v8.955c0 2.286.774 3.413 2.354 3.413.711 0 1.331-.062 1.796-.188l.124 3.132q-1.209.47-3.159.47c-1.611 0-2.849-.502-3.747-1.472-.898-1.003-1.363-2.662-1.363-4.98v-9.33h-2.662v-3.07h2.662V38.83l3.995-1.222v4.604h4.49zM201.25 51.293c0 2.85-.805 5.166-2.415 6.983q-2.508 2.818-6.688 2.818c-2.694 0-4.832-.908-6.41-2.693-1.58-1.785-2.385-4.071-2.385-6.795 0-2.85.836-5.198 2.477-7.046 1.641-1.816 3.871-2.724 6.628-2.724 2.693 0 4.83.908 6.471 2.693 1.517 1.722 2.322 3.977 2.322 6.764m-4.211.094c0-1.691-.371-3.132-1.084-4.353-.836-1.472-2.075-2.192-3.653-2.192-1.642 0-2.88.72-3.717 2.192-.712 1.221-1.083 2.693-1.083 4.447 0 1.69.371 3.162 1.083 4.352.868 1.472 2.107 2.192 3.685 2.192 1.549 0 2.757-.751 3.654-2.223.713-1.284 1.115-2.724 1.115-4.415M214.447 45.813c-.402-.063-.836-.125-1.27-.125-1.424 0-2.539.532-3.312 1.628q-1.023 1.456-1.023 3.664v9.707h-4.056v-12.65c0-2.13-.031-4.072-.124-5.825h3.53l.155 3.538h.124c.434-1.221 1.115-2.192 2.044-2.943.897-.658 1.888-1.002 2.941-1.002.372 0 .712.031 1.022.062zM232.595 50.54c0 .72-.062 1.346-.155 1.847h-12.17c.032 1.816.65 3.225 1.765 4.196 1.023.845 2.354 1.284 3.995 1.284 1.797 0 3.438-.282 4.924-.877l.65 2.85q-2.6 1.127-6.131 1.127-4.227 0-6.689-2.537c-1.61-1.69-2.415-3.945-2.415-6.795 0-2.787.743-5.104 2.26-6.951 1.579-1.973 3.716-2.975 6.379-2.975 2.632 0 4.615 1.002 5.977 2.975 1.084 1.628 1.61 3.57 1.61 5.855m-3.871-1.065c.031-1.222-.247-2.255-.774-3.163-.712-1.158-1.796-1.722-3.221-1.722-1.331 0-2.415.563-3.22 1.66q-1.022 1.314-1.207 3.193zM92.806 25.865h-2.137l-1.177-3.695h-4.056l-1.115 3.695h-2.075l3.995-12.588h2.477zm-3.623-5.229-1.053-3.288c-.124-.344-.31-1.127-.62-2.38h-.03c-.124.533-.31 1.315-.589 2.38l-1.022 3.288zM102.843 16.785l-3.406 9.081h-1.951l-3.283-9.08h2.137l1.548 4.79c.248.814.465 1.566.65 2.286h.063c.154-.657.371-1.41.65-2.286l1.517-4.79zM110.086 25.864l-.155-1.033h-.062c-.619.846-1.487 1.253-2.632 1.253-1.611 0-2.757-1.128-2.757-2.662 0-2.255 1.92-3.413 5.234-3.413v-.157q0-1.785-1.858-1.785c-.898 0-1.672.22-2.354.69l-.402-1.316c.836-.532 1.858-.783 3.097-.783q3.53 0 3.53 3.758v3.35c0 .909.031 1.629.124 2.161zm-.279-4.509c-2.23 0-3.314.533-3.314 1.816 0 .94.589 1.41 1.363 1.41 1.022 0 1.951-.783 1.951-1.848zM116.187 15.282c-.651 0-1.177-.532-1.177-1.22 0-.69.526-1.19 1.207-1.19.682 0 1.239.5 1.208 1.19.031.75-.495 1.22-1.238 1.22m1.021 10.584h-1.981v-9.08h1.981zM122.748 25.865h-1.982V12.619h1.982zM131.234 25.864l-.155-1.033h-.062c-.619.846-1.486 1.253-2.632 1.253-1.61 0-2.756-1.128-2.756-2.662 0-2.255 1.92-3.413 5.233-3.413v-.157q0-1.785-1.858-1.785c-.898 0-1.672.22-2.353.69l-.403-1.316c.836-.532 1.858-.783 3.097-.783q3.53 0 3.53 3.758v3.35c0 .909.031 1.629.124 2.161h-1.765zm-.279-4.509c-2.229 0-3.313.533-3.313 1.816 0 .94.588 1.41 1.362 1.41 1.022 0 1.951-.783 1.951-1.848zM140.985 26.086c-1.27 0-2.23-.532-2.818-1.597h-.031l-.124 1.409h-1.703c.062-.72.062-1.566.062-2.442V12.652h2.013v5.48h.031c.587-1.002 1.547-1.503 2.849-1.503 2.167 0 3.685 1.879 3.685 4.603 0 2.787-1.673 4.854-3.964 4.854m-.403-7.891c-1.146 0-2.198 1.002-2.198 2.41v1.598c0 1.253.928 2.286 2.167 2.286 1.486 0 2.385-1.221 2.385-3.194 0-1.848-.929-3.1-2.354-3.1M149.906 25.865h-1.982V12.619h1.982zM160.789 21.825h-5.978c.032 1.722 1.178 2.693 2.819 2.693.898 0 1.703-.157 2.415-.438l.31 1.409c-.836.376-1.857.563-3.004.563-2.819 0-4.458-1.785-4.458-4.571 0-2.787 1.702-4.885 4.241-4.885 2.292 0 3.747 1.722 3.747 4.321-.031.345-.031.658-.092.908m-1.828-1.44c0-1.41-.712-2.38-1.981-2.38-1.146 0-2.044 1.002-2.169 2.38zM172.887 26.086c-2.632 0-4.336-1.973-4.336-4.666 0-2.818 1.735-4.791 4.491-4.791 2.57 0 4.335 1.879 4.335 4.666-.031 2.818-1.827 4.79-4.49 4.79m.061-8.017c-1.455 0-2.352 1.378-2.352 3.257s.929 3.225 2.352 3.225c1.425 0 2.354-1.472 2.354-3.256-.031-1.817-.96-3.226-2.354-3.226M188.062 25.865h-1.982v-5.23c0-1.597-.62-2.411-1.796-2.411s-2.014 1.033-2.014 2.223v5.418h-1.981v-6.482c0-.814-.031-1.66-.062-2.6h1.765l.093 1.41h.062c.527-.971 1.641-1.597 2.85-1.597 1.888 0 3.127 1.471 3.127 3.82zM201.128 18.318h-2.199v4.415c0 1.128.373 1.691 1.178 1.691.339 0 .65-.031.897-.094l.063 1.535c-.403.156-.899.219-1.549.219-1.579 0-2.509-.877-2.509-3.163V18.35h-1.3v-1.566h1.3v-1.66l1.951-.595v2.255h2.199v1.534zM211.691 25.865h-2.012v-5.167c0-1.628-.619-2.442-1.797-2.442-1.021 0-1.981.72-1.981 2.16v5.449h-2.012V12.619h2.012v5.449h.031c.619-1.002 1.548-1.472 2.694-1.472 1.889 0 3.065 1.503 3.065 3.883zM221.916 21.825h-6.009c.031 1.722 1.178 2.693 2.819 2.693.897 0 1.702-.157 2.415-.438l.31 1.409c-.836.376-1.858.563-3.004.563-2.817 0-4.459-1.785-4.459-4.571 0-2.787 1.703-4.885 4.241-4.885 2.293 0 3.748 1.722 3.748 4.321 0 .345-.031.658-.061.908m-1.828-1.44c0-1.41-.712-2.38-1.982-2.38-1.145 0-2.044 1.002-2.168 2.38z"/></svg>