<svg width="60" height="22" viewBox="0 0 60 22" fill="none" xmlns="http://www.w3.org/2000/svg">
<path d="M30.7987 1.40411C30.1256 1.50512 29.4417 1.49737 28.7612 1.50512C28.582 1.50696 28.3959 1.51175 28.2351 1.59101C28.0744 1.67027 27.9469 1.84611 27.9826 2.02196C28.0128 2.16868 28.1492 2.27559 28.2938 2.3154C28.4386 2.35558 28.592 2.3412 28.7413 2.32683C29.2972 2.273 29.8531 2.21881 30.4094 2.16499C30.8411 2.12296 31.3144 2.09126 31.6702 2.33973C31.8401 2.45843 31.9702 2.63427 32.1568 2.72533C32.7838 3.03167 33.3457 2.22729 32.9472 1.71635C32.4417 1.06864 31.4737 1.30273 30.7987 1.40411Z" fill="#717272"/>
<path d="M33.1288 3.80309C33.0724 3.83479 33.0116 3.86761 32.947 3.86281C32.8648 3.85655 32.8003 3.79129 32.7454 3.72936C32.4785 3.42929 32.2322 3.11004 32.0088 2.77605C31.9683 2.71522 31.9274 2.6496 31.9277 2.57698C31.9281 2.46086 32.0302 2.37459 32.1231 2.30492C32.5813 1.96282 33.0399 1.62035 33.4982 1.27787C33.5546 1.23585 33.6135 1.19235 33.6829 1.18018C33.7968 1.16028 33.9059 1.22774 33.9984 1.29704C34.4179 1.60966 34.7674 2.01627 35.0133 2.47818C35.0435 2.53496 35.073 2.60057 35.0535 2.66177C35.0384 2.70859 34.9982 2.74213 34.9595 2.77162C34.4257 3.17898 33.7175 3.46984 33.1288 3.80309Z" fill="#717272"/>
<path d="M22.2584 17.5378C22.2141 17.7343 22.1688 17.9643 22.2997 18.1173C22.3808 18.2117 22.5087 18.2482 22.63 18.274C23.6707 18.4948 24.7471 18.2459 25.7815 17.9978C25.8678 17.9772 25.9566 17.9551 26.027 17.9013C26.2077 17.763 26.1907 17.4906 26.1557 17.2657C26.0495 16.583 25.9437 15.9003 25.8376 15.2175C25.8247 15.1342 25.8125 15.0446 25.8505 14.9694C25.8862 14.8979 25.9596 14.854 26.0315 14.819C26.3938 14.6439 26.8196 14.6045 27.2078 14.7106C27.0445 15.6514 26.9807 16.6099 27.018 17.564C27.0216 17.6576 27.0279 17.756 27.0792 17.8342C27.1754 17.9802 27.38 17.9945 27.5551 17.9934C30.2314 17.9787 32.9082 17.9639 35.5849 17.9492C35.8267 16.2848 36.9975 14.8043 36.9507 13.1229C36.947 12.9894 36.9341 12.8516 36.8707 12.7336C36.7498 12.5087 36.4763 12.4129 36.2219 12.3863C35.9679 12.3598 35.7058 12.3823 35.4614 12.3074C35.2174 12.2322 34.987 12.017 35.0094 11.7626C35.5432 11.8061 36.0804 11.8068 36.6142 11.7655C36.6853 11.76 36.7649 11.7493 36.8077 11.6922C36.8446 11.6424 36.8409 11.5746 36.8353 11.5126C36.8158 11.2959 36.7963 11.0788 36.7767 10.8616C36.738 10.4307 36.6798 9.95807 36.3631 9.66316C36.1784 9.49063 35.9303 9.40547 35.6877 9.33396C33.0298 8.54874 30.1581 8.84771 27.4832 9.57394C27.0825 9.68269 26.67 9.8084 26.3599 10.0849C25.9102 10.4856 25.7649 11.1149 25.5294 11.6693C25.3292 12.1401 25.0206 12.6027 24.548 12.7988C24.0423 13.009 23.4539 12.8689 22.9677 12.6171C22.8976 12.581 22.8224 12.5412 22.7443 12.5515C22.6657 12.5622 22.6034 12.6204 22.5496 12.6787C22.2687 12.9813 22.0195 13.4993 21.9727 13.7927C21.9719 13.757 21.9856 13.73 22.014 13.712C22.3469 14.1518 22.3841 15.0303 22.4165 15.5707C22.4563 16.2295 22.4044 16.8938 22.2584 17.5378Z" fill="#717272"/>
<path d="M28.6753 14.4557C28.5853 14.814 28.1673 14.9935 27.7938 15.1001C27.2689 15.2497 26.696 15.3765 26.3303 15.7632C25.965 16.1496 25.9952 16.9005 26.5165 17.0612C26.6049 17.0885 26.6982 17.0963 26.7907 17.104C29.153 17.2994 31.5153 17.4951 33.8776 17.6905C34.119 17.7104 34.3845 17.7244 34.5795 17.5884C34.738 17.4778 34.8128 17.292 34.8751 17.1154C35.159 16.3103 35.3488 15.4451 35.1641 14.6146C35.1214 14.4218 35.0502 14.2208 34.8873 14.0973C34.7638 14.0044 34.6045 13.9683 34.4508 13.9348C33.009 13.6196 31.4419 13.4238 30.0514 12.9461C29.6175 12.7968 29.3042 12.5313 28.8791 12.8535C28.2646 13.3195 28.8161 13.8946 28.6753 14.4557Z" fill="black"/>
<path d="M27.4738 11.2781C27.3861 11.3857 27.5332 11.5262 27.6589 11.5848C29.0332 12.2266 30.4765 12.7213 31.9558 13.0575C32.6316 13.2113 33.3375 13.3318 34.014 13.1803C34.6904 13.0291 35.3345 12.5462 35.4827 11.869C35.6574 11.0698 35.0808 10.2543 34.3428 9.90082C33.3865 9.44259 31.916 9.45033 30.8967 9.69696C29.929 9.93068 28.1278 10.4763 27.4738 11.2781Z" fill="black"/>
<path d="M37.2159 7.30423C37.2324 10.5066 37.2494 13.7091 37.266 16.9115C37.2711 17.8523 37.2188 18.9221 36.4878 19.5307C35.7697 20.1286 34.5255 19.9395 34.0249 19.1565C33.943 19.0282 33.8778 18.8782 33.9014 18.7282C33.9386 18.4941 34.1786 18.3411 34.413 18.2836C34.6479 18.2264 34.8963 18.2327 35.126 18.159C35.5186 18.0336 35.8043 17.6864 35.9529 17.3085C36.1014 16.9307 36.1331 16.5196 36.163 16.1156C36.2703 14.6628 36.3779 13.2103 36.4856 11.7575C36.5446 10.9616 36.6035 10.1609 36.5213 9.3668C36.4649 8.82268 36.3377 8.27413 36.0461 7.8078C35.7232 7.29133 35.2064 6.88582 35.0073 6.31221C34.7363 5.53031 35.2336 4.57626 36.0384 4.33443C36.8376 4.09481 37.8116 4.60833 38.0213 5.4105C38.2613 6.32953 37.2107 6.37377 37.2159 7.30423Z" fill="#BA3932"/>
<path d="M38.645 2.86058C38.7541 2.8392 38.8684 2.82113 38.9749 2.85173C39.202 2.91735 39.3119 3.1695 39.3804 3.39548C39.6595 4.31341 39.7498 5.28811 39.6447 6.24179C38.5591 6.46851 36.5537 6.69706 36.1353 5.2682C35.6958 3.76781 37.5232 3.07882 38.645 2.86058Z" fill="#FE0000"/>
<path d="M46.0843 15.5089L46.8846 15.6542L46.5189 14.6703L46.0843 15.5089ZM47.1954 15.9141L45.7812 15.6575L46.4245 14.4166L45.8977 12.9996L46.0857 12.9299L46.5491 14.1763L47.146 13.0254L47.324 13.1175L46.6435 14.4299L47.1954 15.9141Z" fill="black"/>
<path d="M46.0281 17.2684L46.4896 18.2111L46.8391 17.3337L46.0281 17.2684ZM46.0285 19.9102L45.8423 19.8361L46.3894 18.4625L45.6934 17.0403L47.1259 17.1556L46.6087 18.4544L47.273 19.8121L47.0931 19.9002L46.5084 18.7058L46.0285 19.9102Z" fill="black"/>
<path d="M44.6994 16.4108L45.538 16.8454L45.6833 16.0451L44.6994 16.4108ZM45.687 17.1484L44.4457 16.5048L43.029 17.0316L42.959 16.8436L44.2057 16.3802L43.0545 15.7833L43.147 15.6057L44.4594 16.2862L45.9435 15.7343L45.687 17.1484Z" fill="black"/>
<path d="M47.3373 16.1238V16.937L48.2397 16.4017L47.3373 16.1238ZM47.1367 17.2891V15.8521L48.4727 16.2635L49.7729 15.4923L49.875 15.6648L48.7311 16.3431L49.9705 16.725L49.9111 16.9167L48.4985 16.4814L47.1367 17.2891Z" fill="black"/>
<path d="M45.1931 15.1514L45.4976 16.0454L46.1563 15.5676L45.1931 15.1514ZM45.3954 16.3672L44.9446 15.0441L43.5566 14.4443L43.6363 14.2604L44.8572 14.7879L44.4388 13.5607L44.6283 13.4962L45.1057 14.8952L46.5589 15.5234L45.3954 16.3672Z" fill="black"/>
<path d="M46.7358 17.3557L47.7581 17.5931L47.2984 16.768L46.7358 17.3557ZM48.6089 19.1211L47.8897 17.8294L46.3477 17.471L47.3415 16.4333L48.0217 17.6543L49.494 17.9967L49.4487 18.1917L48.1533 17.8909L48.7844 19.0234L48.6089 19.1211Z" fill="black"/>
<path d="M45.5851 16.7284L45.1689 17.6921L46.0629 17.3872L45.5851 16.7284ZM44.4618 19.3281L44.2779 19.2485L44.8054 18.0279L43.5782 18.4463L43.5137 18.2565L44.9127 17.7794L45.5408 16.3259L46.3847 17.4893L45.0616 17.9405L44.4618 19.3281Z" fill="black"/>
<path d="M46.7863 15.588L47.3739 16.1505L47.6113 15.1283L46.7863 15.588ZM47.4893 16.5391L46.4512 15.5448L47.6725 14.8647L48.015 13.3923L48.21 13.4377L47.9092 14.7331L49.042 14.1023L49.1393 14.2774L47.848 14.9967L47.4893 16.5391Z" fill="black"/>
<path d="M46.4668 13.0913C44.618 13.0913 43.1143 14.595 43.1143 16.4437C43.1143 18.2921 44.618 19.7958 46.4668 19.7958C48.3152 19.7958 49.8189 18.2921 49.8189 16.4437C49.8189 14.595 48.3152 13.0913 46.4668 13.0913ZM46.4668 20.2305C44.3788 20.2305 42.6797 18.5318 42.6797 16.4437C42.6797 14.3554 44.3788 12.6567 46.4668 12.6567C48.5548 12.6567 50.2535 14.3554 50.2535 16.4437C50.2535 18.5318 48.5548 20.2305 46.4668 20.2305Z" fill="black"/>
<path d="M47.8175 16.443C47.8175 17.1884 47.2129 17.793 46.4675 17.793C45.7218 17.793 45.1172 17.1884 45.1172 16.443C45.1172 15.6972 45.7218 15.0926 46.4675 15.0926C47.2129 15.0926 47.8175 15.6972 47.8175 16.443Z" fill="black"/>
<path d="M46.4687 20.011C44.4972 20.011 42.8991 18.413 42.8991 16.4418C42.8991 14.4703 44.4972 12.8722 46.4687 12.8722C48.4399 12.8722 50.0383 14.4703 50.0383 16.4418C50.0383 18.413 48.4399 20.011 46.4687 20.011ZM46.4687 11.77C43.8886 11.77 41.7969 13.8617 41.7969 16.4418C41.7969 19.0216 43.8886 21.1133 46.4687 21.1133C49.0485 21.1133 51.1402 19.0216 51.1402 16.4418C51.1402 13.8617 49.0485 11.77 46.4687 11.77Z" fill="#4F5151"/>
<path d="M42.898 16.4433C42.898 14.4718 44.4961 12.8737 46.4676 12.8737C47.5761 12.8737 48.5667 13.3788 49.2214 14.1717C48.5766 13.2461 47.5042 12.6397 46.2903 12.6397C44.3188 12.6397 42.7207 14.2377 42.7207 16.2092C42.7207 17.0722 43.0267 17.8634 43.5365 18.4805C43.1339 17.9028 42.898 17.2005 42.898 16.4433Z" fill="black"/>
<path d="M50.1041 13.5103C50.6442 14.2723 50.9612 15.2032 50.9612 16.2077C50.9612 18.7879 48.8699 20.8796 46.2898 20.8796C44.82 20.8796 43.5087 20.2005 42.6523 19.1392C43.4988 20.3336 44.8919 21.1133 46.4671 21.1133C49.0469 21.1133 51.1385 19.0216 51.1385 16.4418C51.1385 15.3315 50.7511 14.3122 50.1041 13.5103Z" fill="black"/>
<path d="M47.3883 16.4428C47.3883 16.9511 46.9761 17.3633 46.4677 17.3633C45.959 17.3633 45.5469 16.9511 45.5469 16.4428C45.5469 15.934 45.959 15.5219 46.4677 15.5219C46.9761 15.5219 47.3883 15.934 47.3883 16.4428Z" fill="#B6B7B7"/>
<path d="M15.5979 15.5089L16.3983 15.6542L16.0326 14.6703L15.5979 15.5089ZM16.709 15.9141L15.2949 15.6575L15.9382 14.4166L15.4114 12.9996L15.5994 12.9299L16.0628 14.1763L16.6596 13.0254L16.8377 13.1175L16.1572 14.4299L16.709 15.9141Z" fill="black"/>
<path d="M15.5418 17.2684L16.0033 18.2111L16.3528 17.3337L15.5418 17.2684ZM15.5421 19.9102L15.356 19.8361L15.903 18.4625L15.207 17.0403L16.6396 17.1556L16.122 18.454L16.7867 19.8121L16.6068 19.9002L16.0221 18.7054L15.5421 19.9102Z" fill="black"/>
<path d="M14.213 16.4108L15.0517 16.8454L15.1969 16.0451L14.213 16.4108ZM15.2003 17.1484L13.9594 16.5048L12.5427 17.0316L12.4727 16.8436L13.719 16.3802L12.5681 15.7833L12.6607 15.6057L13.973 16.2862L15.4568 15.7343L15.2003 17.1484Z" fill="black"/>
<path d="M16.8509 16.1238V16.937L17.7534 16.4017L16.8509 16.1238ZM16.6504 17.2891V15.8521L17.9864 16.2635L19.2866 15.4923L19.3887 15.6648L18.2448 16.3431L19.4842 16.725L19.4248 16.9167L18.0122 16.4814L16.6504 17.2891Z" fill="black"/>
<path d="M14.7067 15.1514L15.0112 16.0454L15.67 15.5676L14.7067 15.1514ZM14.9091 16.3672L14.4583 15.0441L13.0703 14.4443L13.1499 14.2604L14.3709 14.7879L13.9525 13.5607L14.142 13.4962L14.6194 14.8952L16.0726 15.5234L14.9091 16.3672Z" fill="black"/>
<path d="M16.2476 17.3557L17.2698 17.5931L16.8101 16.768L16.2476 17.3557ZM18.1206 19.1211L17.4014 17.8297L15.8594 17.471L16.8532 16.4333L17.5334 17.6543L19.0058 17.9967L18.9604 18.1917L17.665 17.8909L18.2961 19.0234L18.1206 19.1211Z" fill="black"/>
<path d="M15.0988 16.7284L14.6826 17.6921L15.5765 17.3872L15.0988 16.7284ZM13.9755 19.3281L13.7915 19.2485L14.3191 18.0279L13.0919 18.4463L13.0273 18.2565L14.4264 17.7794L15.0545 16.3259L15.8983 17.4893L14.5753 17.9405L13.9755 19.3281Z" fill="black"/>
<path d="M16.2999 15.588L16.8876 16.1505L17.125 15.1283L16.2999 15.588ZM17.0029 16.5391L15.9648 15.5448L17.1862 14.8647L17.5286 13.3923L17.7237 13.4377L17.4228 14.7331L18.5553 14.1023L18.653 14.2774L17.3613 14.9967L17.0029 16.5391Z" fill="black"/>
<path d="M15.9804 13.0913C14.1317 13.0913 12.628 14.595 12.628 16.4437C12.628 18.2921 14.1317 19.7958 15.9804 19.7958C17.8288 19.7958 19.3325 18.2921 19.3325 16.4437C19.3325 14.595 17.8288 13.0913 15.9804 13.0913ZM15.9804 20.2305C13.8924 20.2305 12.1934 18.5318 12.1934 16.4437C12.1934 14.3554 13.8924 12.6567 15.9804 12.6567C18.0685 12.6567 19.7672 14.3554 19.7672 16.4437C19.7672 18.5318 18.0685 20.2305 15.9804 20.2305Z" fill="black"/>
<path d="M17.3312 16.443C17.3312 17.1884 16.7266 17.793 15.9812 17.793C15.2354 17.793 14.6309 17.1884 14.6309 16.443C14.6309 15.6972 15.2354 15.0926 15.9812 15.0926C16.7266 15.0926 17.3312 15.6972 17.3312 16.443Z" fill="black"/>
<path d="M15.9804 20.011C14.0089 20.011 12.4108 18.413 12.4108 16.4418C12.4108 14.4703 14.0089 12.8722 15.9804 12.8722C17.9516 12.8722 19.55 14.4703 19.55 16.4418C19.55 18.413 17.9516 20.011 15.9804 20.011ZM15.9804 11.77C13.4003 11.77 11.3086 13.8617 11.3086 16.4418C11.3086 19.0216 13.4003 21.1133 15.9804 21.1133C18.5602 21.1133 20.6519 19.0216 20.6519 16.4418C20.6519 13.8617 18.5602 11.77 15.9804 11.77Z" fill="#4F5151"/>
<path d="M12.4117 16.4433C12.4117 14.4718 14.0098 12.8737 15.9813 12.8737C17.0898 12.8737 18.0803 13.3788 18.7351 14.1717C18.0903 13.2461 17.0179 12.6397 15.804 12.6397C13.8324 12.6397 12.2344 14.2377 12.2344 16.2092C12.2344 17.0722 12.5403 17.8634 13.0502 18.4805C12.6476 17.9028 12.4117 17.2005 12.4117 16.4433Z" fill="black"/>
<path d="M19.6178 13.5103C20.1579 14.2723 20.4749 15.2032 20.4749 16.2077C20.4749 18.7879 18.3836 20.8796 15.8034 20.8796C14.3336 20.8796 13.0224 20.2005 12.166 19.1392C13.0124 20.3336 14.4055 21.1133 15.9808 21.1133C18.5605 21.1133 20.6522 19.0216 20.6522 16.4418C20.6522 15.3315 20.2648 14.3122 19.6178 13.5103Z" fill="black"/>
<path d="M16.9019 16.4428C16.9019 16.9511 16.4898 17.3633 15.9814 17.3633C15.4727 17.3633 15.0605 16.9511 15.0605 16.4428C15.0605 15.934 15.4727 15.5219 15.9814 15.5219C16.4898 15.5219 16.9019 15.934 16.9019 16.4428Z" fill="#B6B7B7"/>
<path d="M39.8172 18.293C39.9753 18.3111 40.79 18.2941 41.886 17.5742C42.9359 16.8841 43.1729 14.8488 44.663 13.9471C46.1534 13.0458 48.0763 13.7462 48.9072 14.3441C49.7381 14.9417 50.0021 15.0925 50.8249 15.0965C51.6481 15.1009 52.2317 14.8739 52.2317 14.8739C52.2317 14.8739 51.7716 12.7464 49.3953 11.361C46.9361 9.92775 44.089 10.3414 42.6793 11.6412C40.8962 13.2857 40.9117 14.3467 40.5596 15.5658C39.916 17.795 38.9682 18.1957 39.8172 18.293Z" fill="#FE0000"/>
<path d="M32.7988 2.80968L45.9705 16.6088C45.9705 16.6088 46.3948 16.9236 46.8567 16.7629C47.3186 16.6022 47.0396 15.7864 47.0396 15.7864L33.8712 2.00051L32.7988 2.80968Z" fill="black"/>
<path d="M7.77588 17.7927C7.69699 17.6338 8.69454 17.2814 9.66076 16.2042C10.8485 14.8801 10.9484 12.1775 13.7358 10.989C16.5153 9.80383 18.9967 10.5658 20.3725 12.1311C21.4065 13.3074 22.0745 15.5595 21.5816 17.3128C21.1846 18.725 20.6523 19.2891 20.6523 19.2891L19.2168 17.3128C19.2168 17.3128 19.915 14.3909 17.5498 13.6392C15.7364 13.063 14.2961 13.4154 13.2834 15.6959C12.4031 17.6781 8.41363 19.0719 7.77588 17.7927Z" fill="#FE0000"/>
<path d="M20.8616 11.0386L15.8657 16.5015C15.8657 16.5015 15.8215 16.8617 15.9372 17.129C16.053 17.3966 23.987 18.6172 23.987 18.6172L24.1816 17.9993L16.8375 16.5491L21.4618 11.4264L20.8616 11.0386Z" fill="black"/>
<path d="M31.6981 4.59993C30.8794 4.88379 30.1996 5.45887 29.5408 6.02143C28.4279 6.97216 27.3153 7.92253 26.2024 8.87289C25.7375 9.26992 25.2244 9.80888 25.3829 10.3995C25.5112 10.8783 26.0608 11.1419 26.5559 11.1154C27.051 11.0884 27.5044 10.844 27.942 10.6107C29.7458 9.65036 31.846 8.77631 33.7784 9.44134C34.3509 9.6382 34.8803 9.96519 35.4742 10.0854C36.0677 10.2059 36.7873 10.0467 37.0627 9.50696C37.3233 8.99639 37.0888 8.37854 36.8109 7.87755C35.8439 6.1357 33.9745 3.8114 31.6981 4.59993Z" fill="#FE0000"/>
<path d="M23.73 16.4541C25.1441 15.5167 26.7529 14.8277 28.4442 14.441C27.7534 13.3524 26.9645 12.3161 26.0882 11.3466C26.0315 11.2835 25.9633 11.2286 25.8847 11.1895C25.1065 10.8013 23.2087 11.0992 22.3148 11.118C21.6988 11.1309 20.5456 11.1069 20.6603 11.8704C20.7064 12.1775 21.3666 12.7301 21.5543 13.0147C21.8326 13.4364 22.067 13.8821 22.2532 14.3451C22.3491 14.5833 22.6554 15.4109 22.8003 16.1172C22.8806 16.5094 23.3779 16.6879 23.73 16.4541Z" fill="#FE0000"/>
<path d="M16.4101 9.95556C16.4101 9.95556 17.4718 9.74617 18.605 10.1705C19.7379 10.5944 20.7214 12.0273 20.7214 12.0273L26.9158 11.0604C26.9158 11.0604 27.9657 10.7975 27.0894 9.88183C26.6562 9.42913 25.6756 9.40444 25.6756 9.40444C25.6756 9.40444 23.132 10.5929 21.9343 10.5336C20.7362 10.4746 19.6981 9.26509 18.3802 9.15118C17.0626 9.03727 15.9508 9.48148 16.4101 9.95556Z" fill="black"/>
<path d="M36.0688 20.2109H21.9766L23.0832 18.8882H36.0688C36.0688 18.8882 36.7301 18.9819 36.7301 19.5042C36.7301 20.2109 36.0688 20.2109 36.0688 20.2109Z" fill="#B6B7B7"/>
<path d="M36.3139 18.9598C36.2815 19.6134 35.6544 19.6137 35.6544 19.6137H22.4764L21.9766 20.2109H36.0688C36.0688 20.2109 36.7301 20.2109 36.7301 19.5042C36.7301 19.1975 36.5019 19.0386 36.3139 18.9598Z" fill="black"/>
<path d="M34.6842 18.8711H21.1074L22.1735 17.5484H34.6842V18.8711Z" fill="#B6B7B7"/>
<path d="M34.6836 17.55C34.6836 17.55 35.1064 17.5356 35.3969 17.2381C35.8032 16.8215 37.2405 11.7258 37.2405 11.7258C37.2405 11.7258 37.4171 11.2591 37.7408 11.3365C38.0615 11.4135 38.2521 11.7258 38.0574 12.3388C37.9008 12.8339 36.6444 17.9326 36.1401 18.4351C35.5846 18.9888 34.6836 18.8727 34.6836 18.8727V17.55Z" fill="#B6B7B7"/>
<path d="M27.0927 16.3886C27.2346 16.5014 27.4307 16.5084 27.6121 16.5106C29.441 16.5339 31.2691 16.6065 33.0939 16.7289C33.3895 16.7488 33.725 16.7561 33.9355 16.5475C34.024 16.4598 34.0778 16.3436 34.1205 16.2264C34.2547 15.8585 34.2916 15.4633 34.3233 15.0733C34.3373 14.9008 34.3465 14.7128 34.2477 14.5705C34.1489 14.4285 33.8972 14.3906 33.8157 14.5432C33.788 14.5952 33.7858 14.6571 33.7843 14.7161C33.7814 14.8433 33.7781 14.9701 33.7751 15.0969C33.7696 15.3136 33.7615 15.5404 33.6531 15.7276C33.4599 16.0613 33.0264 16.1538 32.6426 16.1892C30.9336 16.3458 29.2338 16.0251 27.5358 15.8825C27.3832 15.8696 27.085 15.7903 26.9862 15.9518C26.9143 16.069 26.9972 16.3123 27.0927 16.3886Z" fill="#B6B7B7"/>
<path d="M28.1412 11.2914C28.2393 11.5089 28.5106 11.6026 28.7473 11.5727C28.9843 11.5432 29.1966 11.419 29.4068 11.3054C30.6664 10.6246 32.1252 10.2467 33.543 10.4495C33.6403 10.4635 33.7406 10.48 33.8353 10.4542C33.9304 10.4288 34.0181 10.3477 34.0163 10.2493C34.0134 10.0889 33.8073 10.0281 33.6473 10.0167C32.0345 9.90017 30.3992 10.1088 28.8674 10.6268C28.6223 10.7093 27.9713 10.9136 28.1412 11.2914Z" fill="#B6B7B7"/>
<path d="M29.8318 13.6118C29.8318 13.8153 29.6666 13.9805 29.4628 13.9805C29.2589 13.9805 29.0938 13.8153 29.0938 13.6118C29.0938 13.408 29.2589 13.2428 29.4628 13.2428C29.6666 13.2428 29.8318 13.408 29.8318 13.6118Z" fill="#B6B7B7"/>
<path d="M34.6359 14.7151C34.6359 15.0214 34.3878 15.2695 34.0818 15.2695C33.7754 15.2695 33.5273 15.0214 33.5273 14.7151C33.5273 14.4091 33.7754 14.161 34.0818 14.161C34.3878 14.161 34.6359 14.4091 34.6359 14.7151Z" fill="#B6B7B7"/>
<path d="M27.8536 1.71941C27.7504 1.88641 27.7442 2.11828 27.8658 2.27201C28.0339 2.48435 28.3506 2.48103 28.6201 2.45855C29.0927 2.4191 29.5653 2.37965 30.0375 2.33984C30.2546 2.32178 30.4872 2.29745 30.6535 2.15699C30.8887 1.95756 30.8858 1.54136 30.6476 1.34598C30.4574 1.18967 30.1883 1.18488 29.9424 1.19815C29.5299 1.2199 29.1188 1.27003 28.713 1.34855C28.3992 1.40901 28.0409 1.41528 27.8536 1.71941Z" fill="black"/>
<path d="M29.9153 0.990515C30.0388 0.91015 30.1915 0.885081 30.3385 0.887661C30.4609 0.889873 30.5859 0.911255 30.6902 0.975031C30.886 1.0941 30.9689 1.33336 31.018 1.55712C31.0482 1.69463 31.071 1.83545 31.0578 1.97516C31.0445 2.11525 30.9918 2.2557 30.8897 2.35229C30.7831 2.4533 30.6316 2.49753 30.4849 2.49606C30.3382 2.49458 30.1948 2.45071 30.0591 2.39468C29.9437 2.34676 29.8287 2.28704 29.748 2.19156C29.5032 1.90217 29.5902 1.20249 29.9153 0.990515Z" fill="black"/>
<path d="M38.9325 3.39074C39.3472 4.27217 39.345 5.28889 39.2617 6.25953C39.2595 6.28276 39.2576 6.30672 39.2632 6.32958C39.275 6.38045 39.3221 6.41657 39.3723 6.43169C39.4995 6.47003 39.6388 6.39003 39.7096 6.2776C39.7807 6.16553 39.7981 6.02839 39.8095 5.89605C39.8891 4.97075 39.7472 4.02739 39.3999 3.16587C39.366 3.08181 39.3291 2.99702 39.2724 2.92588C39.1046 2.71685 38.7157 2.67151 38.5273 2.87869C38.7098 3.01066 38.8344 3.18245 38.9325 3.39074Z" fill="#B6B7B7"/>
<path d="M11.7383 14.8047C11.5403 14.8047 11.3438 14.7129 11.2627 14.5356C11.1743 14.3417 11.241 14.1146 11.3199 13.9166C11.8592 12.5615 13.3087 11.4202 14.7133 11.0574C14.7487 11.0482 14.7885 11.0434 14.8283 11.0434C14.9544 11.0434 15.0808 11.0917 15.0646 11.2052C15.0554 11.269 14.9979 11.3132 14.9448 11.3501C14.1212 11.9197 13.158 12.4325 12.7723 13.3567C12.6658 13.6121 12.6105 13.8864 12.5058 14.1426C12.4008 14.3984 12.2323 14.6462 11.9783 14.7564C11.9038 14.7888 11.8209 14.8047 11.7383 14.8047Z" fill="#F58D82"/>
<path d="M17.4213 11.2852C17.3147 11.2852 17.2145 11.2358 17.1142 11.1993C16.9509 11.1403 16.795 11.123 16.6405 11.123C16.5354 11.123 16.4311 11.1311 16.3253 11.1388C16.2195 11.1465 16.1122 11.1543 16.0013 11.1543C15.9858 11.1543 15.9703 11.1543 15.9548 11.1539C15.9471 11.1539 15.9397 11.1536 15.9323 11.1536C15.8929 11.1536 15.8571 11.1558 15.8254 11.158C15.7933 11.1602 15.7661 11.1624 15.7432 11.1624C15.6606 11.1624 15.6422 11.1336 15.717 10.9703C15.8214 10.7425 16.0765 10.668 16.3644 10.668C16.7551 10.668 17.2067 10.8056 17.425 10.8844C17.5264 10.9209 17.6414 10.9832 17.6491 11.0905C17.6572 11.2 17.5389 11.2826 17.4294 11.2852C17.4264 11.2852 17.4239 11.2852 17.4213 11.2852Z" fill="#F58D82"/>
<path d="M28.4906 8.24609C28.3048 8.24609 28.1385 8.17826 28.1113 7.96666C28.0755 7.6935 28.5555 7.46567 28.7324 7.32891C29.4428 6.78036 30.1517 6.22997 30.861 5.68033C31.2197 5.40237 31.6186 5.11114 32.0687 5.11114C32.0823 5.11114 32.0963 5.11114 32.1103 5.11187C32.3459 5.12146 32.6231 5.29988 32.5634 5.52808C32.5247 5.6748 32.3673 5.75147 32.2268 5.80935C31.783 5.9922 31.3351 6.17873 30.9439 6.45706C30.2354 6.961 29.7377 7.74805 28.9584 8.13366C28.8464 8.18969 28.6606 8.24609 28.4906 8.24609Z" fill="#F58D82"/>
<path d="M44.2249 11.8867C44.0819 11.8867 43.9388 11.8447 43.8408 11.7433C43.394 11.2821 44.727 11.1306 45.0105 11.0676C45.5491 10.9485 46.1002 10.8881 46.6517 10.8881C46.7918 10.8881 46.9319 10.8917 47.0719 10.8999C47.2529 10.9098 47.4336 10.9264 47.612 10.9563C47.7967 10.9872 48.0286 11.1089 47.9784 11.2888C47.946 11.4049 47.8269 11.4407 47.6979 11.4407C47.6308 11.4407 47.5608 11.4307 47.4992 11.4178C47.2072 11.3566 46.9094 11.326 46.6111 11.326C46.0139 11.326 45.4164 11.448 44.8686 11.6865C44.7005 11.7595 44.5338 11.8443 44.3528 11.8757C44.3112 11.883 44.268 11.8867 44.2249 11.8867Z" fill="#F58D82"/>
<path d="M49.9904 13.0859C49.9185 13.0859 49.8389 13.0564 49.7806 13.0137C49.4703 12.7855 49.3821 12.335 49.0618 12.1212C48.9674 12.0585 48.8583 12.0206 48.7606 11.9627C48.5844 11.8583 48.4384 11.5878 48.6876 11.4875C48.6987 11.4831 48.7127 11.4812 48.7285 11.4812C48.8775 11.4812 49.2118 11.6626 49.304 11.7138C49.7172 11.9431 50.0402 12.345 50.1497 12.8076C50.1655 12.8747 50.1762 12.9495 50.1412 13.0093C50.1095 13.0638 50.0527 13.0859 49.9904 13.0859Z" fill="#F58D82"/>
<path d="M27.2705 19.375C27.0003 19.375 26.7301 19.3643 26.461 19.3433C26.009 19.3075 25.5589 19.2416 25.1055 19.232C25.0642 19.2312 25.0229 19.2309 24.9816 19.2309C24.6679 19.2309 24.3545 19.2537 24.0408 19.2666C23.9015 19.2721 23.6958 19.2994 23.5052 19.2994C23.3577 19.2994 23.2191 19.2832 23.127 19.2279C23.2593 19.0838 23.4827 19.0646 23.6847 19.0646C23.7478 19.0646 23.8086 19.0664 23.8639 19.0672C24.2919 19.0705 24.7202 19.0779 25.1482 19.0897C26.0134 19.1133 26.8779 19.1534 27.7417 19.2106C27.8283 19.2165 27.9466 19.2968 27.8836 19.3566C27.6797 19.3691 27.4751 19.375 27.2705 19.375Z" fill="#D0D1D1"/>
<path d="M22.1484 18.2812C22.1167 18.2812 22.0835 18.2765 22.0654 18.2518C21.9733 18.1268 22.249 17.8883 22.353 17.8625C22.3799 17.8558 22.4105 17.8529 22.4429 17.8529C22.5819 17.8529 22.7607 17.9023 22.879 17.906C22.9682 17.9085 23.0575 17.9097 23.1467 17.9097C23.5389 17.9097 23.9308 17.8875 24.3226 17.8717C24.974 17.8455 25.6258 17.8356 26.2779 17.8356C27.2246 17.8356 28.1717 17.8562 29.118 17.8768C29.2592 17.8798 29.449 17.9325 29.4387 18.0733C29.4295 18.1998 29.2684 18.2359 29.1383 18.2359C29.1312 18.2359 29.1246 18.2359 29.118 18.2359C28.1757 18.2086 27.2335 18.195 26.2908 18.195C25.1808 18.195 24.0705 18.2138 22.9612 18.2514C22.6958 18.2606 22.43 18.2706 22.1646 18.2809C22.1594 18.2809 22.1539 18.2812 22.1484 18.2812Z" fill="#D0D1D1"/>
</svg>
