<svg xmlns="http://www.w3.org/2000/svg" width="60" height="22" fill="none" viewBox="0 0 60 22"><path fill="#717272" d="M30.799 1.404c-.673.101-1.357.093-2.038.101-.179.002-.365.007-.526.086-.16.08-.288.255-.252.431.03.147.166.254.31.293.146.04.299.026.448.012l1.668-.162c.432-.042.905-.074 1.261.175.17.118.3.294.487.385.627.307 1.189-.498.79-1.009-.505-.647-1.473-.413-2.148-.312"/><path fill="#717272" d="M33.129 3.803c-.057.032-.117.065-.182.06-.082-.006-.147-.072-.202-.134a9 9 0 0 1-.736-.953c-.04-.06-.082-.126-.081-.199 0-.116.102-.202.195-.272l1.375-1.027a.45.45 0 0 1 .185-.098c.114-.02.223.048.315.117.42.313.77.72 1.015 1.181.03.057.06.123.04.184-.015.047-.055.08-.093.11-.534.407-1.242.698-1.831 1.031M22.258 17.538c-.044.196-.09.426.042.58.08.094.209.13.33.156 1.04.22 2.117-.028 3.152-.276a.6.6 0 0 0 .245-.097c.18-.138.164-.41.129-.635l-.318-2.048c-.013-.084-.026-.173.012-.249.036-.071.11-.115.181-.15a1.7 1.7 0 0 1 1.177-.108c-.163.94-.227 1.899-.19 2.853.004.094.01.192.061.27.096.146.301.16.476.16l8.03-.045c.242-1.664 1.413-3.145 1.366-4.826a.9.9 0 0 0-.08-.39c-.121-.224-.395-.32-.65-.347-.253-.026-.515-.004-.76-.079-.244-.075-.474-.29-.452-.544a10 10 0 0 0 1.605.002c.071-.005.15-.016.194-.073.037-.05.033-.117.027-.18l-.058-.65c-.039-.431-.097-.904-.414-1.199-.185-.172-.433-.258-.675-.329-2.658-.785-5.53-.486-8.205.24-.4.109-.813.234-1.123.51-.45.402-.595 1.03-.83 1.585-.2.471-.51.934-.982 1.13-.506.21-1.094.07-1.58-.182-.07-.036-.146-.076-.224-.066-.078.011-.14.07-.194.128-.281.302-.53.82-.577 1.114q-.001-.054.041-.081c.333.44.37 1.318.402 1.859a7 7 0 0 1-.158 1.967"/><path fill="#000" d="M28.675 14.456c-.09.358-.508.537-.881.644-.525.15-1.098.277-1.464.663-.365.387-.335 1.138.187 1.298.088.027.181.035.274.043l7.087.587c.241.02.507.033.702-.103.158-.11.233-.296.295-.473.284-.805.474-1.67.29-2.5-.044-.193-.115-.394-.278-.518-.123-.093-.282-.129-.436-.162-1.442-.315-3.01-.511-4.4-.989-.433-.15-.747-.415-1.172-.092-.614.466-.063 1.04-.204 1.602M27.474 11.278c-.088.108.06.248.185.307a21.3 21.3 0 0 0 4.297 1.472c.676.154 1.381.275 2.058.123.676-.15 1.32-.634 1.469-1.311.174-.8-.402-1.615-1.14-1.968-.957-.458-2.427-.45-3.446-.204-.968.234-2.77.78-3.423 1.581"/><path fill="#ba3932" d="m37.216 7.304.05 9.607c.005.941-.047 2.011-.778 2.62-.718.598-1.962.409-2.463-.374-.082-.129-.147-.279-.124-.429.038-.234.278-.387.512-.444.235-.058.483-.051.713-.125.393-.125.678-.473.827-.85.148-.378.18-.79.21-1.193l.323-4.358c.059-.796.117-1.597.035-2.391-.056-.544-.183-1.093-.475-1.56-.323-.516-.84-.921-1.039-1.495-.27-.782.227-1.736 1.031-1.978.8-.24 1.774.274 1.983 1.077.24.919-.81.963-.805 1.893"/><path fill="#fe0000" d="M38.645 2.86a.7.7 0 0 1 .33-.008c.227.065.337.318.405.543.28.918.37 1.893.265 2.847-1.086.227-3.091.455-3.51-.974-.44-1.5 1.388-2.19 2.51-2.407"/><path fill="#000" d="m46.084 15.509.8.145-.365-.984zm1.111.405-1.414-.256.644-1.241L45.898 13l.188-.07.463 1.246.597-1.15.178.091-.68 1.313zM46.028 17.268l.462.943.35-.877zm0 2.642-.186-.074.547-1.373-.696-1.423 1.433.116-.517 1.298.664 1.358-.18.088-.585-1.194z"/><path fill="#000" d="m44.7 16.41.838.435.145-.8zm.987.738-1.241-.643-1.417.527-.07-.188 1.247-.464-1.152-.597.093-.177 1.312.68 1.484-.552zM47.337 16.124v.813l.903-.535zm-.2 1.165v-1.437l1.336.412 1.3-.772.102.173-1.144.678 1.24.382-.06.192-1.413-.436z"/><path fill="#000" d="m45.193 15.151.305.894.658-.477zm.202 1.216-.45-1.323-1.388-.6.08-.184 1.22.528-.418-1.227.19-.065.477 1.4 1.453.627zM46.736 17.356l1.022.237-.46-.825zm1.873 1.765-.72-1.292-1.541-.358.994-1.038.68 1.221 1.472.343-.045.195-1.296-.301.631 1.132z"/><path fill="#000" d="m45.585 16.728-.416.964.894-.305zm-1.123 2.6-.184-.08.527-1.22-1.227.418-.064-.19 1.399-.477.628-1.453.844 1.163-1.323.451zM46.786 15.588l.588.563.237-1.023zm.703.951-1.038-.994 1.221-.68.343-1.473.195.046-.3 1.295 1.132-.63.097.174-1.291.72z"/><path fill="#000" d="M46.467 13.091a3.356 3.356 0 0 0-3.353 3.353 3.356 3.356 0 0 0 3.353 3.352 3.356 3.356 0 0 0 3.352-3.352 3.356 3.356 0 0 0-3.352-3.353m0 7.14a3.79 3.79 0 0 1-3.787-3.787c0-2.089 1.699-3.787 3.787-3.787a3.79 3.79 0 0 1 3.787 3.787 3.79 3.79 0 0 1-3.787 3.787"/><path fill="#000" d="M47.818 16.443a1.35 1.35 0 1 1-2.701 0 1.35 1.35 0 0 1 2.7 0"/><path fill="#4f5151" d="M46.469 20.011a3.57 3.57 0 1 1 0-7.139 3.57 3.57 0 0 1 0 7.139m0-8.241a4.672 4.672 0 1 0 0 9.344 4.672 4.672 0 0 0 0-9.344"/><path fill="#000" d="M42.898 16.443a3.57 3.57 0 0 1 6.323-2.271 3.57 3.57 0 1 0-5.685 4.309 3.55 3.55 0 0 1-.638-2.038"/><path fill="#000" d="M50.104 13.51a4.672 4.672 0 0 1-7.452 5.629 4.672 4.672 0 1 0 7.452-5.629"/><path fill="#b6b7b7" d="M47.388 16.443a.92.92 0 1 1-1.84 0 .92.92 0 0 1 1.84 0"/><path fill="#000" d="m15.598 15.509.8.145-.365-.984zm1.111.405-1.414-.256.643-1.241L15.411 13l.188-.07.464 1.246.597-1.15.178.091-.68 1.313zM15.542 17.268l.461.943.35-.877zm0 2.642-.186-.074.547-1.373-.696-1.423 1.433.116-.518 1.298.665 1.358-.18.088-.585-1.195z"/><path fill="#000" d="m14.213 16.41.839.435.145-.8zm.987.738-1.24-.643-1.417.527-.07-.188 1.246-.464-1.15-.597.092-.177 1.312.68 1.484-.552zM16.85 16.124v.813l.903-.535zm-.2 1.165v-1.437l1.336.412 1.3-.772.103.173-1.144.678 1.24.382-.06.192-1.413-.436z"/><path fill="#000" d="m14.707 15.151.304.894.659-.477zm.202 1.216-.45-1.323-1.389-.6.08-.184 1.22.528-.417-1.227.189-.065.477 1.4 1.454.627zM16.248 17.356l1.022.237-.46-.825zm1.873 1.765-.72-1.291-1.542-.359.994-1.038.68 1.221 1.473.343-.046.195-1.295-.301.631 1.132z"/><path fill="#000" d="m15.099 16.728-.416.964.893-.305zm-1.123 2.6-.185-.08.528-1.22-1.227.418-.065-.19 1.4-.477.628-1.453.843 1.163-1.323.451zM16.3 15.588l.588.563.237-1.023zm.703.951-1.038-.994 1.221-.68.343-1.473.195.046-.301 1.295 1.132-.63.098.174-1.292.72z"/><path fill="#000" d="M15.98 13.091a3.356 3.356 0 0 0-3.352 3.353 3.356 3.356 0 0 0 3.352 3.352 3.356 3.356 0 0 0 3.352-3.352 3.356 3.356 0 0 0-3.352-3.353m0 7.14a3.79 3.79 0 0 1-3.787-3.787 3.79 3.79 0 0 1 3.787-3.787 3.79 3.79 0 0 1 3.787 3.787 3.79 3.79 0 0 1-3.787 3.787"/><path fill="#000" d="M17.331 16.443a1.35 1.35 0 1 1-2.7 0 1.35 1.35 0 0 1 2.7 0"/><path fill="#4f5151" d="M15.98 20.011a3.57 3.57 0 1 1 0-7.139 3.57 3.57 0 0 1 0 7.139m0-8.241a4.672 4.672 0 1 0 0 9.344 4.672 4.672 0 0 0 0-9.344"/><path fill="#000" d="M12.412 16.443a3.57 3.57 0 0 1 6.323-2.271 3.57 3.57 0 1 0-5.685 4.309 3.55 3.55 0 0 1-.638-2.038"/><path fill="#000" d="M19.618 13.51a4.672 4.672 0 0 1-7.452 5.629 4.672 4.672 0 1 0 7.452-5.629"/><path fill="#b6b7b7" d="M16.902 16.443a.92.92 0 1 1-1.841 0 .92.92 0 0 1 1.84 0"/><path fill="#fe0000" d="M39.817 18.293c.158.018.973.001 2.069-.719 1.05-.69 1.287-2.725 2.777-3.627s3.413-.2 4.244.397c.831.598 1.095.749 1.918.753s1.407-.223 1.407-.223-.46-2.128-2.837-3.513c-2.459-1.433-5.306-1.02-6.716.28-1.783 1.645-1.767 2.706-2.12 3.925-.643 2.229-1.59 2.63-.742 2.727"/><path fill="#000" d="M32.799 2.81 45.97 16.609s.424.315.886.154c.462-.16.183-.977.183-.977L33.87 2.001z"/><path fill="#fe0000" d="M7.776 17.793c-.079-.16.919-.512 1.885-1.589 1.188-1.324 1.287-4.027 4.075-5.215 2.78-1.185 5.26-.423 6.636 1.142 1.035 1.176 1.703 3.428 1.21 5.182-.397 1.412-.93 1.976-.93 1.976l-1.435-1.976s.698-2.922-1.667-3.674c-1.814-.576-3.254-.224-4.267 2.057-.88 1.982-4.87 3.376-5.507 2.097"/><path fill="#000" d="m20.862 11.039-4.996 5.463s-.044.36.071.627c.116.268 8.05 1.488 8.05 1.488l.195-.618-7.344-1.45 4.624-5.123z"/><path fill="#fe0000" d="M31.698 4.6c-.819.284-1.498.859-2.157 1.421l-3.339 2.852c-.465.397-.978.936-.82 1.527.13.478.679.742 1.174.715s.948-.271 1.386-.504c1.804-.96 3.904-1.835 5.836-1.17.573.197 1.102.524 1.696.644s1.313-.038 1.589-.578c.26-.51.026-1.128-.252-1.63-.967-1.741-2.837-4.066-5.113-3.277M23.73 16.454a14.4 14.4 0 0 1 4.714-2.013 23 23 0 0 0-2.356-3.094.7.7 0 0 0-.203-.157c-.779-.389-2.676-.09-3.57-.072-.616.013-1.77-.011-1.655.752.046.308.707.86.894 1.145q.419.633.7 1.33c.095.238.401 1.066.546 1.772.08.392.578.57.93.337"/><path fill="#000" d="M16.41 9.956s1.062-.21 2.195.215c1.133.423 2.116 1.856 2.116 1.856l6.195-.967s1.05-.263.173-1.178c-.433-.453-1.413-.478-1.413-.478s-2.544 1.189-3.742 1.13-2.236-1.269-3.554-1.383-2.43.33-1.97.805"/><path fill="#b6b7b7" d="M36.069 20.21H21.977l1.106-1.322H36.07s.661.094.661.616c0 .707-.661.707-.661.707"/><path fill="#000" d="M36.314 18.96c-.032.653-.66.654-.66.654H22.476l-.5.597H36.07s.661 0 .661-.707c0-.306-.228-.465-.416-.544"/><path fill="#b6b7b7" d="M34.684 18.871H21.107l1.067-1.323h12.51z"/><path fill="#b6b7b7" d="M34.684 17.55s.422-.014.713-.312c.406-.416 1.843-5.512 1.843-5.512s.177-.467.5-.39c.322.078.512.39.317 1.003-.156.495-1.413 5.594-1.917 6.096-.555.554-1.456.438-1.456.438zM27.093 16.389c.142.112.338.12.52.122q2.743.035 5.48.218c.296.02.632.027.842-.181a.85.85 0 0 0 .185-.322c.135-.367.172-.763.203-1.153.014-.172.023-.36-.075-.503-.1-.142-.35-.18-.432-.027a.4.4 0 0 0-.032.173l-.009.38c-.005.218-.014.444-.122.632-.193.333-.627.426-1.01.461-1.71.157-3.41-.164-5.107-.306-.153-.013-.451-.093-.55.069-.072.117.011.36.107.437M28.141 11.291c.098.218.37.312.606.282.237-.03.45-.154.66-.268 1.26-.68 2.718-1.058 4.136-.855.097.014.198.03.292.004.095-.025.183-.106.181-.205-.003-.16-.209-.22-.369-.232a12.2 12.2 0 0 0-4.78.61c-.245.082-.896.287-.726.664M29.832 13.612a.369.369 0 1 1-.738 0 .369.369 0 0 1 .738 0"/><path fill="#b6b7b7" d="M34.636 14.715a.554.554 0 1 1-1.108 0 .554.554 0 0 1 1.108 0"/><path fill="#000" d="M27.854 1.72c-.104.166-.11.398.012.552.168.212.485.209.754.187l1.418-.12c.217-.017.45-.042.616-.182.235-.2.232-.616-.006-.811-.19-.156-.46-.161-.706-.148a9 9 0 0 0-1.229.15c-.314.061-.672.067-.86.371"/><path fill="#000" d="M29.915.99a.75.75 0 0 1 .424-.102.7.7 0 0 1 .351.087c.196.12.279.358.328.582.03.138.053.278.04.418a.6.6 0 0 1-.168.377.58.58 0 0 1-.405.144 1.2 1.2 0 0 1-.426-.101.8.8 0 0 1-.311-.203c-.245-.29-.158-.99.167-1.201"/><path fill="#b6b7b7" d="M38.933 3.39c.414.882.412 1.899.329 2.87a.2.2 0 0 0 .001.07c.012.05.06.087.11.102.127.038.266-.042.337-.154.07-.112.088-.25.1-.382a6 6 0 0 0-.41-2.73 1 1 0 0 0-.128-.24c-.167-.21-.556-.254-.745-.047.183.132.307.303.405.512"/><path fill="#f58d82" d="M11.738 14.805c-.198 0-.394-.092-.475-.27-.089-.193-.022-.42.057-.618.54-1.355 1.989-2.497 3.393-2.86a.5.5 0 0 1 .115-.014c.126 0 .253.049.237.162-.01.064-.067.108-.12.145-.824.57-1.787 1.082-2.173 2.007-.106.255-.162.53-.266.786-.105.255-.274.503-.528.613a.6.6 0 0 1-.24.049M17.421 11.285c-.106 0-.206-.05-.307-.086a1.4 1.4 0 0 0-.474-.076q-.157.002-.315.016a4 4 0 0 1-.324.015h-.069q-.06 0-.107.004-.048.004-.082.004c-.082 0-.1-.028-.026-.192.104-.228.36-.302.647-.302.391 0 .843.138 1.061.216.101.037.216.1.224.207.008.109-.11.192-.22.194zM28.49 8.246c-.185 0-.351-.068-.379-.28-.035-.272.444-.5.621-.637l2.129-1.649c.359-.278.758-.569 1.208-.569h.041c.236.01.513.189.453.417-.038.147-.196.223-.336.281-.444.183-.892.37-1.283.648-.709.504-1.206 1.291-1.986 1.677a1.1 1.1 0 0 1-.467.112M44.225 11.887a.53.53 0 0 1-.384-.144c-.447-.46.886-.612 1.17-.675a7.6 7.6 0 0 1 2.06-.168q.274.013.541.056c.185.031.417.153.366.333-.032.116-.151.152-.28.152a1 1 0 0 1-.199-.023 4.379 4.379 0 0 0-2.63.269c-.169.072-.335.157-.516.189a1 1 0 0 1-.128.01M49.99 13.086a.38.38 0 0 1-.21-.072c-.31-.228-.398-.679-.718-.893-.095-.062-.204-.1-.301-.158-.177-.105-.323-.375-.073-.475a.1.1 0 0 1 .04-.007c.15 0 .484.182.576.233.413.23.736.631.846 1.094.016.067.026.142-.009.201-.032.055-.088.077-.15.077"/><path fill="#d0d1d1" d="M27.27 19.375q-.405 0-.809-.032c-.452-.035-.902-.101-1.355-.111l-.124-.001c-.314 0-.627.023-.941.036-.14.005-.345.032-.536.032-.147 0-.286-.016-.378-.071.132-.144.356-.163.558-.163l.179.002a65 65 0 0 1 3.878.144c.086.006.205.086.142.146q-.306.018-.614.018M22.148 18.281c-.031 0-.064-.005-.083-.03-.092-.124.184-.363.288-.389a.4.4 0 0 1 .09-.01c.139 0 .318.05.436.054q.134.004.268.004c.392 0 .784-.023 1.176-.038a49 49 0 0 1 1.955-.036c.947 0 1.894.02 2.84.04.141.004.331.056.32.197-.008.127-.17.163-.3.163h-.02a98 98 0 0 0-6.953.045z"/></svg>