<svg xmlns="http://www.w3.org/2000/svg" width="80" height="36" fill="none" viewBox="0 0 80 36"><path fill="#fff" fill-rule="evenodd" d="M18.962 12.266c-.827-.935-1.65-1.872-2.478-2.807l10.707 1.497q.377 1.029.747 2.057 4.093.7 8.185 1.403.209-.961.419-1.916c1.527-1.55 3.267-2.917 6.125-3.322l6.079 1.778q.328-.023.656-.047.021-.21.047-.421c-.436-.546-.946-1.073-1.684-1.542l-.935-.28c-.57-.083-.441-1.065.234-.935q.679-.05 1.357-.094.136-.586.278-1.169-.021-.96-.047-1.918-.326.117-.653.234-.376-.255-.75-.515c.088-.764.201-1.555.515-2.291.453-.51 1.114.287 1.872 1.684q-.304.398-.609.794l.14 2.525c1.327.61 2.303 1.447 2.713 2.666q1.049-.934 2.104-1.87c2.183 2.992 3.277 5.712 3.178 8.136-1.058-.265-2.12-.53-3.178-.797q.793 1.708 1.59 3.415c1.23 2.492 2.247 4.802 3.477 7.294.41.665-.626 1.517-1.172.731-1.527-3.242-3.115-6.514-4.642-9.756q-.541.514-1.078 1.028c-1.37 1.357-2.065 2.713-2.197 4.07q-.49-.773-.982-1.545-.254.517-.515 1.029.374.493.75.981c.143.736.151 1.337.14 1.919q-.586 1.706-1.169 3.413c-.438.832-1.202 1.234-2.106 1.45q-5.983.044-11.97.093-2.898-.983-5.797-1.965-4.37-2.312-8.744-4.629.516-1.427 1.03-2.85H22q4.093 2.265 8.185 4.535l2.244-.282-.422-1.775 1.59.513h1.589q-.419-.934-.841-1.87-3.927-2.386-7.854-4.768-2.76-1.731-5.519-3.462-.888.165-1.775.328-2.642 2.688-5.285 5.378l3.32-4.629q-.725-.025-1.448-.046v-.61l2.01-.421q.584-.208 1.168-.42" clip-rule="evenodd"/><path fill="#fff" fill-rule="evenodd" d="M58.533 20.992a5.345 5.345 0 1 1 0 10.69 5.345 5.345 0 0 1 0-10.69m0-2.205a7.552 7.552 0 1 1-7.55 7.55 7.55 7.55 0 0 1 7.55-7.55" clip-rule="evenodd"/><path fill="#fff" fill-rule="evenodd" d="M58.533 29.242a2.913 2.913 0 0 0 2.905-2.905 2.913 2.913 0 0 0-2.906-2.906 2.913 2.913 0 0 0-2.905 2.906 2.913 2.913 0 0 0 2.905 2.905M23.078 20.435a5.692 5.692 0 1 1 0 11.385 5.693 5.693 0 1 1 0-11.385m0-2.351a8.044 8.044 0 0 1 0 16.088 8.045 8.045 0 1 1 0-16.088" clip-rule="evenodd"/><path fill="#fff" fill-rule="evenodd" d="M23.08 28.988a2.864 2.864 0 0 0 2.855-2.858 2.86 2.86 0 0 0-2.856-2.856 2.86 2.86 0 0 0-2.858 2.855 2.865 2.865 0 0 0 2.858 2.86" clip-rule="evenodd"/></svg>