<svg xmlns="http://www.w3.org/2000/svg" width="60" height="22" fill="none" viewBox="0 0 60 22"><path fill="#717272" d="M30.797 1.157c-.674.104-1.357.096-2.038.104-.179.002-.365.007-.526.088-.16.081-.288.262-.252.442.03.15.166.26.31.301.146.041.299.027.448.012l1.668-.166c.432-.043.905-.076 1.26.179.17.122.3.302.487.396.627.314 1.19-.511.79-1.036-.505-.664-1.473-.424-2.148-.32"/><path fill="#717272" d="M33.125 3.618c-.057.032-.117.066-.182.061-.082-.006-.147-.073-.202-.137a9 9 0 0 1-.736-.978c-.04-.062-.082-.13-.081-.204 0-.12.102-.208.195-.28l1.375-1.053a.45.45 0 0 1 .185-.1c.114-.02.223.049.315.12.42.32.77.738 1.015 1.212.03.058.06.125.04.188-.015.048-.055.082-.094.113-.533.418-1.242.716-1.83 1.058M22.256 17.708c-.044.201-.09.438.042.594.08.097.209.135.33.161 1.04.227 2.117-.029 3.151-.283a.6.6 0 0 0 .246-.1c.18-.141.163-.42.128-.651l-.318-2.102c-.013-.085-.025-.177.013-.254.036-.074.11-.119.181-.155a1.66 1.66 0 0 1 1.176-.11 14.3 14.3 0 0 0-.19 2.927c.004.096.01.197.062.277.096.15.3.165.476.163l8.029-.045c.241-1.708 1.412-3.227 1.365-4.952a.9.9 0 0 0-.08-.399c-.12-.23-.394-.33-.648-.356-.254-.027-.517-.005-.76-.081-.245-.077-.475-.298-.453-.56a10 10 0 0 0 1.605.004c.07-.006.15-.017.193-.075.037-.052.033-.121.028-.185l-.059-.668c-.038-.442-.097-.927-.413-1.23-.185-.176-.433-.264-.676-.337-2.657-.806-5.529-.499-8.203.246-.401.112-.814.24-1.123.524-.45.412-.595 1.057-.83 1.626-.201.483-.51.958-.982 1.159-.506.216-1.094.072-1.58-.187-.07-.037-.146-.077-.224-.067-.078.011-.14.07-.194.13-.281.311-.53.843-.577 1.144a.09.09 0 0 1 .041-.083c.333.451.37 1.352.402 1.907a7.4 7.4 0 0 1-.158 2.018"/><path fill="#000" d="M28.673 14.551c-.09.368-.508.552-.881.661-.525.154-1.098.284-1.464.68s-.335 1.167.187 1.332c.088.028.181.036.274.044l7.086.602c.241.02.507.035.702-.105.158-.113.233-.304.295-.485.284-.826.474-1.714.29-2.566-.044-.198-.115-.404-.277-.53-.124-.096-.283-.133-.437-.167-1.442-.324-3.009-.525-4.399-1.015-.434-.153-.747-.425-1.172-.095-.615.478-.063 1.068-.204 1.644M27.47 11.286c-.088.11.06.254.185.314a21 21 0 0 0 4.296 1.511c.676.158 1.382.281 2.058.126.677-.155 1.32-.65 1.469-1.345.175-.82-.402-1.657-1.14-2.02-.956-.47-2.426-.462-3.446-.209-.967.24-2.768.8-3.422 1.623"/><path fill="#000" d="m37.212 7.212.05 9.857c.005.965-.047 2.063-.778 2.687-.718.613-1.962.42-2.463-.384-.082-.132-.147-.285-.123-.44.037-.24.277-.397.511-.456.235-.058.483-.052.713-.127.392-.129.678-.485.827-.873s.18-.81.21-1.224l.322-4.471c.06-.817.118-1.638.036-2.453-.056-.558-.183-1.12-.475-1.6-.323-.53-.84-.945-1.039-1.534-.27-.802.227-1.78 1.031-2.029.8-.246 1.773.281 1.983 1.104.24.943-.81.989-.805 1.943"/><path fill="#aaa" d="M38.64 2.651a.7.7 0 0 1 .33-.009c.228.067.338.326.406.558.28.942.37 1.942.265 2.92-1.086.233-3.091.467-3.51-.999-.439-1.539 1.388-2.246 2.51-2.47"/><path fill="#000" d="m46.082 15.627.8.15-.365-1.01zm1.111.416-1.414-.263.643-1.273-.526-1.454.188-.072.463 1.28.597-1.182.178.095-.68 1.346zM46.024 17.434l.462.967.35-.9zm0 2.71-.186-.075.547-1.41-.695-1.459 1.432.119-.517 1.332.664 1.393-.18.09-.584-1.225z"/><path fill="#000" d="m44.695 16.556.839.446.145-.822zm.988.756-1.241-.66-1.417.54-.07-.192 1.247-.476-1.151-.612.092-.182 1.312.698 1.484-.566zM47.335 16.262v.834l.903-.55zm-.2 1.195v-1.474l1.336.422 1.3-.791.102.177-1.144.695 1.24.392-.06.197-1.413-.447z"/><path fill="#000" d="m45.189 15.26.304.918.66-.49zm.202 1.248-.45-1.358-1.388-.615.08-.189 1.22.541-.418-1.258.19-.067.477 1.436 1.453.644zM46.73 17.525l1.022.243-.46-.846zm1.873 1.81-.72-1.324-1.541-.368.994-1.065.68 1.253 1.472.351-.045.2-1.296-.308.631 1.162z"/><path fill="#000" d="m45.581 16.88-.416.988.894-.312zm-1.123 2.667-.184-.082.527-1.252-1.227.43-.064-.196 1.399-.489.628-1.491.843 1.193-1.323.463zM46.782 15.712l.588.577.237-1.049zm.703.976-1.038-1.02 1.221-.698.343-1.51.195.046-.3 1.329 1.132-.648.097.18-1.291.738z"/><path fill="#000" d="M46.464 13.148c-1.848 0-3.352 1.543-3.352 3.44 0 1.896 1.504 3.439 3.352 3.439 1.849 0 3.352-1.543 3.352-3.44 0-1.896-1.503-3.439-3.352-3.439m0 7.325c-2.087 0-3.786-1.743-3.786-3.885 0-2.143 1.699-3.886 3.786-3.886 2.088 0 3.787 1.743 3.787 3.886s-1.699 3.885-3.787 3.885"/><path fill="#000" d="M47.815 16.588c0 .764-.604 1.385-1.35 1.385-.745 0-1.35-.62-1.35-1.385 0-.766.605-1.386 1.35-1.386s1.35.62 1.35 1.386"/><path fill="#4f5151" d="M46.462 20.248c-1.97 0-3.569-1.64-3.569-3.662s1.598-3.662 3.57-3.662c1.97 0 3.569 1.64 3.569 3.662s-1.599 3.662-3.57 3.662m0-8.455c-2.58 0-4.671 2.146-4.671 4.793s2.092 4.793 4.671 4.793 4.671-2.146 4.671-4.793-2.091-4.793-4.67-4.793"/><path fill="#000" d="M42.894 16.586c0-2.023 1.598-3.662 3.57-3.662 1.108 0 2.098.518 2.753 1.331a3.54 3.54 0 0 0-2.931-1.572c-1.971 0-3.57 1.64-3.57 3.663 0 .885.307 1.697.816 2.33a3.7 3.7 0 0 1-.638-2.09"/><path fill="#000" d="M50.101 13.579c.54.781.857 1.736.857 2.767 0 2.647-2.09 4.793-4.67 4.793a4.62 4.62 0 0 1-3.638-1.785c.847 1.225 2.24 2.025 3.815 2.025 2.58 0 4.67-2.146 4.67-4.793a4.85 4.85 0 0 0-1.034-3.007"/><path fill="#b6b7b7" d="M47.386 16.587a.933.933 0 0 1-.92.944.933.933 0 0 1-.921-.944c0-.522.412-.945.92-.945.509 0 .921.423.921.945"/><path fill="#000" d="m15.598 15.627.8.15-.366-1.01zm1.11.416-1.413-.263.643-1.273-.527-1.454.188-.072.464 1.28.597-1.182.177.095-.68 1.346zM15.54 17.434l.461.967.35-.9zm0 2.71-.186-.075.547-1.41-.696-1.459 1.432.119-.517 1.332.665 1.393-.18.09-.585-1.226z"/><path fill="#000" d="m14.21 16.556.84.446.145-.822zm.988.756-1.24-.66-1.417.54-.07-.192 1.246-.476-1.15-.612.092-.182 1.312.698 1.484-.566zM16.85 16.262v.834l.903-.55zm-.2 1.195v-1.474l1.336.422 1.3-.791.102.177-1.143.695 1.239.392-.06.197-1.412-.447z"/><path fill="#000" d="m14.705 15.26.304.918.659-.49zm.202 1.248-.45-1.358-1.389-.615.08-.189 1.22.541-.418-1.258.19-.067.477 1.436 1.453.644zM16.246 17.525l1.022.243-.46-.846zm1.873 1.81-.72-1.324-1.542-.368.994-1.065.68 1.253 1.473.351-.046.2-1.295-.308.63 1.162z"/><path fill="#000" d="m15.097 16.88-.417.988.894-.312zm-1.123 2.667-.184-.082.527-1.252-1.227.43-.065-.196 1.4-.489.627-1.491.844 1.193-1.323.463zM16.298 15.712l.588.577.237-1.049zm.703.976-1.038-1.02 1.221-.698.342-1.51.195.046-.3 1.329 1.132-.648.098.18-1.292.738z"/><path fill="#000" d="M15.98 13.148c-1.848 0-3.352 1.543-3.352 3.44 0 1.896 1.504 3.439 3.352 3.439s3.352-1.543 3.352-3.44c0-1.896-1.504-3.439-3.352-3.439m0 7.325c-2.088 0-3.787-1.743-3.787-3.885 0-2.143 1.7-3.886 3.787-3.886 2.088 0 3.786 1.743 3.786 3.886s-1.698 3.885-3.786 3.885"/><path fill="#000" d="M17.33 16.588c0 .764-.604 1.385-1.349 1.385-.746 0-1.35-.62-1.35-1.385 0-.766.604-1.386 1.35-1.386.745 0 1.35.62 1.35 1.386"/><path fill="#4f5151" d="M15.982 20.248c-1.971 0-3.57-1.64-3.57-3.662s1.599-3.662 3.57-3.662 3.57 1.64 3.57 3.662-1.6 3.662-3.57 3.662m0-8.455c-2.58 0-4.671 2.146-4.671 4.793s2.091 4.793 4.67 4.793c2.58 0 4.672-2.146 4.672-4.793s-2.092-4.793-4.671-4.793"/><path fill="#000" d="M12.41 16.586c0-2.023 1.598-3.662 3.569-3.662 1.108 0 2.099.518 2.754 1.331a3.54 3.54 0 0 0-2.931-1.572c-1.972 0-3.57 1.64-3.57 3.663 0 .885.306 1.697.816 2.33a3.7 3.7 0 0 1-.638-2.09"/><path fill="#000" d="M19.617 13.579c.54.781.857 1.736.857 2.767 0 2.647-2.091 4.793-4.67 4.793a4.62 4.62 0 0 1-3.638-1.785c.846 1.225 2.24 2.025 3.814 2.025 2.58 0 4.671-2.146 4.671-4.793a4.85 4.85 0 0 0-1.034-3.007"/><path fill="#b6b7b7" d="M16.902 16.587a.933.933 0 0 1-.92.944.933.933 0 0 1-.921-.944c0-.522.412-.945.92-.945.509 0 .92.423.92.945"/><path fill="#aaa" d="M39.815 18.484c.158.019.973.001 2.069-.737 1.05-.708 1.287-2.796 2.776-3.721 1.49-.925 3.414-.207 4.244.407.831.613 1.095.768 1.918.772s1.406-.229 1.406-.229-.46-2.182-2.836-3.604c-2.459-1.47-5.305-1.046-6.715.288-1.783 1.687-1.767 2.776-2.12 4.026-.643 2.287-1.59 2.698-.742 2.798"/><path fill="#000" d="m32.799 2.599 13.17 14.157s.425.323.886.158c.462-.165.183-1.002.183-1.002L33.871 1.768z"/><path fill="#aaa" d="M7.776 17.973c-.079-.163.918-.525 1.885-1.63 1.187-1.359 1.287-4.131 4.074-5.35 2.78-1.217 5.26-.435 6.636 1.171 1.034 1.207 1.702 3.517 1.21 5.316-.398 1.45-.93 2.028-.93 2.028l-1.435-2.028s.698-2.998-1.667-3.769c-1.813-.59-3.254-.23-4.266 2.11-.88 2.034-4.87 3.464-5.507 2.152"/><path fill="#000" d="m20.861 11.041-4.995 5.605s-.044.37.071.644c.116.274 8.05 1.526 8.05 1.526l.194-.633-7.344-1.488 4.624-5.256z"/><path fill="#aaa" d="M31.698 4.435c-.82.29-1.499.88-2.158 1.458L26.202 8.82c-.465.407-.978.96-.82 1.566.13.491.679.761 1.174.734s.948-.278 1.386-.518c1.803-.985 3.903-1.882 5.836-1.2.572.203 1.101.538 1.695.662.594.123 1.313-.04 1.589-.594.26-.524.026-1.158-.252-1.672-.967-1.787-2.836-4.171-5.113-3.362M23.728 16.596a14.2 14.2 0 0 1 4.714-2.065 23.6 23.6 0 0 0-2.356-3.175.7.7 0 0 0-.204-.161c-.778-.399-2.676-.093-3.57-.074-.615.013-1.768-.011-1.654.772.046.315.707.882.894 1.174q.419.651.7 1.365c.095.245.401 1.094.546 1.818.08.403.578.586.93.346"/><path fill="#000" d="M16.408 9.93s1.062-.216 2.195.22c1.133.435 2.116 1.905 2.116 1.905l6.194-.992s1.05-.27.173-1.21c-.433-.464-1.413-.49-1.413-.49s-2.544 1.22-3.741 1.16-2.236-1.302-3.554-1.42c-1.317-.116-2.43.34-1.97.826"/><path fill="#b6b7b7" d="M36.065 20.45h-14.09l1.106-1.358h12.984s.662.096.662.632c0 .725-.662.725-.662.725"/><path fill="#000" d="M36.31 19.166c-.032.67-.659.67-.659.67H22.474l-.5.613h14.091s.662 0 .662-.725c0-.314-.228-.477-.416-.558"/><path fill="#b6b7b7" d="M34.679 19.082H21.103l1.066-1.357h12.51zM34.682 17.722s.422-.014.713-.32c.406-.427 1.843-5.655 1.843-5.655s.177-.479.5-.4c.321.08.512.4.317 1.029-.157.508-1.413 5.739-1.917 6.255-.555.568-1.456.448-1.456.448zM27.093 16.528c.142.116.338.123.52.125q2.743.036 5.48.224c.296.02.631.028.842-.186a.9.9 0 0 0 .185-.33c.134-.377.17-.782.203-1.183.014-.177.023-.37-.076-.515s-.35-.185-.432-.028a.4.4 0 0 0-.031.177l-.01.39c-.005.223-.013.456-.122.648-.193.342-.626.437-1.01.473-1.709.161-3.408-.168-5.106-.314-.153-.014-.451-.095-.55.07-.072.121.011.37.107.449M28.14 11.304c.097.223.369.319.605.288.237-.03.45-.158.66-.274 1.26-.699 2.718-1.086 4.136-.878.097.014.197.031.292.005.095-.027.183-.11.18-.21-.002-.165-.208-.228-.368-.24a11.9 11.9 0 0 0-4.78.627c-.245.084-.896.294-.726.681M29.83 13.684a.374.374 0 0 1-.37.379.374.374 0 0 1-.368-.379c0-.209.165-.378.369-.378s.369.17.369.378"/><path fill="#b6b7b7" d="M34.634 14.814a.56.56 0 0 1-.554.569.56.56 0 0 1-.555-.569c0-.314.248-.569.555-.569.306 0 .554.255.554.569"/><path fill="#000" d="M27.854 1.481c-.104.172-.11.41.012.567.168.218.485.215.754.192l1.417-.122c.217-.019.45-.044.616-.188.235-.204.232-.631-.006-.832-.19-.16-.459-.165-.705-.152a9 9 0 0 0-1.23.155c-.313.062-.671.068-.858.38"/><path fill="#000" d="M29.915.733a.74.74 0 0 1 .424-.106.7.7 0 0 1 .351.09c.196.122.279.367.328.597.03.141.053.286.04.429a.62.62 0 0 1-.168.387.57.57 0 0 1-.405.147 1.1 1.1 0 0 1-.426-.104.8.8 0 0 1-.311-.208c-.245-.297-.158-1.015.167-1.232"/><path fill="#b6b7b7" d="M38.93 3.198c.415.905.413 1.948.33 2.944a.2.2 0 0 0 .001.071c.012.053.06.09.11.105.126.04.266-.043.337-.158.07-.115.088-.256.1-.391a6.3 6.3 0 0 0-.41-2.801 1 1 0 0 0-.128-.247c-.167-.214-.556-.26-.745-.048a1.3 1.3 0 0 1 .406.525"/><path fill="#fbfbfb" d="M11.738 14.906c-.198 0-.394-.094-.475-.276-.089-.199-.022-.432.057-.635.54-1.39 1.989-2.561 3.393-2.933a.5.5 0 0 1 .115-.015c.126 0 .252.05.236.166-.009.066-.066.111-.12.149-.823.584-1.786 1.11-2.172 2.059-.106.262-.162.543-.266.806-.105.262-.274.517-.528.63a.6.6 0 0 1-.24.05M17.421 11.293c-.106 0-.207-.05-.307-.088a1.3 1.3 0 0 0-.474-.078q-.157.002-.315.016a4 4 0 0 1-.324.016h-.046l-.023-.001q-.06 0-.107.005-.048.003-.082.004c-.082 0-.1-.03-.026-.197.104-.234.36-.31.647-.31.391 0 .843.14 1.06.222.102.037.217.101.225.211.008.113-.11.197-.22.2zM28.489 8.18c-.186 0-.352-.07-.38-.287-.035-.28.444-.514.621-.654l2.129-1.692c.358-.285.757-.584 1.207-.584l.042.001c.236.01.513.193.453.427-.039.15-.196.23-.337.289-.443.187-.891.379-1.282.664-.709.517-1.206 1.325-1.986 1.72a1.1 1.1 0 0 1-.467.116M44.223 11.914a.52.52 0 0 1-.384-.147c-.447-.473.886-.629 1.17-.693a7.4 7.4 0 0 1 2.06-.172q.273.013.54.058c.185.031.417.156.367.34-.032.12-.151.156-.28.156a1 1 0 0 1-.2-.023 4.284 4.284 0 0 0-2.63.276c-.168.075-.334.162-.515.194a1 1 0 0 1-.128.011M49.988 13.145a.37.37 0 0 1-.21-.075c-.31-.234-.398-.696-.718-.915-.095-.065-.204-.103-.301-.163-.177-.107-.322-.385-.073-.487a.1.1 0 0 1 .04-.007c.15 0 .484.186.576.239.413.235.736.647.846 1.122.015.069.026.146-.009.207-.032.056-.088.079-.15.079"/><path fill="#d0d1d1" d="M27.27 19.594q-.405 0-.81-.033c-.451-.037-.901-.104-1.355-.114l-.124-.001c-.313 0-.627.023-.94.037-.14.005-.345.033-.536.033-.147 0-.286-.016-.378-.073.132-.148.356-.168.558-.168q.095 0 .179.003a63 63 0 0 1 3.877.147c.087.006.205.089.142.15a10 10 0 0 1-.613.019M22.146 18.473c-.031 0-.065-.005-.082-.03-.093-.129.183-.373.287-.4a.4.4 0 0 1 .09-.01c.139 0 .318.05.436.055q.134.003.268.003c.392 0 .784-.022 1.175-.039a47 47 0 0 1 1.956-.037c.946 0 1.893.022 2.84.043.14.003.33.057.32.201-.01.13-.17.167-.3.167h-.02a95 95 0 0 0-6.953.046z"/></svg>