<svg width="60" height="22" viewBox="0 0 60 22" fill="none" xmlns="http://www.w3.org/2000/svg">
<path d="M30.7965 1.15712C30.1234 1.26075 29.4396 1.25281 28.7592 1.26075C28.58 1.26264 28.3939 1.26756 28.2332 1.34888C28.0724 1.43019 27.9449 1.6106 27.9807 1.79101C28.0109 1.94154 28.1473 2.05122 28.2918 2.09207C28.4366 2.13329 28.59 2.11854 28.7393 2.10379C29.2951 2.04857 29.851 1.99297 30.4072 1.93775C30.8388 1.89464 31.3121 1.86211 31.6678 2.11703C31.8378 2.23881 31.9679 2.41922 32.1544 2.51264C32.7814 2.82693 33.3432 2.00167 32.9447 1.47747C32.4393 0.812949 31.4714 1.05311 30.7965 1.15712Z" fill="#717272"/>
<path d="M33.1248 3.61794C33.0684 3.65046 33.0075 3.68412 32.943 3.67921C32.8608 3.67278 32.7963 3.60583 32.7414 3.54229C32.4745 3.23443 32.2283 2.9069 32.0049 2.56423C31.9644 2.50183 31.9235 2.43451 31.9238 2.36C31.9242 2.24086 32.0263 2.15236 32.1192 2.08088C32.5774 1.7299 33.0359 1.37853 33.4941 1.02717C33.5505 0.984057 33.6095 0.939428 33.6788 0.926947C33.7927 0.906523 33.9018 0.975737 33.9943 1.04684C34.4138 1.36757 34.7632 1.78474 35.0091 2.25864C35.0393 2.31688 35.0688 2.3842 35.0493 2.44699C35.0341 2.49502 34.994 2.52944 34.9553 2.55969C34.4215 2.97762 33.7134 3.27603 33.1248 3.61794Z" fill="#717272"/>
<path d="M22.2564 17.7079C22.2122 17.9094 22.1668 18.1455 22.2977 18.3024C22.3788 18.3992 22.5067 18.4367 22.628 18.4632C23.6685 18.6897 24.7449 18.4344 25.7792 18.1799C25.8654 18.1587 25.9543 18.136 26.0247 18.0808C26.2053 17.9389 26.1883 17.6594 26.1533 17.4287C26.0472 16.7283 25.9414 16.0278 25.8352 15.3274C25.8223 15.2419 25.8102 15.15 25.8481 15.0728C25.8839 14.9995 25.9572 14.9545 26.0291 14.9185C26.3914 14.7389 26.8172 14.6984 27.2053 14.8073C27.042 15.7725 26.9783 16.7559 27.0155 17.7347C27.0192 17.8308 27.0255 17.9318 27.0767 18.0119C27.1729 18.1617 27.3775 18.1765 27.5526 18.1753C30.2287 18.1602 32.9051 18.1451 35.5816 18.1299C35.8234 16.4223 36.9941 14.9034 36.9473 13.1784C36.9436 13.0415 36.9307 12.9 36.8673 12.779C36.7464 12.5483 36.4729 12.4499 36.2185 12.4227C35.9646 12.3955 35.7025 12.4185 35.4581 12.3418C35.2141 12.2646 34.9837 12.0437 35.0062 11.7828C35.5399 11.8274 36.077 11.8282 36.6107 11.7858C36.6819 11.7801 36.7615 11.7691 36.8043 11.7105C36.8411 11.6595 36.8374 11.5899 36.8319 11.5263C36.8124 11.304 36.7928 11.0812 36.7733 10.8584C36.7346 10.4163 36.6764 9.93141 36.3597 9.62884C36.175 9.45184 35.927 9.36447 35.6844 9.2911C33.0268 8.4855 30.1553 8.79223 27.4807 9.53731C27.08 9.64889 26.6675 9.77786 26.3575 10.0615C25.9078 10.4726 25.7626 11.1182 25.5271 11.6871C25.3269 12.1701 25.0184 12.6447 24.5458 12.8459C24.0401 13.0615 23.4518 12.9178 22.9656 12.6595C22.8956 12.6224 22.8204 12.5816 22.7422 12.5921C22.6637 12.6031 22.6014 12.6629 22.5476 12.7226C22.2667 13.0331 22.0175 13.5645 21.9707 13.8656C21.97 13.8289 21.9836 13.8013 22.012 13.7828C22.3449 14.234 22.3821 15.1353 22.4145 15.6897C22.4543 16.3656 22.4024 17.0471 22.2564 17.7079Z" fill="#717272"/>
<path d="M28.673 14.5511C28.5831 14.9187 28.1651 15.1029 27.7917 15.2122C27.2668 15.3657 26.694 15.4958 26.3283 15.8926C25.963 16.289 25.9933 17.0594 26.5145 17.2243C26.6029 17.2523 26.6962 17.2602 26.7887 17.2681C29.1508 17.4686 31.5128 17.6694 33.8748 17.8699C34.1163 17.8903 34.3817 17.9047 34.5767 17.7651C34.7352 17.6517 34.81 17.461 34.8723 17.2799C35.1561 16.4539 35.3459 15.5662 35.1613 14.7141C35.1185 14.5163 35.0474 14.3101 34.8845 14.1834C34.761 14.0881 34.6017 14.0511 34.448 14.0166C33.0064 13.6933 31.4394 13.4924 30.049 13.0023C29.6152 12.8491 29.3019 12.5768 28.8769 12.9073C28.2624 13.3854 28.8138 13.9754 28.673 14.5511Z" fill="black"/>
<path d="M27.4699 11.2855C27.3822 11.3959 27.5293 11.54 27.655 11.6002C29.0291 12.2586 30.4722 12.7662 31.9515 13.1111C32.6271 13.2688 33.333 13.3925 34.0094 13.2371C34.6858 13.082 35.3298 12.5865 35.4779 11.8918C35.6527 11.0718 35.0762 10.2352 34.3382 9.87248C33.382 9.40236 31.9117 9.4103 30.8925 9.66333C29.9249 9.90311 28.1238 10.4629 27.4699 11.2855Z" fill="black"/>
<path d="M37.2116 7.21211C37.2282 10.4977 37.2452 13.7832 37.2617 17.0687C37.2669 18.0339 37.2146 19.1315 36.4836 19.7559C35.7656 20.3694 34.5215 20.1754 34.0209 19.3721C33.9391 19.2404 33.8739 19.0865 33.8975 18.9326C33.9347 18.6924 34.1747 18.5354 34.4091 18.4764C34.6439 18.4178 34.8923 18.4243 35.122 18.3486C35.5145 18.22 35.8002 17.8637 35.9488 17.4761C36.0973 17.0884 36.129 16.6667 36.1589 16.2522C36.2661 14.7616 36.3738 13.2715 36.4814 11.7809C36.5404 10.9644 36.5994 10.1429 36.5172 9.32822C36.4608 8.76998 36.3336 8.20719 36.042 7.72875C35.7191 7.19888 35.2023 6.78284 35.0033 6.19434C34.7324 5.39215 35.2296 4.41334 36.0343 4.16523C36.8334 3.91939 37.8073 4.44624 38.017 5.26923C38.257 6.21212 37.2065 6.2575 37.2116 7.21211Z" fill="black"/>
<path d="M38.6408 2.65126C38.7499 2.62932 38.8642 2.61079 38.9707 2.64218C39.1978 2.7095 39.3076 2.9682 39.3762 3.20004C39.6552 4.1418 39.7455 5.14179 39.6405 6.12023C38.5549 6.35283 36.5497 6.58732 36.1313 5.12137C35.692 3.58204 37.5191 2.87516 38.6408 2.65126Z" fill="#AAAAAA"/>
<path d="M46.0823 15.6273L46.8825 15.7763L46.5169 14.7669L46.0823 15.6273ZM47.1933 16.043L45.7793 15.7797L46.4225 14.5067L45.8958 13.0528L46.0838 12.9813L46.5471 14.2601L47.1439 13.0793L47.3219 13.1738L46.6415 14.5203L47.1933 16.043Z" fill="black"/>
<path d="M46.0242 17.4343L46.4856 18.4013L46.8351 17.5012L46.0242 17.4343ZM46.0245 20.1445L45.8384 20.0685L46.3854 18.6593L45.6895 17.2001L47.1219 17.3185L46.6047 18.651L47.2689 20.0439L47.0891 20.1343L46.5045 18.9089L46.0245 20.1445Z" fill="black"/>
<path d="M44.6953 16.5557L45.5339 17.0016L45.6791 16.1805L44.6953 16.5557ZM45.6828 17.3125L44.4417 16.6521L43.0251 17.1926L42.9551 16.9997L44.2017 16.5243L43.0505 15.912L43.1431 15.7297L44.4553 16.4279L45.9393 15.8617L45.6828 17.3125Z" fill="black"/>
<path d="M47.3353 16.2615V17.0958L48.2376 16.5467L47.3353 16.2615ZM47.1348 17.457V15.9828L48.4706 16.4048L49.7707 15.6136L49.8728 15.7906L48.729 16.4865L49.9683 16.8784L49.9089 17.075L48.4964 16.6284L47.1348 17.457Z" fill="black"/>
<path d="M45.189 15.2605L45.4935 16.1776L46.1522 15.6875L45.189 15.2605ZM45.3914 16.5078L44.9405 15.1504L43.5527 14.5351L43.6324 14.3463L44.8532 14.8875L44.4348 13.6285L44.6243 13.5623L45.1016 14.9976L46.5547 15.6421L45.3914 16.5078Z" fill="black"/>
<path d="M46.7299 17.5247L47.7521 17.7682L47.2924 16.9218L46.7299 17.5247ZM48.6028 19.3359L47.8837 18.0107L46.3418 17.6431L47.3356 16.5784L48.0156 17.831L49.4879 18.1824L49.4425 18.3825L48.1472 18.0738L48.7783 19.2357L48.6028 19.3359Z" fill="black"/>
<path d="M45.581 16.8797L45.1648 17.8684L46.0587 17.5556L45.581 16.8797ZM44.4578 19.5469L44.2739 19.4652L44.8014 18.2129L43.5743 18.6422L43.5098 18.4474L44.9086 17.958L45.5367 16.4667L46.3805 17.6603L45.0575 18.1233L44.4578 19.5469Z" fill="black"/>
<path d="M46.7823 15.7117L47.3699 16.2889L47.6073 15.2401L46.7823 15.7117ZM47.4853 16.6875L46.4473 15.6675L47.6685 14.9697L48.0109 13.4591L48.2059 13.5056L47.9051 14.8346L49.0378 14.1875L49.1352 14.3672L47.8439 15.1051L47.4853 16.6875Z" fill="black"/>
<path d="M46.4644 13.1482C44.6159 13.1482 43.1123 14.6909 43.1123 16.5876C43.1123 18.484 44.6159 20.0267 46.4644 20.0267C48.3126 20.0267 49.8162 18.484 49.8162 16.5876C49.8162 14.6909 48.3126 13.1482 46.4644 13.1482ZM46.4644 20.4727C44.3766 20.4727 42.6777 18.7298 42.6777 16.5876C42.6777 14.4451 44.3766 12.7023 46.4644 12.7023C48.5522 12.7023 50.2508 14.4451 50.2508 16.5876C50.2508 18.7298 48.5522 20.4727 46.4644 20.4727Z" fill="black"/>
<path d="M47.8153 16.5876C47.8153 17.3524 47.2108 17.9727 46.4654 17.9727C45.7197 17.9727 45.1152 17.3524 45.1152 16.5876C45.1152 15.8225 45.7197 15.2022 46.4654 15.2022C47.2108 15.2022 47.8153 15.8225 47.8153 16.5876Z" fill="black"/>
<path d="M46.4624 20.248C44.4911 20.248 42.8932 18.6085 42.8932 16.5862C42.8932 14.5635 44.4911 12.9239 46.4624 12.9239C48.4333 12.9239 50.0316 14.5635 50.0316 16.5862C50.0316 18.6085 48.4333 20.248 46.4624 20.248ZM46.4624 11.7931C43.8825 11.7931 41.791 13.9391 41.791 16.5862C41.791 19.2329 43.8825 21.3789 46.4624 21.3789C49.0419 21.3789 51.1334 19.2329 51.1334 16.5862C51.1334 13.9391 49.0419 11.7931 46.4624 11.7931Z" fill="#4F5151"/>
<path d="M42.8941 16.5858C42.8941 14.5631 44.492 12.9235 46.4633 12.9235C47.5717 12.9235 48.5622 13.4417 49.2168 14.2552C48.5721 13.3055 47.4999 12.6834 46.286 12.6834C44.3147 12.6834 42.7168 14.3229 42.7168 16.3456C42.7168 17.231 43.0227 18.0427 43.5325 18.6758C43.13 18.0831 42.8941 17.3626 42.8941 16.5858Z" fill="black"/>
<path d="M50.1014 13.5786C50.6414 14.3604 50.9584 15.3154 50.9584 16.346C50.9584 18.9931 48.8673 21.1391 46.2874 21.1391C44.8178 21.1391 43.5067 20.4424 42.6504 19.3536C43.4967 20.579 44.8897 21.3789 46.4647 21.3789C49.0443 21.3789 51.1357 19.2329 51.1357 16.5862C51.1357 15.447 50.7483 14.4012 50.1014 13.5786Z" fill="black"/>
<path d="M47.3861 16.5869C47.3861 17.1084 46.974 17.5312 46.4657 17.5312C45.957 17.5312 45.5449 17.1084 45.5449 16.5869C45.5449 16.0649 45.957 15.6421 46.4657 15.6421C46.974 15.6421 47.3861 16.0649 47.3861 16.5869Z" fill="#B6B7B7"/>
<path d="M15.5979 15.6273L16.3982 15.7763L16.0325 14.7669L15.5979 15.6273ZM16.7089 16.043L15.2949 15.7797L15.9381 14.5067L15.4114 13.0528L15.5994 12.9813L16.0627 14.2601L16.6595 13.0793L16.8375 13.1738L16.1571 14.5203L16.7089 16.043Z" fill="black"/>
<path d="M15.5398 17.4343L16.0013 18.4013L16.3507 17.5012L15.5398 17.4343ZM15.5401 20.1445L15.354 20.0685L15.901 18.6593L15.2051 17.2001L16.6375 17.3185L16.12 18.6506L16.7846 20.0439L16.6047 20.1343L16.0201 18.9085L15.5401 20.1445Z" fill="black"/>
<path d="M14.2109 16.5557L15.0495 17.0016L15.1947 16.1805L14.2109 16.5557ZM15.198 17.3125L13.9573 16.6521L12.5407 17.1926L12.4707 16.9997L13.717 16.5243L12.5662 15.912L12.6587 15.7297L13.9709 16.4279L15.4546 15.8617L15.198 17.3125Z" fill="black"/>
<path d="M16.8509 16.2615V17.0958L17.7533 16.5467L16.8509 16.2615ZM16.6504 17.457V15.9828L17.9862 16.4048L19.2863 15.6136L19.3884 15.7906L18.2446 16.4865L19.4839 16.8784L19.4245 17.075L18.012 16.6284L16.6504 17.457Z" fill="black"/>
<path d="M14.7046 15.2605L15.0091 16.1776L15.6678 15.6875L14.7046 15.2605ZM14.907 16.5078L14.4562 15.1504L13.0684 14.5351L13.148 14.3463L14.3688 14.8875L13.9504 13.6285L14.1399 13.5623L14.6173 14.9976L16.0703 15.6421L14.907 16.5078Z" fill="black"/>
<path d="M16.2456 17.5247L17.2677 17.7682L16.8081 16.9218L16.2456 17.5247ZM18.1185 19.3359L17.3993 18.0111L15.8574 17.6431L16.8512 16.5784L17.5313 17.831L19.0035 18.1824L18.9582 18.3825L17.6629 18.0738L18.2939 19.2357L18.1185 19.3359Z" fill="black"/>
<path d="M15.0966 16.8797L14.6804 17.8684L15.5743 17.5556L15.0966 16.8797ZM13.9735 19.5469L13.7895 19.4652L14.317 18.2129L13.0899 18.6422L13.0254 18.4474L14.4243 17.958L15.0524 16.4667L15.8961 17.6603L14.5732 18.1233L13.9735 19.5469Z" fill="black"/>
<path d="M16.298 15.7117L16.8855 16.2889L17.1229 15.2401L16.298 15.7117ZM17.0009 16.6875L15.9629 15.6675L17.1841 14.9697L17.5265 13.4591L17.7215 13.5056L17.4207 14.8346L18.5531 14.1875L18.6508 14.3672L17.3592 15.1051L17.0009 16.6875Z" fill="black"/>
<path d="M15.9801 13.1482C14.1315 13.1482 12.6279 14.6909 12.6279 16.5876C12.6279 18.484 14.1315 20.0267 15.9801 20.0267C17.8283 20.0267 19.3318 18.484 19.3318 16.5876C19.3318 14.6909 17.8283 13.1482 15.9801 13.1482ZM15.9801 20.4727C13.8923 20.4727 12.1934 18.7298 12.1934 16.5876C12.1934 14.4451 13.8923 12.7023 15.9801 12.7023C18.0679 12.7023 19.7664 14.4451 19.7664 16.5876C19.7664 18.7298 18.0679 20.4727 15.9801 20.4727Z" fill="black"/>
<path d="M17.3309 16.5876C17.3309 17.3524 16.7264 17.9727 15.9811 17.9727C15.2354 17.9727 14.6309 17.3524 14.6309 16.5876C14.6309 15.8225 15.2354 15.2022 15.9811 15.2022C16.7264 15.2022 17.3309 15.8225 17.3309 16.5876Z" fill="black"/>
<path d="M15.9819 20.248C14.0106 20.248 12.4127 18.6085 12.4127 16.5862C12.4127 14.5635 14.0106 12.9239 15.9819 12.9239C17.9529 12.9239 19.5511 14.5635 19.5511 16.5862C19.5511 18.6085 17.9529 20.248 15.9819 20.248ZM15.9819 11.7931C13.402 11.7931 11.3105 13.9391 11.3105 16.5862C11.3105 19.2329 13.402 21.3789 15.9819 21.3789C18.5614 21.3789 20.6529 19.2329 20.6529 16.5862C20.6529 13.9391 18.5614 11.7931 15.9819 11.7931Z" fill="#4F5151"/>
<path d="M12.4097 16.5858C12.4097 14.5631 14.0076 12.9235 15.979 12.9235C17.0874 12.9235 18.0778 13.4417 18.7325 14.2552C18.0878 13.3055 17.0155 12.6834 15.8017 12.6834C13.8303 12.6834 12.2324 14.3229 12.2324 16.3456C12.2324 17.231 12.5384 18.0427 13.0482 18.6758C12.6456 18.0831 12.4097 17.3626 12.4097 16.5858Z" fill="black"/>
<path d="M19.6171 13.5786C20.1571 14.3604 20.4741 15.3154 20.4741 16.346C20.4741 18.9931 18.383 21.1391 15.8031 21.1391C14.3334 21.1391 13.0223 20.4424 12.166 19.3536C13.0123 20.579 14.4053 21.3789 15.9804 21.3789C18.5599 21.3789 20.6514 19.2329 20.6514 16.5862C20.6514 15.447 20.264 14.4012 19.6171 13.5786Z" fill="black"/>
<path d="M16.9017 16.5869C16.9017 17.1084 16.4896 17.5312 15.9813 17.5312C15.4726 17.5312 15.0605 17.1084 15.0605 16.5869C15.0605 16.0649 15.4726 15.6421 15.9813 15.6421C16.4896 15.6421 16.9017 16.0649 16.9017 16.5869Z" fill="#B6B7B7"/>
<path d="M39.8152 18.4843C39.9733 18.5029 40.7879 18.4855 41.8838 17.7468C42.9336 17.0388 43.1706 14.9507 44.6605 14.0256C46.1508 13.1009 48.0735 13.8195 48.9043 14.4329C49.7352 15.046 49.9991 15.2007 50.8218 15.2049C51.6449 15.2094 52.2284 14.9764 52.2284 14.9764C52.2284 14.9764 51.7684 12.7937 49.3924 11.3724C46.9334 9.90193 44.0866 10.3263 42.6771 11.6599C40.8941 13.3471 40.9096 14.4356 40.5576 15.6863C39.914 17.9734 38.9663 18.3845 39.8152 18.4843Z" fill="#AAAAAA"/>
<path d="M32.7988 2.59867L45.9692 16.756C45.9692 16.756 46.3935 17.0789 46.8553 16.914C47.3172 16.7491 47.0382 15.9122 47.0382 15.9122L33.8711 1.76849L32.7988 2.59867Z" fill="black"/>
<path d="M7.77588 17.9726C7.69699 17.8096 8.69445 17.4481 9.66057 16.3429C10.8482 14.9844 10.9481 12.2117 13.7352 10.9923C16.5145 9.77638 18.9956 10.5581 20.3712 12.164C21.4052 13.3709 22.0731 15.6814 21.5802 17.4802C21.1833 18.9291 20.651 19.5078 20.651 19.5078L19.2156 17.4802C19.2156 17.4802 19.9138 14.4825 17.5488 13.7113C15.7356 13.1202 14.2954 13.4817 13.2829 15.8214C12.4026 17.855 8.41357 19.285 7.77588 17.9726Z" fill="#AAAAAA"/>
<path d="M20.8611 11.0411L15.8657 16.6458C15.8657 16.6458 15.8215 17.0154 15.9372 17.2896C16.053 17.5641 23.9862 18.8164 23.9862 18.8164L24.1808 18.1825L16.8374 16.6946L21.4612 11.439L20.8611 11.0411Z" fill="black"/>
<path d="M31.6975 4.43467C30.8788 4.7259 30.1991 5.31591 29.5404 5.89306C28.4276 6.86848 27.3151 7.84351 26.2023 8.81855C25.7375 9.22588 25.2244 9.77883 25.3829 10.3847C25.5112 10.876 26.0608 11.1464 26.5558 11.1192C27.0508 11.0916 27.5042 10.8409 27.9418 10.6014C29.7454 9.6162 31.8453 8.71945 33.7776 9.40175C34.35 9.60372 34.8793 9.93919 35.4732 10.0625C36.0666 10.1862 36.7861 10.0228 37.0615 9.46907C37.3221 8.94525 37.0877 8.31136 36.8097 7.79737C35.8429 6.01031 33.9737 3.62567 31.6975 4.43467Z" fill="#AAAAAA"/>
<path d="M23.7277 16.5959C25.1417 15.6342 26.7503 14.9273 28.4415 14.5305C27.7507 13.4137 26.9619 12.3505 26.0857 11.3558C26.029 11.2911 25.9608 11.2348 25.8823 11.1947C25.1041 10.7964 23.2065 11.102 22.3127 11.1213C21.6967 11.1345 20.5437 11.11 20.6583 11.8932C20.7044 12.2083 21.3646 12.7752 21.5522 13.0672C21.8305 13.4999 22.065 13.9572 22.2511 14.4322C22.3469 14.6765 22.6532 15.5256 22.7981 16.2503C22.8785 16.6527 23.3757 16.8357 23.7277 16.5959Z" fill="#AAAAAA"/>
<path d="M16.4082 9.92913C16.4082 9.92913 17.4698 9.71431 18.6029 10.1496C19.7356 10.5846 20.719 12.0547 20.719 12.0547L26.9128 11.0626C26.9128 11.0626 27.9626 10.793 27.0864 9.85349C26.6533 9.38904 25.6728 9.3637 25.6728 9.3637C25.6728 9.3637 23.1294 10.5831 21.9318 10.5222C20.7338 10.4617 19.6958 9.22074 18.378 9.10387C17.0606 8.987 15.9489 9.44275 16.4082 9.92913Z" fill="black"/>
<path d="M36.0654 20.4492H21.9746L23.0812 19.0922H36.0654C36.0654 19.0922 36.7267 19.1883 36.7267 19.7242C36.7267 20.4492 36.0654 20.4492 36.0654 20.4492Z" fill="#B6B7B7"/>
<path d="M36.3105 19.1656C36.2781 19.8361 35.6511 19.8365 35.6511 19.8365H22.4744L21.9746 20.4492H36.0654C36.0654 20.4492 36.7267 20.4492 36.7267 19.7242C36.7267 19.4095 36.4985 19.2465 36.3105 19.1656Z" fill="black"/>
<path d="M34.679 19.082H21.1035L22.1695 17.725H34.679V19.082Z" fill="#B6B7B7"/>
<path d="M34.6816 17.7224C34.6816 17.7224 35.1044 17.7077 35.3949 17.4024C35.8011 16.9751 37.2383 11.747 37.2383 11.747C37.2383 11.747 37.4149 11.2682 37.7385 11.3476C38.0592 11.4267 38.2498 11.747 38.0551 12.376C37.8985 12.8839 36.6423 18.115 36.138 18.6305C35.5825 19.1986 34.6816 19.0794 34.6816 19.0794V17.7224Z" fill="#B6B7B7"/>
<path d="M27.0927 16.528C27.2346 16.6437 27.4307 16.6509 27.6121 16.6532C29.4407 16.677 31.2686 16.7515 33.0933 16.8771C33.3889 16.8975 33.7243 16.9051 33.9348 16.691C34.0233 16.601 34.0771 16.4818 34.1198 16.3616C34.254 15.9841 34.2909 15.5787 34.3226 15.1785C34.3366 15.0015 34.3458 14.8086 34.247 14.6626C34.1482 14.517 33.8965 14.4781 33.815 14.6346C33.7874 14.688 33.7851 14.7515 33.7837 14.812C33.7807 14.9425 33.7774 15.0726 33.7744 15.2027C33.7689 15.4251 33.7608 15.6577 33.6524 15.8498C33.4593 16.1921 33.0258 16.287 32.6421 16.3234C30.9332 16.4841 29.2336 16.1551 27.5358 16.0087C27.3831 15.9954 27.0849 15.9141 26.9862 16.0798C26.9143 16.2001 26.9972 16.4497 27.0927 16.528Z" fill="#B6B7B7"/>
<path d="M28.1393 11.3035C28.2373 11.5267 28.5086 11.6227 28.7453 11.5921C28.9823 11.5618 29.1946 11.4344 29.4047 11.3179C30.6642 10.6193 32.1228 10.2317 33.5405 10.4397C33.6378 10.4541 33.738 10.4711 33.8328 10.4446C33.9279 10.4185 34.0156 10.3353 34.0138 10.2343C34.0108 10.0698 33.8048 10.0074 33.6448 9.99566C32.0321 9.87615 30.397 10.0902 28.8654 10.6216C28.6203 10.7063 27.9693 10.9159 28.1393 11.3035Z" fill="#B6B7B7"/>
<path d="M29.8297 13.6843C29.8297 13.8931 29.6646 14.0625 29.4608 14.0625C29.2569 14.0625 29.0918 13.8931 29.0918 13.6843C29.0918 13.4751 29.2569 13.3057 29.4608 13.3057C29.6646 13.3057 29.8297 13.4751 29.8297 13.6843Z" fill="#B6B7B7"/>
<path d="M34.6338 14.814C34.6338 15.1283 34.3857 15.3828 34.0798 15.3828C33.7735 15.3828 33.5254 15.1283 33.5254 14.814C33.5254 14.5001 33.7735 14.2455 34.0798 14.2455C34.3857 14.2455 34.6338 14.5001 34.6338 14.814Z" fill="#B6B7B7"/>
<path d="M27.8536 1.48121C27.7504 1.65254 27.7442 1.89044 27.8658 2.04815C28.0339 2.266 28.3505 2.2626 28.62 2.23953C29.0925 2.19906 29.5651 2.15859 30.0373 2.11774C30.2544 2.09921 30.487 2.07425 30.6532 1.93015C30.8884 1.72554 30.8854 1.29854 30.6473 1.09808C30.4571 0.93772 30.188 0.932801 29.9422 0.946417C29.5297 0.968731 29.1187 1.02017 28.7129 1.10073C28.3992 1.16275 28.0409 1.16919 27.8536 1.48121Z" fill="black"/>
<path d="M29.9153 0.732686C30.0388 0.650235 30.1914 0.624515 30.3385 0.627163C30.4609 0.629432 30.5858 0.651369 30.6901 0.7168C30.8859 0.838963 30.9688 1.08442 31.0178 1.314C31.048 1.45507 31.0709 1.59955 31.0576 1.74289C31.0444 1.88661 30.9916 2.03071 30.8895 2.1298C30.783 2.23343 30.6315 2.27882 30.4848 2.27731C30.3381 2.27579 30.1947 2.23079 30.0591 2.1733C29.9437 2.12413 29.8287 2.06286 29.748 1.9649C29.5032 1.66801 29.5902 0.950158 29.9153 0.732686Z" fill="black"/>
<path d="M38.9305 3.19827C39.3452 4.10258 39.343 5.1457 39.2597 6.14153C39.2574 6.16536 39.2556 6.18994 39.2611 6.21339C39.2729 6.26559 39.3201 6.30265 39.3702 6.31815C39.4974 6.35749 39.6367 6.27542 39.7075 6.16006C39.7787 6.04509 39.796 5.90439 39.8074 5.76861C39.887 4.8193 39.7451 3.85145 39.3979 2.96756C39.364 2.88133 39.3271 2.79434 39.2703 2.72134C39.1026 2.5069 38.7137 2.46038 38.5254 2.67293C38.7079 2.80833 38.8324 2.98458 38.9305 3.19827Z" fill="#B6B7B7"/>
<path d="M11.7382 14.9062C11.5403 14.9062 11.3438 14.8121 11.2627 14.6302C11.1743 14.4312 11.241 14.1982 11.3199 13.9951C11.8592 12.6048 13.3085 11.4339 14.7129 11.0617C14.7483 11.0523 14.7881 11.0473 14.8279 11.0473C14.954 11.0473 15.0804 11.0969 15.0642 11.2134C15.055 11.2788 14.9975 11.3242 14.9444 11.362C14.1209 11.9463 13.1578 12.4724 12.7722 13.4206C12.6657 13.6827 12.6104 13.9641 12.5057 14.227C12.4006 14.4895 12.2322 14.7436 11.9782 14.8567C11.9038 14.89 11.8208 14.9062 11.7382 14.9062Z" fill="#FBFBFB"/>
<path d="M17.4211 11.293C17.3146 11.293 17.2143 11.2423 17.1141 11.2048C16.9508 11.1443 16.7948 11.1266 16.6404 11.1266C16.5353 11.1266 16.431 11.1349 16.3252 11.1428C16.2194 11.1508 16.1122 11.1587 16.0012 11.1587C15.9858 11.1587 15.9703 11.1587 15.9548 11.1583C15.947 11.1583 15.9397 11.1579 15.9323 11.1579C15.8929 11.1579 15.8571 11.1602 15.8254 11.1625C15.7933 11.1648 15.7661 11.167 15.7432 11.167C15.6606 11.167 15.6422 11.1375 15.717 10.97C15.8213 10.7362 16.0764 10.6598 16.3643 10.6598C16.755 10.6598 17.2066 10.8009 17.4248 10.8819C17.5262 10.9193 17.6412 10.9832 17.6489 11.0933C17.657 11.2056 17.5387 11.2903 17.4292 11.293C17.4263 11.293 17.4237 11.293 17.4211 11.293Z" fill="#FBFBFB"/>
<path d="M28.4886 8.17969C28.3028 8.17969 28.1366 8.1101 28.1093 7.893C28.0736 7.61275 28.5535 7.37901 28.7304 7.23869C29.4407 6.67591 30.1496 6.11124 30.8588 5.54732C31.2174 5.26215 31.6163 4.96336 32.0663 4.96336C32.08 4.96336 32.094 4.96336 32.108 4.96412C32.3435 4.97395 32.6207 5.15701 32.561 5.39112C32.5223 5.54165 32.3649 5.62032 32.2245 5.6797C31.7807 5.86729 31.3328 6.05867 30.9417 6.34422C30.2332 6.86124 29.7356 7.66872 28.9564 8.06433C28.8443 8.12182 28.6585 8.17969 28.4886 8.17969Z" fill="#FBFBFB"/>
<path d="M44.2229 11.9141C44.0799 11.9141 43.9369 11.8709 43.8388 11.7669C43.3921 11.2938 44.7249 11.1383 45.0084 11.0737C45.5469 10.9515 46.098 10.8895 46.6494 10.8895C46.7895 10.8895 46.9296 10.8933 47.0697 10.9016C47.2506 10.9118 47.4313 10.9288 47.6097 10.9595C47.7943 10.9912 48.0262 11.116 47.9761 11.3006C47.9436 11.4197 47.8246 11.4564 47.6956 11.4564C47.6285 11.4564 47.5584 11.4462 47.4969 11.433C47.2049 11.3702 46.9071 11.3388 46.6089 11.3388C46.0118 11.3388 45.4142 11.464 44.8665 11.7087C44.6984 11.7836 44.5318 11.8706 44.3508 11.9027C44.3092 11.9103 44.266 11.9141 44.2229 11.9141Z" fill="#FBFBFB"/>
<path d="M49.9883 13.1445C49.9164 13.1445 49.8368 13.1143 49.7786 13.0704C49.4682 12.8363 49.3801 12.3741 49.0598 12.1547C48.9654 12.0904 48.8563 12.0515 48.7586 11.9921C48.5824 11.8851 48.4365 11.6075 48.6857 11.5046C48.6967 11.5001 48.7107 11.4982 48.7266 11.4982C48.8755 11.4982 49.2098 11.6842 49.302 11.7368C49.7152 11.9721 50.0381 12.3843 50.1475 12.859C50.1634 12.9278 50.1741 13.0046 50.1391 13.0659C50.1074 13.1218 50.0506 13.1445 49.9883 13.1445Z" fill="#FBFBFB"/>
<path d="M27.2701 19.5938C26.9999 19.5938 26.7297 19.5828 26.4606 19.5612C26.0087 19.5245 25.5587 19.4568 25.1053 19.447C25.064 19.4462 25.0227 19.4459 24.9814 19.4459C24.6677 19.4459 24.3544 19.4693 24.0407 19.4826C23.9014 19.4882 23.6957 19.5162 23.5051 19.5162C23.3577 19.5162 23.2191 19.4996 23.127 19.4428C23.2593 19.295 23.4827 19.2753 23.6847 19.2753C23.7477 19.2753 23.8085 19.2772 23.8638 19.2779C24.2918 19.2813 24.7201 19.2889 25.148 19.301C26.0132 19.3252 26.8775 19.3664 27.7412 19.4251C27.8278 19.4311 27.9461 19.5136 27.8831 19.5748C27.6793 19.5877 27.4747 19.5938 27.2701 19.5938Z" fill="#D0D1D1"/>
<path d="M22.1464 18.4727C22.1147 18.4727 22.0815 18.4677 22.0635 18.4424C21.9713 18.3142 22.247 18.0695 22.351 18.043C22.3779 18.0362 22.4085 18.0332 22.4409 18.0332C22.5799 18.0332 22.7587 18.0838 22.877 18.0876C22.9662 18.0903 23.0554 18.0914 23.1446 18.0914C23.5368 18.0914 23.9286 18.0687 24.3205 18.0525C24.9718 18.0256 25.6235 18.0154 26.2756 18.0154C27.2221 18.0154 28.1691 18.0366 29.1153 18.0578C29.2565 18.0608 29.4463 18.1149 29.436 18.2593C29.4268 18.3891 29.2657 18.4261 29.1356 18.4261C29.1286 18.4261 29.122 18.4261 29.1153 18.4261C28.1732 18.3981 27.231 18.3842 26.2885 18.3842C25.1786 18.3842 24.0683 18.4034 22.9592 18.442C22.6938 18.4515 22.428 18.4617 22.1626 18.4723C22.1575 18.4723 22.1519 18.4727 22.1464 18.4727Z" fill="#D0D1D1"/>
</svg>
