<svg xmlns="http://www.w3.org/2000/svg" width="80" height="36" fill="none" viewBox="0 0 80 36"><path fill="#fff" fill-rule="evenodd" d="m50.753 13.554-10.34-.492c-1.915-.113-1.815-.03-1.991-1.881l-.306-3.247c-.041-.582.02-.685.627-.685 1.08 0 3.179.284 4.596.634 2.045.506 4.386 1.414 6.03 2.48.4.26.769.528 1.124.802-.357-.004-2.216-.41-2.354-.053-.192.495.537 1.935 1.456 1.887 1.014 0 1.1-.192 1.455-.167.022.001 1.307.64 1.108.74-.086.042-.257.034-1.405-.018m9.574 5.971a5.738 5.738 0 1 0 0 11.475 5.738 5.738 0 0 0 0-11.475m0 2.784a2.954 2.954 0 1 1 0 5.907 2.954 2.954 0 0 1 0-5.907m-35.873 2.953a5.738 5.738 0 1 0-11.475 0 5.738 5.738 0 0 0 11.475 0m-5.737-2.953a2.954 2.954 0 1 1 0 5.907 2.954 2.954 0 0 1 0-5.907m6.476-7.649a.43.43 0 1 1 0 .86h-2.168a.43.43 0 0 1 0-.86zm17.173 0a.43.43 0 0 1 0 .86h-2.169a.43.43 0 0 1 0-.86zM18.55 18.199c4.492 0 7.819 4.132 6.909 8.503 11.215.014 20.37.043 27.903.057-.952-4.387 2.38-8.56 6.895-8.56 4.516 0 7.848 4.173 6.896 8.56l1.805-.006c2.093-.01 3.595.136 4.047-1.713.319-1.3.299-2.744-.154-3.993-.163-.45-.345-.567-.436-.802-.16-.409-.068-1.574-.606-2.54-.254-.456-.632-.795-1.486-1.199-2.568-1.215-7.837-2.145-10.61-2.644-1.447-.26-1.512-.26-1.935-.573-2.25-1.662-4.32-3.38-6.8-4.736-3.223-1.762-7.08-2.734-11.047-3.146-3.356-.349-8.522-.75-11.797.098-3.38.875-6.105 2.81-8.962 4.735-3.344 2.252-6.615 2.032-9.869 3.81-.488.268-.645.437-.833 1.2-.221.889-.502 3.724-.743 4.22-.235.484-.73.602-.88 1.876-.093.796-.117 3.184.105 3.921.537 1.782 3.105 1.501 4.696 1.464-.931-4.38 2.4-8.532 6.902-8.532m16.882-9.58c.141.84.355 2.254.45 3.016.094.763.068.874-.022.981-.332.396-.672.313-2.84.291l-10.867-.12c-.366-.073-.462-.392-.333-.702.225-.545 2.052-1.777 3.092-2.33 1.152-.612 2.677-1.238 3.92-1.632 1.241-.394 2.2-.557 3.126-.698.925-.142 1.816-.262 2.343-.287.893-.044.906.15 1.13 1.482" clip-rule="evenodd"/></svg>