<svg xmlns="http://www.w3.org/2000/svg" width="82" height="80" fill="none" viewBox="0 0 82 80"><path fill="#000" d="M70.266 61.882c1.537 4.884 3.49 13.218-1.676 16.743-2.377 1.622-5.03 1.327-7.747 1.325l-51.448.007c-3.207.003-5.929-.503-7.899-3.476-2.888-4.362-1.153-12.99 1.477-17.39 2.239-3.744 6.654-6.3 10.592-7.813 4.797-1.844 7.957-2.575 12.195-5.741.795-.595 1.556-1.27 2.388-1.81l.073-.047c-2.143-2.082-3.639-5.297-4.498-8.096l-.453-1.625c-.27-1.106-.42-1.35-1.151-2.222-2.164-2.577-2.892-8.298.451-10.019.186-.096-.105-1.917-.148-2.25-.673-5.253-.71-12.406 4.517-15.418 2.142-1.234 4.634-1.78 6.948-2.6C35.257.966 36.574.245 38.022.034c1.602-.202 3.226.562 4.696 1.09 3.329 1.193 7.108 2.271 9.273 5.277 3.154 4.381 2.094 10.41 1.278 15.35 3.365 1.837 2.695 7.15.782 9.765-1.195 1.633-.846.484-1.551 2.719-1.41 4.467-3.03 6.448-5.93 9.854 2.03 2.811 6.586 5.525 9.89 6.217.64-1.058 1.624-1.947 2.466-2.847l3.68-4.055c1.583-1.748 3.857-3.48 3.323-6.032l-.438-1.952c-.957-4.894 2.158-9.384 7.319-9.787.401-.03.852-.048 1.168.245 2.116 1.964-4.408 3.787-4.256 7.808.052 1.376.674 2.927 1.71 3.855 1.261 1.132 4.632 1.164 5.675-.301.935-1.315 1.614-4.811 3.47-4.834 1.389-.018 1.214 2.272 1.176 3.17-.15 3.445-3.134 6.798-6.575 7.256-1.307.174-2.69.005-4.002-.062-1.705.8-6.093 5.991-7.467 7.489l-2.244 2.283c.126.105.313.163.461.233 3.757 1.773 6.934 5.214 8.34 9.108M38.369 2.757 33.878 4.44c-3.093 1.002-6.662 1.61-8.035 4.97-1.07 2.618-1.07 5.816-.796 8.597l.442 3.41c.064.667.05 1.354.059 2.025 3.461-2.401 7.389-3.92 11.608-4.228 4.22-.167 9.712.56 12.898 3.435.108-.27.138-.598.197-.884l.3-1.433c.42-2.13.741-4.206.742-6.38 0-5.377-1.96-7.264-6.613-9.097L40.812 3.43c-.704-.25-1.703-.728-2.443-.673m-.76 19.225c-3.72.297-7.734 1.654-10.7 3.979-1.654 1.296-2.383.85-3.528-.908-.556 1.418-.365 3.922.899 4.876 1.553 1.172 1.11.42 1.507 2.554 1.049 5.647 5.676 13.386 12.298 13.097 5.545-.302 10.08-7.153 11.617-11.936.275-.859.315-1.873.68-2.682.291-.648.899-.791 1.411-1.197 1.172-.926 1.333-3.617.619-4.927-.772 1.815-1.504 1.847-3.053.663-3.224-2.464-7.66-3.934-11.75-3.518m-7.396 23.663-2.344 1.777c.808 2.329 2.988 4.518 5.178 5.59 3.727 1.825 7.56.6 10.553-1.918 1.062-1.022 1.832-2.067 2.554-3.347-.406-.628-1.11-1.157-1.589-1.752-3.92 3.135-8.627 3.213-12.818.655zm-4.673 3.504c-.901.595-4.131 1.84-4.277 2.63-.36 1.952-.391 3.941-.393 5.92l.451 8.734c.333.057.706.024 1.044.024l29.068-.022.252-2.769.276-2.82-.007-9.074c-.036-.046-3.04-1.877-3.475-2.202-2.332 3.358-5.334 6.201-9.52 6.933-5.214.913-9.811-1.718-12.591-5.991-.286-.44-.52-.942-.828-1.363m-7.24 3.447c-4.61 1.556-11.021 3.938-13.346 8.646-.481.974-.795 2.027-1.107 3.065-1.092 3.635-2.325 8.611.817 11.586 1.118.915 2.241 1.17 3.655 1.322.507-2.73 3.078-5.268 4.097-8.312.878-2.62.403-2.437 3.528-2.443l2.548-.007c-.484-3.202-.556-6.611-.392-9.831l.17-2.523c.045-.49.13-.98.148-1.47zm36.423.197.039.079c.124 1.079.073 2.207.073 3.294l-.402 8.4c-.066.607-.06 1.283-.188 1.875l2.373.01c1.511-.006 2.096-.023 2.411 1.556l.393 1.863c.398 1.605 2.541 6.039 3.747 7.328 1.465.033 2.954-.13 4.15-1.057 3.816-3.471.855-14.255-1.968-17.287-2.948-3.167-6.696-4.598-10.628-6.062M30.93 69.238l-15.704.036c-.778 2.112-1.353 3.452-2.665 5.39-.562.828-1.167 1.56-1.458 2.537 1.074.135 2.225.06 3.31.06l25.62-.004 19.819-.111c-.188-.166-.664-1.105-.834-1.373-1.122-1.778-1.98-3.848-2.381-5.913-.08-.41.079-.567-.352-.595z"/></svg>