<svg xmlns="http://www.w3.org/2000/svg" width="80" height="80" fill="none" viewBox="0 0 80 80"><path fill="#000" fill-rule="evenodd" d="M40 5a35 35 0 0 0-5.068.368 1.67 1.67 0 0 0-1.357 1.182l-1.306 4.462a30 30 0 0 0-7.302 3.028l-4.075-2.237a1.67 1.67 0 0 0-1.797.124 35 35 0 0 0-7.168 7.168 1.67 1.67 0 0 0-.123 1.797l2.236 4.075a30 30 0 0 0-3.028 7.305c0-.002-4.462 1.303-4.462 1.303a1.67 1.67 0 0 0-1.181 1.357 35 35 0 0 0 0 10.136 1.67 1.67 0 0 0 1.181 1.357l4.462 1.307a30 30 0 0 0 3.028 7.301l-2.236 4.075a1.67 1.67 0 0 0 .123 1.797 35 35 0 0 0 7.168 7.168 1.67 1.67 0 0 0 1.797.124l4.075-2.237a30 30 0 0 0 7.305 3.028c-.002 0 1.303 4.462 1.303 4.462a1.67 1.67 0 0 0 1.357 1.182 35 35 0 0 0 10.137 0 1.67 1.67 0 0 0 1.356-1.182l1.307-4.462a30 30 0 0 0 7.302-3.028l4.075 2.237a1.67 1.67 0 0 0 1.796-.124 35 35 0 0 0 7.169-7.168 1.67 1.67 0 0 0 .123-1.797l-2.237-4.075a30 30 0 0 0 3.029-7.305c0 .002 4.461-1.303 4.461-1.303a1.67 1.67 0 0 0 1.182-1.357 35 35 0 0 0 0-10.136 1.67 1.67 0 0 0-1.182-1.357l-4.461-1.307a30 30 0 0 0-3.029-7.301l2.237-4.075a1.67 1.67 0 0 0-.123-1.797 35 35 0 0 0-7.169-7.168 1.67 1.67 0 0 0-1.796-.124l-4.075 2.237a30 30 0 0 0-7.305-3.028L46.425 6.55a1.67 1.67 0 0 0-1.356-1.182A35 35 0 0 0 40 5m0 3.333c1.179 0 2.359.067 3.532.199l1.267 4.333c.168.578.636 1.02 1.223 1.155a26.7 26.7 0 0 1 8.09 3.353 1.67 1.67 0 0 0 1.683.045l3.962-2.168a31.7 31.7 0 0 1 4.993 4.993c.002 0-2.168 3.962-2.168 3.962a1.67 1.67 0 0 0 .045 1.683 26.7 26.7 0 0 1 3.353 8.09 1.66 1.66 0 0 0 1.155 1.224l4.334 1.266a31.5 31.5 0 0 1 0 7.064l-4.334 1.266a1.66 1.66 0 0 0-1.155 1.224 26.7 26.7 0 0 1-3.353 8.09 1.67 1.67 0 0 0-.045 1.683l2.168 3.962a31.7 31.7 0 0 1-4.993 4.993c0 .002-3.962-2.168-3.962-2.168a1.67 1.67 0 0 0-1.683.045 26.7 26.7 0 0 1-8.09 3.353 1.66 1.66 0 0 0-1.223 1.155l-1.267 4.333a31.5 31.5 0 0 1-7.063 0l-1.267-4.333a1.66 1.66 0 0 0-1.223-1.155 26.7 26.7 0 0 1-8.09-3.353 1.67 1.67 0 0 0-1.684-.045l-3.961 2.168a31.7 31.7 0 0 1-4.994-4.993l2.169-3.962a1.67 1.67 0 0 0-.045-1.683 26.7 26.7 0 0 1-3.354-8.09 1.66 1.66 0 0 0-1.155-1.224l-4.333-1.266a31.5 31.5 0 0 1 0-7.064l4.333-1.266a1.66 1.66 0 0 0 1.155-1.224 26.7 26.7 0 0 1 3.354-8.09 1.67 1.67 0 0 0 .045-1.683l-2.169-3.962a31.7 31.7 0 0 1 4.994-4.993c0-.002 3.961 2.168 3.961 2.168.529.29 1.172.274 1.684-.045a26.7 26.7 0 0 1 8.09-3.353 1.66 1.66 0 0 0 1.223-1.155l1.267-4.333A32 32 0 0 1 40 8.333m0 8.334c-12.878 0-23.333 10.455-23.333 23.333S27.122 63.333 40 63.333c12.879 0 23.334-10.455 23.334-23.333S52.879 16.667 40 16.667M40 20c11.039 0 20 8.962 20 20S51.04 60 40 60s-20-8.962-20-20 8.962-20 20-20m7.565 12.5a1.66 1.66 0 0 0-1.41.68l-7.59 10.332-5.088-3.694a1.67 1.67 0 0 0-2.328.367 1.67 1.67 0 0 0 .371 2.332l6.427 4.665c.74.538 1.78.378 2.323-.362l8.572-11.667a1.673 1.673 0 0 0-.355-2.331 1.68 1.68 0 0 0-.922-.322" clip-rule="evenodd"/></svg>