<svg xmlns="http://www.w3.org/2000/svg" width="80" height="80" fill="none" viewBox="0 0 80 80"><mask id="a" width="80" height="80" x="0" y="0" maskUnits="userSpaceOnUse" style="mask-type:luminance"><path fill="#fff" d="M0 0h80v80H0z"/></mask><g mask="url(#a)"><path stroke="#000" stroke-linecap="round" stroke-linejoin="round" stroke-miterlimit="10" stroke-width="4" d="M47.656 21.094h-3.125v9.375h3.125a4.688 4.688 0 0 0 0-9.375M13.281 21.094h3.125v9.375h-3.125a4.688 4.688 0 0 1 0-9.375M44.531 21.094a9.375 9.375 0 0 0 0-18.75H22.656a9.375 9.375 0 0 0-9.375 9.375v9.375M77.656 62.031c0 8.63-6.995 15.625-15.625 15.625s-15.625-6.995-15.625-15.625 6.996-15.625 15.625-15.625c8.63 0 15.625 6.996 15.625 15.625"/><path stroke="#000" stroke-linecap="round" stroke-linejoin="round" stroke-miterlimit="10" stroke-width="4" d="m24.219 51.094-12.635 3.158a9.375 9.375 0 0 0-7.007 7.77L2.344 77.656H62.03M48.59 54.063l-11.871-2.968"/><path fill="#000" d="M69.844 58.125a2.344 2.344 0 1 1-4.688 0 2.344 2.344 0 0 1 4.688 0M54.219 58.125a2.344 2.344 0 1 0 4.687 0 2.344 2.344 0 0 0-4.687 0"/><path stroke="#000" stroke-linecap="round" stroke-linejoin="round" stroke-miterlimit="10" stroke-width="4" d="M67.5 66.719a7.55 7.55 0 0 1-10.937 0M24.219 45.22v7.436a6.25 6.25 0 1 0 12.5 0v-7.435"/><path stroke="#000" stroke-linecap="round" stroke-linejoin="round" stroke-miterlimit="10" stroke-width="4" d="M32.445 47.336a6.25 6.25 0 0 1-3.953 0 17.68 17.68 0 0 1-12.086-16.769v-9.473l14.063-3.125 14.062 3.125v9.473a17.68 17.68 0 0 1-12.086 16.769"/></g></svg>