<svg xmlns="http://www.w3.org/2000/svg" width="80" height="80" fill="none" viewBox="0 0 80 80"><g fill="#000" clip-path="url(#a)"><path d="M63.332 25V8.333A8.333 8.333 0 0 0 54.999 0h-30a8.333 8.333 0 0 0-8.334 8.333V25a8.333 8.333 0 0 0-8.333 8.333v10a8.333 8.333 0 0 0 8.333 8.334v20A8.333 8.333 0 0 0 25 80h30a8.335 8.335 0 0 0 8.333-8.333v-20a8.333 8.333 0 0 0 8.333-8.334v-10A8.333 8.333 0 0 0 63.332 25m-15-21.667V5a1.667 1.667 0 0 1-1.667 1.667H33.332A1.667 1.667 0 0 1 31.665 5V3.333zm-28.333 5a5 5 0 0 1 5-5h3.333V5a5 5 0 0 0 5 5h13.333a5 5 0 0 0 5-5V3.333H55a5 5 0 0 1 5 5V25h-40zm40 63.334a5 5 0 0 1-5 5h-30a5 5 0 0 1-5-5v-20h11.55a1.67 1.67 0 0 1 1.383.75l2.9 4.35a5 5 0 0 0 8.333 0l2.9-4.35a1.67 1.67 0 0 1 1.384-.75h11.55zm8.333-28.334a5 5 0 0 1-5 5H48.449a5 5 0 0 0-4.167 2.234L41.382 55a1.665 1.665 0 0 1-2.767 0l-2.9-4.35a5 5 0 0 0-4.166-2.317H16.665a5 5 0 0 1-5-5v-10a5 5 0 0 1 5-5h46.667a5 5 0 0 1 5 5z"/><path d="M45 35.003h-2.684l-.65-2.2a1.667 1.667 0 0 0-3.167 0l-.816 2.2h-2.684a1.667 1.667 0 0 0-1.033 2.966l2.15 1.667-1.033 3.1v.167q-.06.212-.084.433-.012.15 0 .3a3 3 0 0 0 0 .316 1 1 0 0 0 .15.284q-.005.075 0 .15l.1.083q.144.163.334.267l.25.15h.083q.166.024.333 0c.127.073.27.113.417.116h.233q.182-.025.35-.1l.234-.116s.1 0 .166-.1L40 42.803l2.3 1.833q.158.13.35.2h.117q.27.126.567.166.272-.006.533-.083h.083l.25-.15q.19-.104.334-.267l.1-.083q.004-.075 0-.15a1 1 0 0 0 .15-.283 3 3 0 0 0 0-.317q.126-.154.216-.333a3 3 0 0 0 0-.35v-.167l-1.033-3.1 2.167-1.666a1.666 1.666 0 0 0-1.134-3.05M26.665 35.003h-2.683l-.65-2.2a1.667 1.667 0 0 0-3.167 0l-.816 2.2h-2.684a1.667 1.667 0 0 0-1.033 2.966l2.15 1.667-1.033 3.1v.167q-.06.212-.084.433-.012.15 0 .3.033.16.084.316a1 1 0 0 0 .15.284q.036.078.083.15l.1.083q.143.163.333.267l.25.15q.166.024.334 0 .155.091.333.116h.233q.181-.025.35-.1l.234-.116.166-.1 2.35-1.883 2.3 1.833q.159.13.35.2h.117q.27.126.567.166.272-.006.533-.083l.25-.15q.19-.104.333-.267l.1-.083q.048-.072.084-.15a1 1 0 0 0 .15-.283q.049-.156.083-.317.083-.16.133-.333a3 3 0 0 0 0-.35v-.167l-1.033-3.1 2.167-1.666a1.667 1.667 0 0 0-1.134-3.05M63.331 35.003h-2.683l-.65-2.2a1.667 1.667 0 0 0-3.167 0l-.816 2.2H53.33a1.667 1.667 0 0 0-1.033 2.966l2.15 1.667-1.033 3.1v.167q-.06.212-.084.433-.012.15 0 .3a3 3 0 0 0 0 .316 1 1 0 0 0 .15.284q-.005.075 0 .15l.1.083q.144.163.334.267l.25.15q.166.024.333 0a.9.9 0 0 0 .5.116h.233q.181-.025.35-.1l.234-.116.166-.1 2.35-1.883 2.3 1.833q.158.13.35.2h.117q.27.126.567.166.272-.006.533-.083l.25-.15q.19-.104.333-.267l.1-.083q.005-.075 0-.15a1 1 0 0 0 .15-.283 3 3 0 0 0 0-.317q.171-.148.3-.333a3 3 0 0 0 0-.35v-.167l-1.033-3.1 2.167-1.666a1.667 1.667 0 0 0-1.134-3.05M28.332 71.667a1.667 1.667 0 0 0 1.667 1.666h20a1.667 1.667 0 0 0 0-3.333h-20a1.666 1.666 0 0 0-1.667 1.667"/></g><defs><clipPath id="a"><path fill="#fff" d="M0 0h80v80H0z"/></clipPath></defs></svg>