<svg xmlns="http://www.w3.org/2000/svg" width="60" height="22" fill="none" viewBox="0 0 60 22"><path fill="#c2e1ff" d="m58.414 12.922-.414-.25a7.76 7.76 0 0 0-3.175-1.05.32.32 0 0 0-.33.198.35.35 0 0 0 .069.386 5.7 5.7 0 0 1 1.297 1.938c.193.479.58.84 1.047.992.473.14.979.072 1.408-.19.045-.41.122-1.261.098-2.024"/><path fill="#fe0000" d="M58.318 14.94a1.75 1.75 0 0 1-1.42.197 1.71 1.71 0 0 1-1.048-.993 5.7 5.7 0 0 0-1.297-1.938.35.35 0 0 1-.068-.385.32.32 0 0 1 .33-.199 7.76 7.76 0 0 1 3.175 1.051l.425.256a8 8 0 0 0-.012-.26c-.082-.424-.15-.66-.368-1.059C56.18 8.213 43.447 6.718 39.76 6.473l-4.666-3.246a11.65 11.65 0 0 0-7.055-2.09c-7.465.234-16.136 1.938-22.85 5.301a6.5 6.5 0 0 1-2.504.689l-.08 1.541a12.7 12.7 0 0 1-.75 3.678 4.58 4.58 0 0 0 .41 3.958 4.34 4.34 0 0 0 3.333 2.032h48.136l2.924-.175a1.67 1.67 0 0 0 1.377-.9l.265-2.165z"/><path fill="#300" d="m2.617 8.516-.011.152a12.7 12.7 0 0 1-.751 3.678c-.034.094-.069.187-.091.292.75.152 1.502-.163 1.775-.77.125-.293.25-.584.364-.876.341-.864-.091-1.845-1.047-2.347z"/><path fill="#f05927" d="M2.594 8.903c-.091 1.156-.33 2.3-.717 3.397.512.082 1.127-.081 1.354-.584.125-.28.24-.572.353-.864.307-.782-.205-1.54-.888-1.903z"/><path fill="#300" d="m39.532 7.164-4.825-3.363a11 11 0 0 0-6.646-1.973c-5.303.175-11.186 1.074-16.557 2.802a.86.86 0 0 0-.592.841c0 .385.25.712.614.817l.137.035c7.454.467 19.13.432 27.869.841"/><path fill="#c2e1ff" d="M23.613 2.503a61 61 0 0 0-7.84 1.32l-.353.151a.58.58 0 0 0-.33.677c.09.409.148.818.17 1.238.012.117.08.21.183.245 1.251.047 2.492.082 3.743.117 1.605.047 3.21.082 4.803.117zm12.222 2.534-1.332-.923a10.75 10.75 0 0 0-6.43-1.915 68 68 0 0 0-3.06.175l1.08 4.029 1.719.035c2.515.047 5.03.105 7.533.175a.826.826 0 0 0 .831-.596.89.89 0 0 0-.341-.98"/><path fill="#d8eafc" d="m23.977 6.228-.068.14c-1.582-.035-3.152-.07-4.734-.117l-1.331-.035L19.3 3.11a61 61 0 0 1 4.313-.595zm1.821-3.912c-.262.024-.523.035-.785.058l.273 1.04zm7.34.993a10.6 10.6 0 0 0-3.755-1.063l-1.958 4.192.364.011c1.275.024 2.56.047 3.835.082z"/><path fill="#300" d="M5.268 18.3q.17.036.34.036h8.16a4.9 4.9 0 0 0 .341-1.787c0-2.592-2.048-4.705-4.586-4.705-2.526 0-4.585 2.102-4.585 4.705 0 .62.113 1.203.33 1.752M44.916 18.336h8.489a4.9 4.9 0 0 0 .341-1.787c0-2.592-2.048-4.705-4.586-4.705-2.526 0-4.586 2.102-4.586 4.705 0 .631.126 1.238.342 1.787"/><path fill="#d8eafc" d="M57.022 12.57c.307 0 .557.443.557.98 0 .55-.25.981-.557.981s-.558-.443-.558-.98c0-.55.25-.981.558-.981m-1.275-.456c.194 0 .353.199.353.456 0 .245-.16.455-.353.455s-.352-.198-.352-.455.159-.456.352-.456"/><path fill="#300" d="M27.129 17.45h-.183a27.3 27.3 0 0 0-1.843-10.626l-.148-.385.17-.07.149.385a27.6 27.6 0 0 1 1.854 10.695"/><path fill="#300" d="M39.509 17.531H16.875a.966.966 0 0 1-.956-.899c-.387-4.962-4.279-6.176-4.324-6.188l-.057-.012-.626-4.962.182-.023.603 4.845c.49.175 4.029 1.565 4.393 6.329a.8.8 0 0 0 .785.735h22.634c.842 0 1.525-.677 1.559-1.53.057-1.494.023-4.074-.5-7.87l.181-.022c.524 3.818.558 6.41.5 7.904-.045.946-.807 1.693-1.74 1.693"/><path fill="#300" d="M13.109 9.03a.364.364 0 0 0-.364.374c0 .21.159.374.364.374h1.809a.364.364 0 0 0 .364-.374c0-.21-.16-.373-.364-.373zm1.809.923h-1.81a.554.554 0 0 1-.546-.56c0-.315.24-.56.547-.56h1.809c.296 0 .546.245.546.56s-.25.56-.546.56M27.663 9.03a.364.364 0 0 0-.364.374c0 .21.16.374.364.374h1.81a.364.364 0 0 0 .364-.374c0-.21-.16-.373-.364-.373zm1.81.923h-1.81a.554.554 0 0 1-.546-.56c0-.315.24-.56.546-.56h1.81c.296 0 .546.245.546.56s-.239.56-.546.56M54.61 11.637c-.057-.024-5.86-2.382-13.974-3.608h-.023l-1.65-.993.569.129 1.15.689c8.124 1.226 14.098 3.654 14.155 3.678zM57.444 15.29h-3.96l-.023-.188h3.3z"/><path fill="#000" d="M9.525 20.871c2.321 0 4.21-1.938 4.21-4.32s-1.889-4.32-4.21-4.32c-2.322 0-4.21 1.938-4.21 4.32s1.888 4.32 4.21 4.32"/><path fill="#fff" d="M9.523 19.305c1.48 0 2.686-1.238 2.686-2.756s-1.206-2.755-2.686-2.755-2.685 1.237-2.685 2.755 1.206 2.756 2.685 2.756"/><path fill="#000" d="M9.524 17.8c.672 0 1.218-.56 1.218-1.249 0-.688-.547-1.249-1.218-1.249s-1.217.56-1.217 1.25c0 .688.546 1.249 1.217 1.249"/><path fill="#000" d="m10.219 16.95 2.537-.117v-.56l-2.537-.118z"/><path fill="#000" d="m10.286 16.316 1.707-1.915-.387-.396-1.866 1.751z"/><path fill="#000" d="m9.9 15.84-.113-2.604h-.546l-.114 2.604z"/><path fill="#000" d="M9.296 15.768 7.43 14.016l-.387.397 1.707 1.915z"/><path fill="#000" d="m8.82 16.167-2.527.117v.56l2.526.117z"/><path fill="#000" d="M8.761 16.786 7.043 18.7l.387.397 1.878-1.752z"/><path fill="#000" d="m9.137 17.275.114 2.592h.546l.113-2.592z"/><path fill="#000" d="m9.752 17.335 1.866 1.763.387-.397-1.707-1.927zM49.16 20.871c2.321 0 4.21-1.938 4.21-4.32s-1.889-4.32-4.21-4.32c-2.322 0-4.21 1.938-4.21 4.32s1.888 4.32 4.21 4.32"/><path fill="#fff" d="M49.158 19.305c1.48 0 2.686-1.238 2.686-2.756s-1.206-2.755-2.686-2.755-2.685 1.237-2.685 2.755 1.206 2.756 2.685 2.756"/><path fill="#000" d="M49.16 17.8c.67 0 1.217-.56 1.217-1.249 0-.688-.547-1.249-1.218-1.249s-1.218.56-1.218 1.25c0 .688.547 1.249 1.218 1.249"/><path fill="#000" d="m49.854 16.95 2.537-.117v-.56l-2.538-.118z"/><path fill="#000" d="m49.921 16.316 1.707-1.915-.387-.396-1.866 1.751z"/><path fill="#000" d="m49.536 15.84-.114-2.604h-.547l-.113 2.604z"/><path fill="#000" d="m48.931 15.768-1.878-1.752-.375.397 1.707 1.915z"/><path fill="#000" d="m48.454 16.167-2.526.117v.56l2.526.117z"/><path fill="#000" d="M48.396 16.786 46.678 18.7l.387.397 1.877-1.752z"/><path fill="#000" d="m48.772 17.275.113 2.592h.547l.113-2.592z"/><path fill="#000" d="m49.375 17.335 1.878 1.763.387-.397-1.707-1.927z"/><path fill="#300" d="M58.317 14.94a1.75 1.75 0 0 1-1.42.198 1.71 1.71 0 0 1-1.047-.993 5.7 5.7 0 0 0-1.298-1.938.35.35 0 0 1-.068-.385.32.32 0 0 1 .33-.199 7.76 7.76 0 0 1 3.175 1.051l.426.256a8 8 0 0 0-.013-.26l-.31-.183a7.8 7.8 0 0 0-3.267-1.074h-.045a.52.52 0 0 0-.49.327.57.57 0 0 0 .114.619 5.5 5.5 0 0 1 1.252 1.868 1.91 1.91 0 0 0 1.184 1.11c.182.046.364.081.546.081.307 0 .617-.082.901-.222l.013-.1z"/></svg>