<svg xmlns="http://www.w3.org/2000/svg" width="57" height="20" fill="none" viewBox="0 0 57 20"><path fill="#c2e1ff" d="m56.836 11.495-.414-.242a7.9 7.9 0 0 0-3.175-1.024.32.32 0 0 0-.33.193.33.33 0 0 0 .069.376 5.55 5.55 0 0 1 1.297 1.889c.193.466.58.82 1.047.967.473.135.979.07 1.408-.185.045-.4.122-1.23.098-1.974"/><path fill="#aaa" d="M56.739 13.46c-.432.26-.944.328-1.421.191a1.7 1.7 0 0 1-1.047-.967 5.55 5.55 0 0 0-1.298-1.888.33.33 0 0 1-.068-.376.32.32 0 0 1 .33-.194 7.9 7.9 0 0 1 3.175 1.025l.426.249a8 8 0 0 0-.012-.254c-.083-.413-.15-.643-.368-1.03-1.855-3.312-14.59-4.769-18.277-5.008l-4.665-3.163A11.87 11.87 0 0 0 26.458.008C18.993.236 10.32 1.897 3.607 5.174a6.6 6.6 0 0 1-2.504.672l-.08 1.502a12.1 12.1 0 0 1-.75 3.584 4.36 4.36 0 0 0 .41 3.858 4.36 4.36 0 0 0 3.334 1.98h48.137l2.925-.171a1.67 1.67 0 0 0 1.377-.876l.265-2.111z"/><path fill="#000" d="m1.035 7.2-.011.148a12.1 12.1 0 0 1-.751 3.584c-.034.092-.069.183-.091.285.75.148 1.502-.16 1.775-.75.125-.286.25-.57.364-.854.341-.843-.091-1.798-1.047-2.288z"/><path fill="#000" d="M1.012 7.575a12.8 12.8 0 0 1-.717 3.312c.512.08 1.127-.08 1.354-.57.125-.272.24-.557.353-.841.307-.763-.205-1.502-.888-1.855zM37.953 5.879l-4.825-3.277A11.2 11.2 0 0 0 26.482.679c-5.303.17-11.187 1.047-16.558 2.73a.84.84 0 0 0-.592.82c0 .375.25.694.614.796l.137.035c7.454.455 19.13.42 27.87.819"/><path fill="#999" d="M22.031 1.342c-2.628.261-5.269.694-7.84 1.286l-.353.148a.56.56 0 0 0-.33.66c.09.398.148.796.17 1.206.012.114.08.205.182.239 1.252.045 2.493.08 3.745.113 1.604.046 3.209.08 4.802.114zm12.223 2.47-1.332-.9a10.96 10.96 0 0 0-6.43-1.866 70 70 0 0 0-3.06.17l1.08 3.926 1.718.035c2.515.045 5.03.102 7.534.17a.824.824 0 0 0 .83-.58.86.86 0 0 0-.34-.956"/><path fill="#fff" d="m22.396 4.97-.069.136a658 658 0 0 1-4.734-.114q-.666-.015-1.331-.034l1.456-3.027a62 62 0 0 1 4.313-.58zm1.82-3.812c-.262.022-.523.034-.785.057l.273 1.012zm7.34.967a10.8 10.8 0 0 0-3.755-1.035l-1.957 4.085.364.01c1.274.024 2.56.047 3.835.08z"/><path fill="#000" d="M3.687 16.735q.171.035.342.035h8.16a4.587 4.587 0 1 0-8.83-1.741c-.002.603.112 1.172.328 1.706M43.334 16.77h8.49a4.587 4.587 0 1 0-8.49 0"/><path fill="#d8eafc" d="M55.444 11.147c.307 0 .557.432.557.956 0 .535-.25.956-.557.956s-.558-.433-.558-.956c0-.535.25-.956.558-.956m-1.275-.444c.194 0 .353.194.353.444 0 .239-.16.444-.353.444s-.353-.194-.353-.444.16-.444.353-.444"/><path fill="#000" d="M25.547 15.906h-.183a26 26 0 0 0-1.843-10.355l-.148-.375.17-.068.149.375a26.3 26.3 0 0 1 1.855 10.423"/><path fill="#000" d="M37.93 15.984H15.295a.956.956 0 0 1-.956-.876c-.387-4.836-4.279-6.02-4.324-6.03l-.057-.012-.626-4.836.182-.023.603 4.722c.49.171 4.029 1.525 4.393 6.168a.79.79 0 0 0 .785.717H37.93c.842 0 1.525-.66 1.56-1.49.056-1.457.022-3.972-.502-7.67l.182-.023c.524 3.72.558 6.247.501 7.703a1.74 1.74 0 0 1-1.741 1.65"/><path fill="#000" d="M11.527 7.703a.36.36 0 0 0-.364.364c0 .205.159.364.364.364h1.81a.36.36 0 0 0 .363-.364.36.36 0 0 0-.364-.364zm1.81.899h-1.81a.546.546 0 0 1-.546-.547.54.54 0 0 1 .546-.546h1.81a.546.546 0 0 1 0 1.093M26.081 7.703a.36.36 0 0 0-.364.364c0 .205.16.364.364.364h1.81a.36.36 0 0 0 .364-.364.36.36 0 0 0-.364-.364zm1.81.899h-1.81a.546.546 0 0 1-.546-.547.54.54 0 0 1 .546-.546h1.81c.296 0 .546.24.546.546a.54.54 0 0 1-.546.547M53.03 10.238c-.056-.022-5.86-2.32-13.974-3.516h-.023l-1.65-.967.569.125 1.15.672c8.125 1.194 14.099 3.561 14.156 3.584zM55.864 13.8h-3.96l-.023-.181h3.3zM7.943 19.238a4.216 4.216 0 0 0 4.21-4.21c0-2.321-1.889-4.21-4.21-4.21a4.215 4.215 0 0 0-4.21 4.21 4.215 4.215 0 0 0 4.21 4.21"/><path fill="#fff" d="M7.944 17.715a2.69 2.69 0 0 0 2.685-2.686 2.69 2.69 0 0 0-2.685-2.685 2.69 2.69 0 0 0-2.686 2.685 2.69 2.69 0 0 0 2.686 2.686"/><path fill="#000" d="M7.942 16.246c.672 0 1.218-.546 1.218-1.217a1.219 1.219 0 0 0-2.435 0c0 .67.546 1.217 1.217 1.217"/><path fill="#000" d="m8.637 15.418 2.537-.114v-.546l-2.537-.114z"/><path fill="#000" d="m8.704 14.8 1.707-1.866-.386-.386-1.867 1.707z"/><path fill="#000" d="m8.319 14.336-.114-2.538h-.546l-.114 2.538z"/><path fill="#000" d="M7.714 14.266 5.848 12.56l-.387.387 1.707 1.867z"/><path fill="#000" d="m7.237 14.652-2.526.114v.546l2.526.114z"/><path fill="#000" d="m7.18 15.259-1.72 1.866.388.387 1.878-1.707z"/><path fill="#000" d="m7.557 15.736.114 2.526h.546l.113-2.526z"/><path fill="#000" d="m8.17 15.793 1.866 1.719.387-.387-1.707-1.878zM47.58 19.238a4.215 4.215 0 0 0 4.21-4.21 4.215 4.215 0 0 0-4.21-4.21 4.215 4.215 0 0 0-4.21 4.21 4.215 4.215 0 0 0 4.21 4.21"/><path fill="#fff" d="M47.578 17.715a2.69 2.69 0 0 0 2.686-2.686 2.69 2.69 0 0 0-2.686-2.685 2.69 2.69 0 0 0-2.685 2.685 2.69 2.69 0 0 0 2.685 2.686"/><path fill="#000" d="M47.579 16.246c.672 0 1.218-.546 1.218-1.217a1.219 1.219 0 0 0-2.435 0c0 .67.546 1.217 1.217 1.217"/><path fill="#000" d="m48.273 15.418 2.538-.114v-.546l-2.538-.114z"/><path fill="#000" d="m48.341 14.8 1.707-1.866-.387-.386-1.866 1.707z"/><path fill="#000" d="m47.955 14.336-.113-2.538h-.547l-.113 2.538z"/><path fill="#000" d="m47.351 14.266-1.878-1.707-.375.387 1.707 1.867z"/><path fill="#000" d="m46.874 14.652-2.526.114v.546l2.526.114z"/><path fill="#000" d="m46.816 15.259-1.718 1.866.386.387 1.878-1.707z"/><path fill="#000" d="m47.193 15.736.114 2.526h.546l.114-2.526z"/><path fill="#000" d="m47.795 15.793 1.878 1.719.387-.387-1.708-1.878zM56.74 13.46c-.433.261-.944.329-1.422.193a1.7 1.7 0 0 1-1.047-.968 5.55 5.55 0 0 0-1.297-1.888.33.33 0 0 1-.068-.376.32.32 0 0 1 .33-.194 7.9 7.9 0 0 1 3.175 1.025l.426.249a8 8 0 0 0-.013-.254l-.31-.177a7.9 7.9 0 0 0-3.267-1.047h-.045a.52.52 0 0 0-.49.318.54.54 0 0 0 .114.603 5.4 5.4 0 0 1 1.252 1.821c.216.524.649.91 1.184 1.081.182.046.364.08.546.08a2.1 2.1 0 0 0 .901-.216l.013-.098z"/></svg>