<svg xmlns="http://www.w3.org/2000/svg" width="24" height="24" fill="none" viewBox="0 0 24 24"><path stroke="#2f3a41" stroke-linecap="round" stroke-linejoin="round" stroke-width="2" d="M5.272 8.214C6.022 6.312 6.923 5 8.965 5h5.473c2.04 0 2.942 1.312 3.693 3.214l.75 2.035a1.57 1.57 0 0 1 1.348.815c.163.284.248.607.247.936v2.624a1.79 1.79 0 0 1-.798 1.516c-.239.153-.515.234-.797.234H4.52c-.282 0-.558-.081-.798-.234a1.79 1.79 0 0 1-.797-1.516V12a1.87 1.87 0 0 1 .247-.935c.276-.498.79-.808 1.348-.815z" clip-rule="evenodd"/><path fill="#2f3a41" d="M6.867 16.374a.75.75 0 0 0-1.5 0zm-.75 1.313h-.75v.023zM4.92 18.999l-.027.75h.053zm-1.197-1.313.75.024v-.024zm.75-1.547a.75.75 0 0 0-1.5 0zm.048-6.641a.75.75 0 1 0 0 1.5zm14.36 1.5a.75.75 0 0 0 0-1.5zm-.845 5.375a.75.75 0 0 0-1.5 0zm-.75 1.313.748.047.002-.047zm2.393 0h-.75q0 .023.002.047zm.75-1.547a.75.75 0 1 0-1.5 0zm-14.578-3.39a.75.75 0 0 0 0 1.5zm.975 1.5a.75.75 0 0 0 0-1.5zm9.75-1.5a.75.75 0 0 0 0 1.5zm.975 1.5a.75.75 0 0 0 0-1.5zM5.367 16.374v1.313h1.5v-1.313zm0 1.336a.51.51 0 0 1-.474.54l.053 1.499c1.114-.04 1.955-.99 1.92-2.085zm-.42.54a.51.51 0 0 1-.474-.54l-1.5-.048c-.034 1.096.806 2.047 1.92 2.087zm-.474-.564v-1.547h-1.5v1.547zm.048-6.688h14.36v-1.5H4.52zm12.015 5.375v1.313h1.5v-1.313zm.001 1.266a1.99 1.99 0 0 0 .928 1.814l.792-1.274a.49.49 0 0 1-.223-.446zm.928 1.814c.624.388 1.41.388 2.035 0l-.792-1.274a.42.42 0 0 1-.451 0zm2.035 0a1.99 1.99 0 0 0 .928-1.814l-1.497.094a.49.49 0 0 1-.223.446zm.93-1.767v-1.547h-1.5v1.547zM5.85 14.249h.976v-1.5H5.85zm10.726 0h.975v-1.5h-.975z"/></svg>