<svg width="26" height="26" viewBox="0 0 26 26" fill="none" xmlns="http://www.w3.org/2000/svg">
<path fill-rule="evenodd" clip-rule="evenodd" d="M13.0007 1.08203C6.4194 1.08203 1.08398 6.41745 1.08398 12.9987C1.08398 19.5799 6.4194 24.9154 13.0007 24.9154C19.5819 24.9154 24.9173 19.5799 24.9173 12.9987C24.9173 6.41745 19.5819 1.08203 13.0007 1.08203ZM18.166 10.9837C18.2611 10.875 18.3335 10.7483 18.379 10.6112C18.4244 10.4741 18.442 10.3293 18.4306 10.1853C18.4193 10.0413 18.3792 9.90097 18.3129 9.77267C18.2465 9.64436 18.1551 9.53063 18.0442 9.43815C17.9332 9.34567 17.8048 9.27632 17.6667 9.23418C17.5285 9.19204 17.3833 9.17796 17.2396 9.19276C17.0959 9.20756 16.9566 9.25096 16.83 9.32038C16.7033 9.38981 16.5918 9.48387 16.502 9.59703L11.8437 15.1859L9.43323 12.7744C9.22891 12.5771 8.95526 12.4679 8.67122 12.4704C8.38717 12.4729 8.11546 12.5868 7.9146 12.7876C7.71374 12.9885 7.5998 13.2602 7.59734 13.5443C7.59487 13.8283 7.70406 14.102 7.9014 14.3063L11.1514 17.5563C11.2578 17.6627 11.3853 17.7457 11.5256 17.8001C11.6659 17.8545 11.816 17.8791 11.9664 17.8722C12.1167 17.8654 12.264 17.8273 12.3988 17.7604C12.5336 17.6935 12.653 17.5993 12.7493 17.4837L18.166 10.9837Z" fill="#22C55E"/>
</svg>
