<svg width="272" height="261" viewBox="0 0 272 261" fill="none" xmlns="http://www.w3.org/2000/svg">
<path d="M268.941 205.923V33.4297L34.9395 60.1728V234.003H54.9968L59.0082 256.734L84.4142 227.317L268.941 205.923Z" fill="#266DDF"/>
<path fill-rule="evenodd" clip-rule="evenodd" d="M32.125 57.7508L271.534 29.6228V208.404L84.9852 230.321L57.9356 260.746L53.4188 259.116L52.5228 234.135L32.125 236.532V57.7508ZM90.1334 224.531L266.349 203.828V35.4173L37.3102 62.3267V230.737L52.3377 228.972L57.4876 228.367L58.3518 252.483L82.3952 225.44L86.1924 224.995L90.1334 224.531Z" fill="#FBFEFE"/>
<path d="M77.1249 106.33L75.3515 115.988C74.0614 115.011 72.6478 114.326 71.109 113.933C69.5711 113.54 67.9635 113.448 66.2862 113.656C63.4334 114.01 61.0595 115.294 59.1636 117.508C57.2676 119.721 56.2835 122.367 56.2112 125.444C56.1459 128.224 56.8717 130.279 58.3876 131.609C59.9043 132.939 62.0807 133.428 64.9176 133.076C66.1398 132.924 67.4017 132.619 68.7016 132.162C70.0014 131.705 71.3718 131.091 72.8118 130.32L71.1698 139.377C69.9855 139.899 68.6821 140.345 67.2589 140.716C65.8356 141.087 64.3012 141.376 62.6557 141.579C57.7491 142.19 53.8549 141.162 50.9713 138.499C48.0877 135.836 46.704 131.997 46.8213 126.983C46.8786 124.563 47.3125 122.207 48.1238 119.919C48.9351 117.63 50.0991 115.495 51.6141 113.516C53.3875 111.209 55.5762 109.341 58.1812 107.912C60.7853 106.482 63.6856 105.569 66.8841 105.172C68.7015 104.946 70.4599 104.93 72.1593 105.124C73.8586 105.318 75.5129 105.72 77.1249 106.33Z" fill="#FBFEFE"/>
<path d="M97.955 109.726C95.149 110.075 92.7742 111.374 90.8306 113.624C88.887 115.875 87.88 118.492 87.8103 121.475C87.7486 124.115 88.4549 126.13 89.9311 127.519C91.4064 128.909 93.4064 129.447 95.9303 129.134C98.6887 128.791 101.056 127.458 103.033 125.133C105.01 122.809 106.034 120.146 106.103 117.147C106.161 114.68 105.425 112.75 103.894 111.36C102.364 109.969 100.384 109.424 97.955 109.726ZM95.1931 137.589C92.7318 137.894 90.5017 137.836 88.5034 137.414C86.5052 136.994 84.738 136.209 83.2018 135.06C81.5898 133.827 80.3464 132.214 79.4707 130.22C78.5951 128.227 78.185 126.043 78.2414 123.668C78.3005 121.107 78.7529 118.664 79.5968 116.339C80.4399 114.016 81.6665 111.851 83.2768 109.844C85.1613 107.46 87.4373 105.531 90.1048 104.054C92.7733 102.578 95.6507 101.649 98.7389 101.265C103.912 100.623 108.057 101.588 111.178 104.159C114.298 106.731 115.803 110.39 115.691 115.139C115.632 117.685 115.172 120.129 114.313 122.471C113.453 124.812 112.227 126.978 110.632 128.966C108.684 131.405 106.404 133.354 103.791 134.816C101.178 136.277 98.3112 137.201 95.1931 137.589Z" fill="#FBFEFE"/>
<path d="M116.209 134.074L127.545 98.4655L137.773 97.1957L139.766 110.193C139.887 110.989 139.997 111.827 140.094 112.711C140.19 113.594 140.281 114.514 140.369 115.468C140.557 114.76 140.805 113.993 141.114 113.168C141.423 112.344 141.857 111.304 142.418 110.051L148.894 95.8138L159.051 94.5528L159.07 128.751L150.582 129.805L150.871 113.463C150.893 112.541 150.93 111.63 150.983 110.727C151.035 109.825 151.103 108.918 151.186 108.004C150.815 109.203 150.193 110.72 149.322 112.557C149.157 112.921 149.033 113.193 148.951 113.375L140.707 131.032L135.136 131.724L132.304 115.466C132.152 114.644 132.019 113.816 131.906 112.981C131.792 112.145 131.691 111.306 131.601 110.46C131.405 111.497 131.199 112.481 130.981 113.41C130.764 114.341 130.544 115.209 130.322 116.015L125.167 132.962L116.209 134.074Z" fill="#FBFEFE"/>
<path d="M163.211 128.234L169.468 93.2562L178.849 92.0904L172.592 127.069L163.211 128.234Z" fill="#FBFEFE"/>
<path d="M180.115 126.133L186.349 91.1573L196.859 89.8521L203.727 105.889C203.786 106.022 203.883 106.252 204.016 106.577C204.772 108.337 205.29 109.893 205.571 111.244L205.592 110.377C205.606 109.752 205.658 109.057 205.746 108.29C205.834 107.523 205.961 106.593 206.128 105.498L209.179 88.3222L218.371 87.1802L212.137 122.156L202.027 123.411L194.725 106.914C194.189 105.719 193.787 104.725 193.517 103.933C193.246 103.141 193.018 102.345 192.834 101.542L192.811 102.502C192.797 103.127 192.754 103.791 192.683 104.492C192.612 105.194 192.492 106.132 192.324 107.306L189.308 124.991L180.115 126.133Z" fill="#FBFEFE"/>
<path d="M239.681 100.118L256.961 97.9955C256.677 104.12 254.879 109.116 251.57 112.985C248.259 116.854 243.838 119.131 238.305 119.819C232.866 120.495 228.578 119.556 225.443 117.001C222.306 114.447 220.796 110.687 220.912 105.72C220.976 102.987 221.531 100.328 222.576 97.746C223.621 95.1631 225.09 92.8279 226.983 90.7389C228.779 88.7715 230.891 87.1736 233.319 85.9452C235.747 84.7177 238.363 83.9284 241.169 83.5801C244.461 83.1718 247.322 83.4699 249.752 84.4769C252.182 85.4831 254.266 87.2336 256.005 89.7274L248.553 95.6287C247.727 94.1895 246.684 93.1666 245.425 92.5599C244.166 91.9532 242.682 91.7556 240.973 91.9682C238.089 92.3262 235.682 93.6613 233.753 95.9717C231.823 98.283 230.821 101.024 230.747 104.195C230.686 106.819 231.381 108.832 232.833 110.231C234.285 111.632 236.234 112.18 238.679 111.877C239.587 111.764 240.448 111.552 241.26 111.241C242.072 110.929 242.828 110.528 243.527 110.036C244.147 109.586 244.683 109.048 245.136 108.423C245.588 107.799 245.956 107.087 246.241 106.288L238.412 107.261L239.681 100.118Z" fill="#FBFEFE"/>
<path d="M57.2452 179.445C59.1359 181.283 60.9498 182.566 62.6888 183.292C64.4261 184.02 66.2329 184.267 68.1095 184.033C69.6695 183.84 70.9226 183.307 71.8679 182.435C72.8132 181.564 73.3 180.509 73.3291 179.269C73.3688 177.588 71.5346 176.005 67.8282 174.517C67.4737 174.372 67.1924 174.26 66.9851 174.182C63.3819 172.744 60.926 171.237 59.6183 169.661C58.3096 168.085 57.6844 166.047 57.7435 163.547C57.8502 158.989 59.4816 155.068 62.6377 151.785C65.7938 148.503 69.807 146.559 74.6766 145.954C77.248 145.635 79.7092 145.78 82.0602 146.388C84.4103 146.997 86.6193 148.052 88.6864 149.556L83.1608 159.322C81.5285 158.101 80.0355 157.228 78.681 156.705C77.3274 156.182 76.0699 155.992 74.9111 156.136C73.6466 156.294 72.5831 156.787 71.7233 157.616C70.8635 158.445 70.4208 159.386 70.3961 160.436C70.3661 161.739 71.9129 163.002 75.0372 164.227C76.1413 164.655 76.994 165.01 77.5972 165.291C80.8018 166.674 83.0152 168.216 84.2366 169.918C85.4579 171.62 86.0355 173.868 85.9703 176.662C85.8548 181.599 84.0443 185.757 80.539 189.134C77.0337 192.514 72.33 194.568 66.4269 195.302C63.3282 195.686 60.4454 195.39 57.7779 194.412C55.1094 193.435 52.7205 191.789 50.6094 189.475L57.2452 179.445Z" fill="#FBFEFE"/>
<path d="M118.393 151.904C114.62 152.373 111.426 154.121 108.812 157.147C106.197 160.174 104.844 163.694 104.749 167.706C104.666 171.257 105.617 173.966 107.602 175.835C109.586 177.705 112.276 178.428 115.67 178.006C119.38 177.545 122.565 175.752 125.223 172.625C127.882 169.498 129.258 165.919 129.353 161.886C129.43 158.566 128.44 155.972 126.382 154.101C124.324 152.231 121.661 151.498 118.393 151.904ZM114.679 189.378C111.368 189.789 108.37 189.71 105.682 189.144C102.994 188.577 100.618 187.522 98.5518 185.977C96.3842 184.319 94.7105 182.149 93.5341 179.468C92.356 176.786 91.8048 173.849 91.8798 170.655C91.96 167.211 92.5676 163.925 93.7025 160.799C94.8366 157.673 96.4874 154.761 98.6523 152.063C101.187 148.857 104.248 146.262 107.837 144.277C111.424 142.291 115.295 141.041 119.448 140.525C126.405 139.661 131.981 140.959 136.178 144.417C140.374 147.876 142.398 152.798 142.249 159.184C142.168 162.609 141.55 165.895 140.394 169.044C139.237 172.194 137.588 175.106 135.444 177.781C132.825 181.06 129.757 183.683 126.242 185.648C122.728 187.613 118.874 188.857 114.679 189.378Z" fill="#FBFEFE"/>
<path d="M174.146 144.982C170.372 145.451 167.178 147.199 164.565 150.225C161.95 153.252 160.596 156.772 160.502 160.784C160.419 164.335 161.369 167.045 163.354 168.913C165.339 170.783 168.028 171.506 171.422 171.084C175.133 170.624 178.317 168.829 180.976 165.703C183.634 162.577 185.011 158.997 185.105 154.963C185.183 151.644 184.193 149.05 182.134 147.179C180.076 145.309 177.413 144.576 174.146 144.982ZM170.431 182.456C167.121 182.867 164.122 182.789 161.435 182.222C158.747 181.656 156.37 180.599 154.304 179.054C152.136 177.397 150.463 175.227 149.286 172.546C148.108 169.864 147.558 166.927 147.632 163.733C147.713 160.289 148.32 157.003 149.455 153.877C150.589 150.751 152.239 147.839 154.405 145.141C156.939 141.935 160 139.34 163.588 137.355C167.177 135.369 171.047 134.118 175.201 133.603C182.157 132.739 187.733 134.036 191.93 137.495C196.127 140.954 198.15 145.876 198.001 152.262C197.921 155.687 197.302 158.973 196.146 162.122C194.99 165.272 193.34 168.185 191.196 170.859C188.576 174.138 185.509 176.761 181.995 178.725C178.481 180.691 174.626 181.934 170.431 182.456Z" fill="#FBFEFE"/>
<path d="M201.412 177.379L209.797 130.34L223.932 128.584L233.17 150.153C233.249 150.332 233.379 150.641 233.558 151.079C234.575 153.446 235.271 155.537 235.65 157.354L235.677 156.188C235.696 155.348 235.765 154.413 235.884 153.382C236.003 152.351 236.174 151.099 236.397 149.627L240.501 126.526L252.865 124.991L244.481 172.03L230.883 173.718L221.061 151.531C220.343 149.924 219.8 148.588 219.437 147.522C219.073 146.458 218.767 145.386 218.519 144.306L218.489 145.598C218.469 146.439 218.411 147.331 218.316 148.275C218.22 149.219 218.059 150.48 217.833 152.058L213.776 175.844L201.412 177.379Z" fill="#FBFEFE"/>
<path d="M185.198 77.6111C183.775 77.8651 182.415 76.9189 182.161 75.4965C181.906 74.0741 182.852 72.7134 184.274 72.4585L234.359 63.4267C235.783 63.1719 237.142 64.119 237.397 65.5414C237.652 66.9638 236.706 68.3245 235.284 68.5784L185.198 77.6111Z" fill="#FBFEFE"/>
<path d="M241.944 67.5581C240.517 67.8076 239.156 66.8517 238.907 65.424C238.658 63.9954 239.614 62.6347 241.041 62.3861L245.318 61.633C246.746 61.3843 248.107 62.3402 248.355 63.7679C248.605 65.1965 247.649 66.5563 246.221 66.8058L241.944 67.5581Z" fill="#FBFEFE"/>
<path d="M173.594 70.9764C172.171 71.248 170.797 70.315 170.526 68.8926C170.253 67.4702 171.186 66.0963 172.609 65.8238L215.168 57.6139C216.591 57.3414 217.964 58.2744 218.237 59.6968C218.509 61.1192 217.576 62.494 216.153 62.7656L173.594 70.9764Z" fill="#FBFEFE"/>
<path d="M101.166 200.611C102.589 200.356 103.95 201.303 104.204 202.726C104.459 204.148 103.513 205.509 102.091 205.764L77.0473 210.279C75.6249 210.534 74.2651 209.587 74.0102 208.165C73.7554 206.743 74.7016 205.382 76.124 205.127L101.166 200.611Z" fill="#FBFEFE"/>
<path d="M69.4629 206.141C70.8906 205.892 72.2513 206.848 72.5009 208.276C72.7495 209.704 71.7936 211.064 70.3659 211.314L66.089 212.066C64.6613 212.315 63.3006 211.36 63.0511 209.931C62.8024 208.503 63.7583 207.143 65.186 206.894L69.4629 206.141Z" fill="#FBFEFE"/>
<path d="M116.214 206.294C117.637 206.022 119.012 206.955 119.283 208.378C119.555 209.8 118.622 211.174 117.199 211.446L87.9258 217.094C86.5033 217.365 85.1294 216.432 84.8578 215.01C84.5853 213.587 85.5183 212.214 86.9407 211.941L116.214 206.294Z" fill="#FBFEFE"/>
<path d="M90.9689 5.26428L82.0958 -0.000307083L76.0781 25.0078L90.9689 5.26428Z" fill="#FBFEFE"/>
<path d="M109.118 5.07107L75.8418 29.2891L106.212 19.4627L109.118 5.07107Z" fill="#FBFEFE"/>
<path d="M32.1118 112.121C27.5139 112.121 23.4442 109.36 21.744 105.087L18.1223 95.9808C17.9962 95.9808 17.8692 95.979 17.7431 95.9764C15.9917 95.9384 14.2563 95.6466 12.5834 95.1078C11.4838 94.7541 10.4123 94.2921 9.39911 93.7356C8.37794 93.1748 7.40959 92.5143 6.51955 91.7726C4.21468 89.8529 2.4069 87.3564 1.2927 84.5548C-0.495852 80.0583 -0.426621 75.1332 1.489 70.6887C3.40392 66.2442 6.93542 62.8112 11.4326 61.0228L26.7264 54.9399L26.9627 55.5369C31.8199 52.596 41.5783 45.4848 44.9029 34.2237C46.1075 26.4582 49.8271 23.4362 52.7574 22.2704C53.9858 21.7818 55.2989 21.534 56.6605 21.534C67.4198 21.534 78.2391 36.6267 84.188 51.5836C91.3239 69.5256 92.6837 90.0204 81.4763 94.4772C80.2506 94.9658 78.9402 95.2127 77.5804 95.2127C74.374 95.2127 71.0036 93.8573 67.5574 91.1844C62.6552 88.3335 56.8104 86.8881 50.1789 86.8881C45.4611 86.8881 41.4602 87.6209 39.0395 88.1994L42.4769 96.8406C43.5784 99.6096 43.5352 102.641 42.3561 105.379C41.1762 108.115 39.0025 110.229 36.2335 111.33C34.9125 111.855 33.5263 112.121 32.1118 112.121Z" fill="white"/>
<path d="M34.5123 106.995C31.1772 108.322 27.3976 106.693 26.0713 103.358L19.4805 86.7853L31.5582 81.982L38.1499 98.5544C39.4762 101.889 37.8474 105.668 34.5123 106.995Z" fill="#654FAC"/>
<path d="M23.874 97.832L21.1465 90.9731C21.7708 90.8293 22.3916 90.638 23.0063 90.399C23.0116 90.3972 23.0177 90.3946 23.0239 90.3928C23.0248 90.3919 23.0257 90.3919 23.0274 90.3911L23.0292 90.3902C23.0407 90.3858 23.0513 90.3814 23.0627 90.3769C23.0654 90.3761 23.068 90.3752 23.0707 90.3743C23.0821 90.3699 23.0936 90.3655 23.1042 90.3611L33.2815 86.3134L34.6316 89.7076L23.874 97.832Z" fill="#68349B"/>
<path d="M34.0612 86.005L23.1017 90.364C16.1943 93.1109 8.36616 89.7387 5.6187 82.8304C2.87115 75.922 6.2441 68.0948 13.1519 65.347L24.1114 60.9881L34.0612 86.005Z" fill="#654FAC"/>
<path d="M21.1465 90.9727C21.7712 90.8288 22.3932 90.6374 23.0074 90.3983C22.3924 90.6374 21.7712 90.8288 21.1465 90.9727Z" fill="#5E1950"/>
<path d="M18.1312 91.3203C18.1303 91.3203 18.1286 91.3203 18.1268 91.3203C12.8181 91.3185 7.79623 88.1545 5.66888 82.9534C5.65213 82.912 5.63563 82.8714 5.61914 82.8299L25.902 74.7629C27.9364 79.8775 30.9973 83.6836 33.4461 84.4578L34.0617 86.0046L33.2795 86.3159L23.1022 90.3635C23.0916 90.3679 23.0801 90.3723 23.0686 90.3767C23.066 90.3776 23.0634 90.3785 23.0607 90.3794C23.0492 90.3838 23.0387 90.3882 23.0272 90.3926L23.0254 90.3935C23.0237 90.3944 23.0228 90.3944 23.0219 90.3953C23.0157 90.397 23.0096 90.3997 23.0043 90.4014C22.3905 90.6404 21.7688 90.8318 21.1445 90.9755C20.1427 91.2074 19.1321 91.3194 18.133 91.3203C18.1321 91.3203 18.1321 91.3203 18.1312 91.3203Z" fill="#632278"/>
<path d="M34.1025 71.5183C36.8468 78.4178 36.8283 84.9037 34.0611 86.0043C31.2939 87.1048 26.8256 82.4037 24.0813 75.5033C21.337 68.6038 21.3555 62.1179 24.1228 61.0173C26.89 59.9168 31.3583 64.6179 34.1025 71.5183Z" fill="#1E1C25"/>
<path d="M25.9424 61.3953C23.3886 62.4112 23.3709 68.398 25.9045 74.7666C28.438 81.1353 32.5615 85.4748 35.1162 84.4589C35.2299 84.414 54.738 77.7852 70.6332 87.5859L49.6101 34.7284C44.7873 52.7691 26.0561 61.3494 25.9424 61.3953Z" fill="#DDE7EE"/>
<path d="M25.9004 74.7666C28.4339 81.1353 32.5574 85.4748 35.1121 84.4589C35.2258 84.414 54.7339 77.7852 70.6291 87.5859L60.1176 61.1572L25.9004 74.7666Z" fill="#BFCBCB"/>
<path d="M79.8615 53.303C86.8413 70.8526 86.7946 87.3491 79.7566 90.1481C72.7186 92.9479 61.3544 80.9902 54.3746 63.4407C47.3939 45.8912 47.4416 29.3946 54.4795 26.5956C61.5175 23.7967 72.8818 35.7535 79.8615 53.303Z" fill="#654FAC"/>
<path d="M75.4372 55.0578C80.9946 69.0315 81.7759 81.8411 77.1815 83.6683C72.5862 85.4963 64.356 75.6497 58.7986 61.676C53.2404 47.7015 52.46 34.8919 57.0544 33.0647C61.6487 31.2376 69.879 41.0833 75.4372 55.0578Z" fill="#DDE7EE"/>
<path d="M55.0576 35.1393C52.9103 39.6604 54.2648 50.2822 58.7983 61.68C63.331 73.0769 69.6415 81.7269 74.3073 83.5391C76.4546 79.0179 75.1001 68.3952 70.5674 56.9983C66.0339 45.6014 59.7234 36.9506 55.0576 35.1393Z" fill="#BFCBCB"/>
<path d="M67.1192 58.3755C65.3529 53.9346 60.4313 51.6921 55.9551 53.1956C56.6932 55.9161 57.642 58.775 58.7999 61.6851C59.9569 64.5943 61.2303 67.3244 62.5627 69.8086C66.8485 67.8271 68.8855 62.8165 67.1192 58.3755Z" fill="#654FAC"/>
<path d="M62.5597 69.8086C61.2272 67.3244 59.9538 64.5943 58.7969 61.6851L67.1162 58.3755C67.5474 59.4602 67.752 60.5784 67.752 61.678C67.7537 65.0828 65.7996 68.3112 62.5597 69.8086Z" fill="#632278"/>
<path d="M105.167 36.1367L114.135 24.7663L79.2793 32.8078L105.167 36.1367Z" fill="#FBFEFE"/>
</svg>
