<svg xmlns="http://www.w3.org/2000/svg" width="24" height="24" fill="none" viewBox="0 0 24 24"><path stroke="#266ddf" stroke-linecap="round" stroke-linejoin="round" stroke-width="1.5" d="M16.992 5.404 18.496 6.6a.72.72 0 0 1-.006 1.051L17.347 9.02l-3.887 4.636a.5.5 0 0 1-.259.156l-2.016.457a.51.51 0 0 1-.529-.441v-2.072a.45.45 0 0 1 .114-.269l3.816-4.313 1.309-1.564a.833.833 0 0 1 1.097-.205" clip-rule="evenodd"/><path fill="#266ddf" d="M11.55 7.792a.72.72 0 0 0 0-1.44zm-2.688-.72v-.72h-.001zm-3.583 3.6h.72v-.002zm0 5.4.72.001v-.001zm3.583 3.6-.001.72h.001zm5.376 0v.72h.002zm3.584-3.6h-.72v.001zm.72-3.6a.72.72 0 1 0-1.44 0zm-3.293-5.577a.72.72 0 1 0-1.33.55zm2.252 2.82a.72.72 0 0 0-.31-1.406zm-9.534 6.537a.72.72 0 1 0 0 1.44zm7.168 1.44a.72.72 0 0 0 0-1.44zM11.55 6.352H8.862v1.44h2.688zm-2.69 0a4.31 4.31 0 0 0-4.301 4.321l1.44-.003a2.87 2.87 0 0 1 2.865-2.878zm-4.301 4.32v5.4h1.44v-5.4zm0 5.398a4.31 4.31 0 0 0 4.302 4.322l.003-1.44a2.87 2.87 0 0 1-2.865-2.879zm4.303 4.322h5.376v-1.44H8.862zm5.378 0a4.31 4.31 0 0 0 4.302-4.322l-1.44.003a2.87 2.87 0 0 1-2.866 2.879zm4.302-4.32v-3.6h-1.44v3.6zm-4.624-8.628a4.5 4.5 0 0 0 1.14 1.592c.583.508 1.422.905 2.443.679l-.31-1.406c-.447.098-.835-.052-1.188-.36a3 3 0 0 1-.754-1.054zM7.967 17.692h7.168v-1.44H7.967z"/></svg>