<svg xmlns="http://www.w3.org/2000/svg" width="103" height="32" fill="none" viewBox="0 0 103 32"><path fill="#c40200" d="M103 9 92.5 0v9z"/><path fill="url(#a)" d="M103 9H2a2 2 0 0 0-2 2v19a2 2 0 0 0 2 2h99a2 2 0 0 0 2-2z"/><path fill="#fff" d="M14.526 23.64V25H9.242v-1.36zm-4.798-8.593V25H8.012v-9.953zm4.108 4.156v1.34H9.242v-1.34zm.656-4.156v1.367h-5.25v-1.367zm5.421 7.95a.83.83 0 0 0-.123-.444q-.123-.205-.472-.37-.342-.164-1.011-.3a9 9 0 0 1-1.08-.308 3.4 3.4 0 0 1-.834-.444 1.9 1.9 0 0 1-.54-.615 1.7 1.7 0 0 1-.192-.82q0-.452.198-.855.2-.404.568-.711.369-.308.895-.485a3.8 3.8 0 0 1 1.19-.178q.93 0 1.593.314.67.308 1.025.841.355.526.355 1.19h-1.647q0-.295-.15-.547a1.05 1.05 0 0 0-.438-.417q-.294-.165-.738-.164-.425 0-.704.136a.96.96 0 0 0-.41.342.87.87 0 0 0-.062.8.8.8 0 0 0 .246.267q.171.116.465.218.3.103.752.198.847.178 1.456.459.615.273.943.71.328.432.328 1.094 0 .493-.212.902a2.05 2.05 0 0 1-.601.705 3 3 0 0 1-.95.458 4.3 4.3 0 0 1-1.23.164q-1.005 0-1.703-.356-.697-.362-1.06-.923a2.2 2.2 0 0 1-.355-1.175h1.593q.027.458.253.731.232.267.574.39.349.116.718.116.444 0 .745-.116.3-.123.458-.328a.8.8 0 0 0 .157-.479m7.205 0a.83.83 0 0 0-.123-.444q-.123-.205-.472-.37-.341-.164-1.011-.3a9 9 0 0 1-1.08-.308 3.4 3.4 0 0 1-.834-.444 1.9 1.9 0 0 1-.54-.615 1.7 1.7 0 0 1-.192-.82q0-.452.198-.855.2-.404.568-.711.369-.308.895-.485a3.8 3.8 0 0 1 1.19-.178q.93 0 1.593.314.67.308 1.025.841.355.526.355 1.19h-1.647q0-.295-.15-.547a1.05 1.05 0 0 0-.438-.417q-.294-.165-.738-.164-.424 0-.704.136a.96.96 0 0 0-.41.342.87.87 0 0 0-.062.8q.075.143.246.267.171.116.465.218.3.103.752.198.847.178 1.456.459.615.273.943.71.329.432.328 1.094 0 .493-.212.902a2.05 2.05 0 0 1-.601.705 3 3 0 0 1-.95.458 4.3 4.3 0 0 1-1.23.164q-1.005 0-1.703-.356-.697-.362-1.06-.923a2.2 2.2 0 0 1-.355-1.175h1.593q.027.458.253.731.232.267.574.39.35.116.718.116.444 0 .745-.116.3-.123.458-.328a.8.8 0 0 0 .157-.479m6.317 2.14a3.9 3.9 0 0 1-1.484-.267 3.3 3.3 0 0 1-1.12-.759 3.4 3.4 0 0 1-.705-1.141 4 4 0 0 1-.246-1.415v-.274q0-.868.253-1.572.252-.704.704-1.203.45-.506 1.066-.773.615-.266 1.333-.266.794 0 1.388.266.595.267.984.752.397.48.588 1.142.2.663.199 1.463v.704H30.68V20.61h4.088v-.13a2.3 2.3 0 0 0-.178-.834 1.4 1.4 0 0 0-.486-.628q-.328-.24-.874-.24-.411 0-.732.178-.315.17-.526.5-.213.327-.328.792-.11.458-.11 1.032v.274q0 .485.13.902.137.41.396.718.26.308.63.485.368.171.84.171.595 0 1.06-.24.465-.238.806-.676l.869.84q-.24.35-.622.67-.384.315-.937.514a3.7 3.7 0 0 1-1.271.198m5.878-5.954V25h-1.647v-7.396h1.552zm-.294 1.845-.533-.006a4.8 4.8 0 0 1 .22-1.443q.218-.655.6-1.128.39-.471.93-.724a2.74 2.74 0 0 1 1.204-.26q.532 0 .963.15.438.144.745.472.315.328.479.854.165.52.164 1.279V25h-1.654v-4.785q0-.534-.157-.841a.88.88 0 0 0-.445-.444q-.286-.137-.718-.137-.423 0-.758.178-.336.177-.568.485-.225.307-.348.711a3 3 0 0 0-.123.861m9.844-3.424v1.203h-4.17v-1.203zm-2.966-1.812h1.647v7.164q0 .342.096.526a.5.5 0 0 0 .28.24q.177.06.417.061.17 0 .328-.02.158-.021.253-.041l.007 1.258a4 4 0 0 1-.479.109 3.5 3.5 0 0 1-.615.048q-.567 0-1.005-.198a1.48 1.48 0 0 1-.683-.664q-.247-.457-.246-1.216zm6.001 1.812V25h-1.654v-7.396zm-1.763-1.942q0-.376.246-.622.252-.253.697-.253.438 0 .69.253a.83.83 0 0 1 .254.622.82.82 0 0 1-.253.615q-.255.246-.69.246-.446 0-.698-.246a.83.83 0 0 1-.246-.615m7.738 7.855v-3.528q0-.396-.143-.683a1 1 0 0 0-.438-.445q-.287-.157-.725-.157-.402 0-.697.137a1.13 1.13 0 0 0-.458.369.9.9 0 0 0-.164.526h-1.64q0-.437.211-.847.213-.411.616-.732t.963-.506a4 4 0 0 1 1.258-.184q.834 0 1.477.28.65.28 1.018.848.376.56.376 1.408v3.288q0 .505.069.91.074.396.212.69V25h-1.689a3 3 0 0 1-.184-.677 5.5 5.5 0 0 1-.062-.806m.24-3.015.013 1.018h-1.183q-.458 0-.806.09a1.7 1.7 0 0 0-.581.245q-.232.165-.349.397t-.116.526.136.54q.138.24.397.376.267.137.643.137.505 0 .881-.205.384-.211.602-.513.219-.307.232-.58l.534.73a2.5 2.5 0 0 1-.28.602q-.2.322-.52.616-.315.286-.759.471a2.6 2.6 0 0 1-1.012.185q-.724 0-1.292-.287a2.3 2.3 0 0 1-.888-.787 2.04 2.04 0 0 1-.322-1.127q0-.588.22-1.04.225-.457.655-.765.438-.307 1.067-.465.629-.164 1.435-.164zm4.9-6.002V25H61.36V14.5zm9.236 6.788h-2.59v-1.36h2.59q.677 0 1.094-.219t.608-.602q.198-.39.198-.888 0-.473-.198-.882a1.5 1.5 0 0 0-.608-.67q-.417-.253-1.094-.253h-2.064V25h-1.716v-9.953h3.78q1.155 0 1.962.41.814.404 1.237 1.121.424.71.424 1.627 0 .964-.424 1.654-.423.69-1.237 1.06-.807.37-1.962.37m6.76-6.788V25h-1.653V14.5zm5.975 9.017v-3.528q0-.396-.143-.683a1 1 0 0 0-.438-.445q-.287-.157-.724-.157-.404 0-.698.137a1.13 1.13 0 0 0-.458.369.9.9 0 0 0-.164.526h-1.64q0-.437.212-.847.21-.411.615-.732.403-.321.964-.506a4 4 0 0 1 1.258-.184q.834 0 1.476.28.65.28 1.019.848.376.56.376 1.408v3.288q0 .505.068.91.075.396.212.69V25H85.23a3 3 0 0 1-.185-.677 5.5 5.5 0 0 1-.062-.806m.24-3.015.013 1.018h-1.182q-.459 0-.807.09a1.7 1.7 0 0 0-.581.245 1.07 1.07 0 0 0-.465.923q0 .294.137.54.137.24.396.376.267.137.643.137.505 0 .882-.205.383-.211.601-.513.22-.307.233-.58l.533.73a2.5 2.5 0 0 1-.28.602q-.199.322-.52.616a2.585 2.585 0 0 1-1.77.656q-.725 0-1.292-.287a2.3 2.3 0 0 1-.889-.787 2.04 2.04 0 0 1-.321-1.127q0-.588.218-1.04.226-.457.657-.765.437-.307 1.066-.465.63-.164 1.436-.164zm4.771-1.32V25h-1.647v-7.396h1.551zm-.294 1.846-.533-.006a4.8 4.8 0 0 1 .219-1.443q.219-.655.601-1.128.39-.471.93-.724.54-.26 1.203-.26.534 0 .964.15.438.144.745.472.315.328.479.854.164.52.164 1.279V25h-1.655v-4.785q0-.534-.157-.841a.88.88 0 0 0-.444-.444q-.287-.137-.718-.137-.423 0-.759.178-.335.177-.567.485-.225.307-.349.711a3 3 0 0 0-.123.861"/><defs><linearGradient id="a" x1="103" x2="0" y1="20.5" y2="20.5" gradientUnits="userSpaceOnUse"><stop stop-color="#fb0200"/><stop offset="1" stop-color="#4184ed"/></linearGradient></defs></svg>