<svg xmlns="http://www.w3.org/2000/svg" width="19" height="19" fill="none" viewBox="0 0 19 19"><path fill="#172e53" fill-rule="evenodd" d="M9.5 14.682a5.182 5.182 0 1 0 0-10.364 5.182 5.182 0 0 0 0 10.364m0-1.727a3.455 3.455 0 1 0 0-6.91 3.455 3.455 0 0 0 0 6.91" clip-rule="evenodd"/><path fill="#172e53" d="M14.682 3.455a.864.864 0 1 0 0 1.727.864.864 0 0 0 0-1.727"/><path fill="#172e53" fill-rule="evenodd" d="M.565 2.83C0 3.937 0 5.388 0 8.29v2.42c0 2.901 0 4.352.565 5.46a5.2 5.2 0 0 0 2.264 2.265C3.938 19 5.39 19 8.291 19h2.418c2.902 0 4.353 0 5.462-.565a5.2 5.2 0 0 0 2.264-2.264C19 15.062 19 13.61 19 10.709V8.291c0-2.902 0-4.353-.565-5.462A5.2 5.2 0 0 0 16.171.565C15.062 0 13.61 0 10.709 0H8.291C5.389 0 3.938 0 2.829.565A5.2 5.2 0 0 0 .565 2.829m10.144-1.103H8.291c-1.48 0-2.485.002-3.263.065-.757.062-1.144.174-1.415.312-.65.331-1.178.86-1.51 1.51-.137.27-.249.657-.31 1.414-.064.778-.066 1.783-.066 3.263v2.418c0 1.48.002 2.485.065 3.263.062.757.174 1.144.312 1.415.331.65.86 1.178 1.51 1.51.27.137.657.249 1.414.31.778.064 1.783.066 3.263.066h2.418c1.48 0 2.485-.002 3.263-.065.757-.062 1.144-.174 1.415-.312a3.46 3.46 0 0 0 1.51-1.51c.137-.27.249-.657.31-1.414.064-.778.066-1.783.066-3.263V8.291c0-1.48-.002-2.485-.065-3.263-.062-.757-.174-1.144-.312-1.415a3.46 3.46 0 0 0-1.51-1.51c-.27-.137-.657-.249-1.414-.31-.778-.064-1.783-.066-3.263-.066" clip-rule="evenodd"/></svg>