<svg xmlns="http://www.w3.org/2000/svg" width="280" height="35" fill="none" viewBox="0 0 280 35"><path fill="#fbba01" d="M25.544 2.988 19.625 13.87l2.415 10.564 5.689-9.237z"/><path fill="#fb0200" d="M6.798 32.101 0 2.902h7.861l2.906 12.817L17.26 2.902l8.288.086L9.734 32.1z"/><path fill="#32ab15" d="m34.348 2.902-6.665 12.304-5.64 9.228 1.902 7.667h2.318l11.179-20.187z"/><path fill="#4184ed" d="m38.79 14.693-1.35-2.78-4.75 8.593L35.145 32.1h2.395L53.145 2.902h-7.52z"/><path fill="#000" d="m73.975 23.547 5.024-16.875h4.893L76.465 28h-3.223zm-4.63-16.875 5.01 16.875.762 4.453h-3.252L64.482 6.672zm24.156 17.754v-7.06q0-.763-.249-1.305a1.85 1.85 0 0 0-.776-.864q-.514-.307-1.333-.307-.704 0-1.216.249a1.76 1.76 0 0 0-.791.688q-.279.44-.279 1.04H84.64q0-1.01.468-1.919.47-.908 1.363-1.596.892-.704 2.124-1.1 1.245-.395 2.783-.395 1.845 0 3.281.616 1.436.615 2.256 1.845.835 1.23.835 3.077v6.782q0 1.304.161 2.138a5.6 5.6 0 0 0 .469 1.436V28h-4.263q-.307-.645-.469-1.611a13 13 0 0 1-.146-1.963m.557-6.08.029 2.388h-2.359q-.835 0-1.45.19-.615.191-1.01.543a2.1 2.1 0 0 0-.586.79 2.7 2.7 0 0 0-.176.997q0 .541.249.981.249.425.718.674.468.234 1.098.235.953 0 1.656-.381.702-.381 1.084-.938.395-.556.41-1.055l1.113 1.788q-.234.6-.645 1.245-.395.645-1.01 1.216-.615.556-1.48.922-.865.352-2.05.352-1.51 0-2.74-.6a5 5 0 0 1-1.933-1.685q-.704-1.084-.704-2.461 0-1.245.47-2.212a4.3 4.3 0 0 1 1.376-1.626q.923-.675 2.3-1.01 1.377-.352 3.193-.352zM105.117 5.5V28h-4.219V5.5zm-.6 14.019h-1.158q.015-1.656.44-3.047.424-1.406 1.216-2.432a5.6 5.6 0 0 1 1.889-1.611q1.114-.572 2.461-.572 1.172 0 2.124.337a3.95 3.95 0 0 1 1.656 1.055q.703.717 1.084 1.89.38 1.17.38 2.842V28h-4.248V17.951q0-1.055-.307-1.655-.294-.615-.865-.864-.556-.264-1.377-.264-.908 0-1.552.337-.63.337-1.011.937-.38.587-.557 1.377a8 8 0 0 0-.175 1.7m21.855 4.907v-7.06q0-.763-.249-1.305a1.86 1.86 0 0 0-.776-.864q-.513-.307-1.333-.307-.703 0-1.216.249a1.76 1.76 0 0 0-.791.688q-.279.44-.278 1.04h-4.219q0-1.01.469-1.919.468-.908 1.362-1.596.894-.704 2.124-1.1 1.245-.395 2.783-.395 1.846 0 3.281.616 1.435.615 2.256 1.845.835 1.23.835 3.077v6.782q0 1.304.161 2.138.162.82.469 1.436V28h-4.263q-.308-.645-.468-1.611a13 13 0 0 1-.147-1.963m.557-6.08.029 2.388H124.6q-.835 0-1.451.19-.615.191-1.01.543a2.1 2.1 0 0 0-.586.79 2.7 2.7 0 0 0-.176.997q0 .541.249.981.249.425.718.674.468.234 1.098.235.952 0 1.656-.381.702-.381 1.084-.938.395-.556.41-1.055l1.113 1.788q-.234.6-.644 1.245-.396.645-1.011 1.216-.615.556-1.48.922-.864.352-2.05.352-1.509 0-2.74-.6a5 5 0 0 1-1.933-1.685q-.703-1.084-.703-2.461 0-1.245.468-2.212a4.3 4.3 0 0 1 1.377-1.626q.923-.675 2.3-1.01 1.377-.352 3.193-.352zm11.074-2.812V28h-4.219V12.15h3.955zm-.615 3.985h-1.143q0-1.758.454-3.164.454-1.421 1.275-2.418a5.5 5.5 0 0 1 1.948-1.538q1.142-.541 2.549-.542 1.113 0 2.036.323a3.9 3.9 0 0 1 1.582 1.025q.674.704 1.025 1.86.366 1.157.366 2.828V28h-4.248V17.878q0-1.055-.293-1.64a1.64 1.64 0 0 0-.864-.821q-.557-.249-1.377-.249-.849 0-1.479.337-.615.337-1.026.937-.395.587-.6 1.377a6.7 6.7 0 0 0-.205 1.7m17.827 4.38 3.296-11.749h2.68l-.864 4.615L157.031 28h-2.241zm-1.67-11.749 2.358 11.734.22 4.116h-2.637l-4.013-15.85zm10.664 11.543 2.3-11.543h4.087L166.582 28h-2.622zm-2.651-11.543 3.281 11.66.454 4.19h-2.256l-3.296-11.22-.835-4.63zm15.615 0V28h-4.234V12.15zm-4.497-4.13q0-.924.644-1.524.645-.6 1.729-.6 1.07 0 1.714.6.659.6.659 1.524 0 .923-.659 1.523-.645.6-1.714.6-1.084 0-1.729-.6-.644-.6-.644-1.523m12.202 7.587V28h-4.219V12.15h3.97zm4.775-3.56-.073 3.912q-.308-.045-.747-.073a8 8 0 0 0-.776-.044q-.894 0-1.553.234-.645.22-1.084.66-.424.439-.645 1.069a5.3 5.3 0 0 0-.234 1.435l-.85-.263q0-1.538.308-2.828.308-1.304.894-2.27.6-.968 1.464-1.494.865-.528 1.978-.528.352 0 .718.059.366.044.6.132m8.994 16.246q-1.846 0-3.31-.586-1.465-.6-2.49-1.655a7.4 7.4 0 0 1-1.553-2.447 8.2 8.2 0 0 1-.542-2.988v-.586q0-1.801.513-3.296.512-1.494 1.464-2.592a6.44 6.44 0 0 1 2.344-1.685q1.377-.6 3.106-.6 1.684 0 2.988.556a5.86 5.86 0 0 1 2.183 1.582q.893 1.026 1.347 2.461.454 1.42.454 3.164v1.758h-12.597v-2.813h8.452v-.322q0-.879-.322-1.567a2.5 2.5 0 0 0-.938-1.114q-.63-.41-1.611-.41-.835 0-1.436.367-.6.366-.981 1.025-.366.66-.557 1.553a10 10 0 0 0-.176 1.933v.586q0 .952.264 1.758a4.3 4.3 0 0 0 .776 1.392q.513.585 1.231.908.732.322 1.655.322 1.143 0 2.124-.44a4.6 4.6 0 0 0 1.714-1.362l2.051 2.227q-.498.717-1.362 1.377-.85.659-2.051 1.084-1.201.41-2.74.41"/></svg>