<svg xmlns="http://www.w3.org/2000/svg" width="300" height="59" fill="none" viewBox="0 0 300 59"><path fill="#fbba01" d="M51.426.174 39.51 22.082l4.863 21.27 11.452-18.598z"/><path fill="#fb0200" d="M13.687 58.787 0 0h15.828l5.849 25.804L34.752 0 51.44.172 19.598 58.787z"/><path fill="#32ab15" d="m69.155 0-13.42 24.772L44.381 43.35l3.83 15.437h4.666l22.507-40.644z"/><path fill="#4184ed" d="m78.097 23.74-2.716-5.597-9.565 17.298 4.944 23.346h4.822L107 0H91.86z"/><path fill="#fff" d="m127.828 35.441 5.025-16.875h4.892l-7.427 21.329h-3.222zm-4.629-16.875 5.01 16.875.762 4.453h-3.252l-7.383-21.328zm24.155 17.754v-7.06q0-.762-.249-1.304a1.85 1.85 0 0 0-.776-.864q-.513-.308-1.333-.308-.703 0-1.216.25a1.76 1.76 0 0 0-.791.688q-.278.44-.278 1.04h-4.219q0-1.011.469-1.92.469-.907 1.362-1.596.894-.704 2.124-1.098 1.245-.396 2.783-.396 1.846 0 3.282.615 1.435.616 2.256 1.846.835 1.23.835 3.076v6.782q0 1.304.161 2.139.16.82.468 1.435v.25h-4.262q-.308-.645-.469-1.612a13 13 0 0 1-.147-1.963m.557-6.079.029 2.388h-2.358q-.835 0-1.45.19t-1.011.542a2.1 2.1 0 0 0-.586.791 2.7 2.7 0 0 0-.176.996q0 .543.249.982.25.425.718.674.47.234 1.099.234.952 0 1.655-.38.703-.382 1.084-.938.396-.557.41-1.055l1.114 1.787q-.236.6-.645 1.245-.396.645-1.011 1.216a5.2 5.2 0 0 1-1.479.923q-.864.352-2.051.352-1.509 0-2.739-.601a5 5 0 0 1-1.934-1.685q-.703-1.084-.703-2.46 0-1.245.469-2.212a4.3 4.3 0 0 1 1.377-1.626q.923-.675 2.299-1.011 1.377-.352 3.194-.352zm11.06-12.846v22.5h-4.219v-22.5zm-.601 14.018h-1.157q.015-1.656.439-3.047.426-1.406 1.216-2.431a5.6 5.6 0 0 1 1.89-1.612q1.113-.57 2.461-.571 1.172 0 2.124.337a3.95 3.95 0 0 1 1.655 1.055q.703.717 1.084 1.89.381 1.17.381 2.841v10.02h-4.248v-10.05q0-1.053-.308-1.655-.292-.615-.864-.864-.557-.264-1.377-.264-.908 0-1.553.337-.63.337-1.01.938-.381.586-.557 1.377a8 8 0 0 0-.176 1.7m21.856 4.907v-7.06q0-.762-.249-1.304a1.85 1.85 0 0 0-.777-.864q-.513-.308-1.333-.308-.703 0-1.216.25a1.77 1.77 0 0 0-.791.688q-.278.44-.278 1.04h-4.219q0-1.011.469-1.92a4.8 4.8 0 0 1 1.362-1.596q.894-.704 2.124-1.098 1.245-.396 2.784-.396 1.845 0 3.281.615 1.435.616 2.256 1.846.834 1.23.835 3.076v6.782q0 1.304.161 2.139a5.6 5.6 0 0 0 .469 1.435v.25h-4.263q-.308-.645-.469-1.612a13 13 0 0 1-.146-1.963m.556-6.079.03 2.388h-2.359q-.835 0-1.45.19t-1.011.542a2.1 2.1 0 0 0-.586.791 2.7 2.7 0 0 0-.176.996q0 .543.249.982.25.425.718.674.47.234 1.099.234.952 0 1.655-.38.703-.382 1.084-.938.396-.557.41-1.055l1.114 1.787q-.235.6-.645 1.245-.396.645-1.011 1.216a5.2 5.2 0 0 1-1.479.923q-.864.352-2.051.352-1.509 0-2.739-.601a5 5 0 0 1-1.934-1.685q-.703-1.084-.703-2.46 0-1.245.469-2.212a4.3 4.3 0 0 1 1.377-1.626q.923-.675 2.3-1.011 1.377-.352 3.193-.352zm11.074-2.812v12.466h-4.218v-15.85h3.955zm-.615 3.984h-1.142q0-1.758.454-3.164.453-1.42 1.274-2.417a5.5 5.5 0 0 1 1.948-1.538q1.143-.542 2.549-.542 1.113 0 2.036.322a3.9 3.9 0 0 1 1.582 1.026q.674.702 1.026 1.86.366 1.157.366 2.827v10.108h-4.248V29.772q0-1.055-.293-1.64a1.64 1.64 0 0 0-.864-.82q-.556-.25-1.377-.25-.85 0-1.48.337-.615.337-1.025.938-.396.586-.601 1.377a6.8 6.8 0 0 0-.205 1.7m17.827 4.38 3.296-11.748h2.681l-.864 4.614-3.296 11.236h-2.241zm-1.67-11.748 2.359 11.733.22 4.117h-2.637l-4.014-15.85zm10.664 11.543 2.3-11.543h4.087l-4.013 15.85h-2.623zm-2.651-11.543 3.281 11.66.454 4.19h-2.255l-3.296-11.221-.835-4.63zm15.615 0v15.85h-4.233v-15.85zm-4.497-4.13q0-.924.645-1.524t1.728-.601q1.07 0 1.714.6.66.601.659 1.524 0 .923-.659 1.523-.644.6-1.714.601-1.083 0-1.728-.6t-.645-1.524m12.202 7.587v12.393h-4.218v-15.85h3.969zm4.776-3.56-.073 3.912q-.308-.044-.747-.074a8 8 0 0 0-.777-.044q-.893 0-1.553.235a2.8 2.8 0 0 0-1.084.659q-.425.44-.644 1.07-.206.63-.234 1.435l-.85-.264q0-1.538.308-2.827.307-1.305.893-2.27.6-.967 1.465-1.495.864-.527 1.977-.527.352 0 .718.059.367.044.601.131m8.994 16.246q-1.845 0-3.311-.586-1.464-.6-2.49-1.656a7.4 7.4 0 0 1-1.553-2.446 8.2 8.2 0 0 1-.542-2.988v-.586q0-1.802.513-3.296t1.465-2.593a6.44 6.44 0 0 1 2.344-1.684q1.377-.6 3.105-.601 1.684 0 2.989.557a5.86 5.86 0 0 1 2.182 1.582q.894 1.025 1.348 2.46.454 1.422.454 3.165v1.757h-12.598v-2.812h8.452v-.322q0-.88-.322-1.568a2.5 2.5 0 0 0-.937-1.113q-.63-.41-1.612-.41-.834 0-1.435.366a2.8 2.8 0 0 0-.982 1.025q-.366.66-.556 1.553a10 10 0 0 0-.176 1.934v.586q0 .952.264 1.758.278.805.776 1.391.513.586 1.23.908.733.323 1.656.323 1.142 0 2.124-.44a4.6 4.6 0 0 0 1.714-1.362l2.05 2.226q-.498.719-1.362 1.377-.85.66-2.051 1.084-1.202.41-2.739.41"/></svg>