<svg xmlns="http://www.w3.org/2000/svg" width="20" height="20" fill="none" viewBox="0 0 20 20"><path fill="#2f3a41" d="M19.672 10.695a3.125 3.125 0 0 0-4.081.543l-2 2.282a2.5 2.5 0 0 0-2.338-1.644h-.581c-.314 0-.62-.094-.882-.269a5.86 5.86 0 0 0-7.387.731l-2.22 2.22a.628.628 0 1 0 .888.887l2.22-2.22a4.59 4.59 0 0 1 5.806-.574 2.83 2.83 0 0 0 1.575.475h.581a1.25 1.25 0 0 1 1.25 1.25H8.128a.625.625 0 0 0 0 1.25h5a.63.63 0 0 0 .463-.219l2.93-3.35a1.88 1.88 0 0 1 1.876-.575l-4.394 5.894a1.88 1.88 0 0 1-1.5.75H7.134a2.75 2.75 0 0 0-1.95.806.626.626 0 0 0 .203 1.025.63.63 0 0 0 .685-.137 1.48 1.48 0 0 1 1.062-.444h5.369a3.13 3.13 0 0 0 2.5-1.25l4.875-6.5a.7.7 0 0 0 .094-.5.73.73 0 0 0-.3-.431M12.504 10a5 5 0 1 0 0-10 5 5 0 0 0 0 10m0-8.75a3.75 3.75 0 1 1 0 7.501 3.75 3.75 0 0 1 0-7.5"/><path fill="#2f3a41" d="M12.06 7.212a.625.625 0 0 0 .887 0l1.769-1.77a.624.624 0 0 0 0-.887l-1.77-1.769a.625.625 0 0 0-.887 0l-1.769 1.77a.627.627 0 0 0 0 .887zm.443-3.094.881.881-.881.881L11.622 5zM3.129 3.125h.625v.625a.625.625 0 1 0 1.25 0v-.625h.625a.625.625 0 0 0 0-1.25h-.625V1.25a.625.625 0 0 0-1.25 0v.625h-.625a.625.625 0 0 0 0 1.25"/></svg>