<svg width="26" height="26" viewBox="0 0 26 26" fill="none" xmlns="http://www.w3.org/2000/svg">
<path d="M6.49935 10.8333H17.8743L13.541 15.1667H8.12435L12.4577 10.8333M14.0827 6.5H16.2493L20.041 14.0833M2.16602 17.3333C2.16602 18.1953 2.50843 19.0219 3.11792 19.6314C3.72741 20.2409 4.55406 20.5833 5.41602 20.5833C6.27797 20.5833 7.10462 20.2409 7.71411 19.6314C8.32361 19.0219 8.66602 18.1953 8.66602 17.3333C8.66602 16.4714 8.32361 15.6447 7.71411 15.0352C7.10462 14.4257 6.27797 14.0833 5.41602 14.0833C4.55406 14.0833 3.72741 14.4257 3.11792 15.0352C2.50843 15.6447 2.16602 16.4714 2.16602 17.3333ZM17.3327 17.3333C17.3327 18.1953 17.6751 19.0219 18.2846 19.6314C18.8941 20.2409 19.7207 20.5833 20.5827 20.5833C21.4446 20.5833 22.2713 20.2409 22.8808 19.6314C23.4903 19.0219 23.8327 18.1953 23.8327 17.3333C23.8327 16.4714 23.4903 15.6447 22.8808 15.0352C22.2713 14.4257 21.4446 14.0833 20.5827 14.0833C19.7207 14.0833 18.8941 14.4257 18.2846 15.0352C17.6751 15.6447 17.3327 16.4714 17.3327 17.3333Z" stroke="white" stroke-width="1.5" stroke-linecap="round" stroke-linejoin="round"/>
</svg>
