<svg xmlns="http://www.w3.org/2000/svg" width="259" height="77" fill="none" viewBox="0 0 259 77"><path fill="#242424" d="M248.207 77H10.608c-5.232 0-9.495-4.317-9.495-9.615V9.655c0-5.299 4.263-9.616 9.495-9.616h237.599c5.233 0 9.495 4.317 9.495 9.615v57.73c0 5.299-4.301 9.616-9.495 9.616"/><path fill="#fff" d="M248.208 1.534c4.417 0 7.983 3.611 7.983 8.085v57.73c0 4.474-3.566 8.085-7.983 8.085h-237.6c-4.418 0-7.983-3.61-7.983-8.085V9.62c0-4.474 3.565-8.085 7.983-8.085zm0-1.53h-237.6c-5.232 0-9.495 4.317-9.495 9.615v57.73c0 5.299 4.263 9.616 9.495 9.616h237.6c5.231 0 9.494-4.317 9.494-9.616V9.62c0-5.298-4.301-9.615-9.494-9.615"/><path fill="#fff" stroke="#fff" stroke-miterlimit="10" stroke-width=".199" d="M91.22 19.741c0 1.61-.464 2.904-1.394 3.846-1.085 1.138-2.48 1.727-4.186 1.727-1.627 0-3.061-.589-4.185-1.727-1.163-1.177-1.744-2.59-1.744-4.317s.581-3.14 1.744-4.278c1.162-1.138 2.558-1.726 4.185-1.726q1.221 0 2.326.47c.736.314 1.356.746 1.782 1.296l-1.008 1.02c-.774-.903-1.782-1.373-3.138-1.373a4.22 4.22 0 0 0-3.1 1.295c-.892.863-1.318 1.962-1.318 3.335 0 1.374.426 2.473 1.317 3.336.891.864 1.938 1.296 3.1 1.296 1.28 0 2.326-.432 3.178-1.296.543-.55.892-1.334.97-2.354h-4.147v-1.374h5.502c.117.235.117.51.117.824ZM99.986 14.913h-5.193v3.65h4.69v1.373h-4.69v3.65h5.193V25H93.32V13.461h6.666zM106.174 25.038h-1.473V14.913h-3.178V13.5h7.829v1.413h-3.178zM115.012 25.038V13.5h1.472v11.538zM122.996 25.038h-1.472V14.913h-3.178V13.5h7.828v1.413h-3.178zM141.02 23.548q-1.686 1.767-4.186 1.766t-4.185-1.766c-1.124-1.177-1.667-2.59-1.667-4.278s.543-3.14 1.667-4.277q1.685-1.767 4.185-1.766t4.186 1.766c1.124 1.177 1.705 2.59 1.705 4.277-.039 1.688-.581 3.1-1.705 4.278Zm-7.286-.981c.852.863 1.86 1.295 3.1 1.295a4.22 4.22 0 0 0 3.1-1.295c.853-.863 1.279-1.962 1.279-3.336s-.426-2.472-1.279-3.336c-.852-.863-1.86-1.295-3.1-1.295s-2.248.432-3.1 1.295c-.853.864-1.279 1.963-1.279 3.336 0 1.374.426 2.473 1.279 3.336ZM144.734 25.038V13.5h1.784l5.541 8.987h.078l-.078-2.237V13.5h1.473v11.538h-1.512l-5.812-9.419h-.078l.078 2.237v7.182z"/><path fill="#fff" d="M130.599 41.876c-4.456 0-8.099 3.454-8.099 8.202 0 4.71 3.643 8.203 8.099 8.203s8.138-3.493 8.138-8.203c0-4.748-3.642-8.202-8.138-8.202m0 13.147c-2.441 0-4.573-2.04-4.573-4.945 0-2.943 2.093-4.945 4.573-4.945s4.573 2.002 4.573 4.945c0 2.904-2.131 4.945-4.573 4.945m-17.671-13.147c-4.457 0-8.1 3.454-8.1 8.202 0 4.71 3.643 8.203 8.1 8.203s8.099-3.493 8.099-8.203c0-4.748-3.643-8.202-8.099-8.202m0 13.147c-2.442 0-4.573-2.04-4.573-4.945 0-2.943 2.131-4.945 4.573-4.945 2.441 0 4.573 2.002 4.573 4.945-.039 2.904-2.132 4.945-4.573 4.945M91.846 44.388v3.492h8.215c-.232 1.963-.89 3.376-1.86 4.357-1.201 1.216-3.061 2.55-6.355 2.55-5.038 0-8.991-4.12-8.991-9.222s3.953-9.223 8.99-9.223c2.713 0 4.729 1.1 6.201 2.473l2.403-2.434c-2.054-2.001-4.767-3.492-8.603-3.492-6.937 0-12.75 5.69-12.75 12.715s5.813 12.716 12.75 12.716c3.759 0 6.549-1.256 8.758-3.572 2.248-2.276 2.984-5.533 2.984-8.123 0-.825-.077-1.57-.194-2.159 0-.078-11.548-.078-11.548-.078m86.11 2.708c-.659-1.845-2.712-5.22-6.936-5.22-4.147 0-7.635 3.336-7.635 8.202 0 4.592 3.41 8.203 8.023 8.203 3.72 0 5.851-2.277 6.742-3.611l-2.751-1.845c-.93 1.374-2.17 2.277-3.991 2.277-1.784 0-3.102-.824-3.915-2.473l10.812-4.513c.039-.118-.349-1.02-.349-1.02m-11.005 2.708c-.078-3.14 2.402-4.788 4.223-4.788 1.396 0 2.597.706 3.024 1.726-.039.04-7.247 3.062-7.247 3.062m-8.798 7.966h3.566V33.713h-3.566zm-5.812-14.089h-.117c-.814-.942-2.325-1.805-4.263-1.805-4.03 0-7.75 3.61-7.75 8.202s3.72 8.163 7.75 8.163c1.938 0 3.449-.863 4.263-1.844h.117v1.177c0 3.14-1.667 4.827-4.302 4.827-2.17 0-3.527-1.57-4.069-2.904l-3.1 1.295c.891 2.159 3.254 4.828 7.169 4.828 4.185 0 7.673-2.473 7.673-8.517V42.386h-3.371zm-4.07 11.342c-2.441 0-4.496-2.08-4.496-4.945 0-2.904 2.055-4.984 4.496-4.984 2.403 0 4.302 2.12 4.302 4.984 0 2.865-1.899 4.945-4.302 4.945m46.35-21.35h-8.488v24.058h3.527v-9.105h4.961c3.952 0 7.789-2.904 7.789-7.456 0-4.592-3.876-7.497-7.789-7.497m.078 11.617h-5.039V37.05h5.039c2.634 0 4.145 2.237 4.145 4.12 0 1.845-1.511 4.121-4.145 4.121m21.934-3.453c-2.558 0-5.232 1.138-6.318 3.689l3.14 1.334c.659-1.334 1.938-1.766 3.255-1.766 1.822 0 3.721 1.138 3.721 3.1v.236c-.659-.392-2.016-.942-3.721-.942-3.371 0-6.859 1.884-6.859 5.416 0 3.218 2.79 5.298 5.89 5.298 2.403 0 3.721-1.099 4.534-2.355h.117v1.845h3.41v-9.223c.039-4.238-3.1-6.632-7.169-6.632m-.426 13.186c-1.163 0-2.79-.589-2.79-2.04 0-1.845 2.014-2.59 3.758-2.59 1.55 0 2.287.352 3.256.823-.31 2.237-2.17 3.807-4.224 3.807m20.113-12.676-4.069 10.44h-.117l-4.224-10.44h-3.837l6.317 14.56-3.603 8.124h3.72l9.765-22.684zM204.348 57.77h3.565V33.713h-3.565z"/><path fill="url(#a)" d="M20.925 14.52c-.543.589-.892 1.53-.892 2.708V59.81c0 1.177.31 2.12.891 2.708l.156.117 23.562-23.86v-.55L21.08 14.363z"/><path fill="url(#b)" d="m52.475 46.741-7.828-7.967v-.55l7.867-7.966.193.117 9.301 5.377c2.635 1.53 2.635 4.042 0 5.573l-9.3 5.337c-.04-.039-.233.079-.233.079"/><path fill="url(#c)" d="M52.66 46.624 44.638 38.5 20.959 62.48c.891.941 2.325 1.059 3.953.117z"/><path fill="url(#d)" d="M52.653 30.377 24.867 14.404c-1.628-.942-3.062-.824-3.953.118l23.679 23.98z"/><defs><linearGradient id="a" x1="42.529" x2="2.523" y1="60.236" y2="20.265" gradientUnits="userSpaceOnUse"><stop stop-color="#00a0ff"/><stop offset=".007" stop-color="#00a1ff"/><stop offset=".26" stop-color="#00beff"/><stop offset=".512" stop-color="#00d2ff"/><stop offset=".76" stop-color="#00dfff"/><stop offset="1" stop-color="#00e3ff"/></linearGradient><linearGradient id="b" x1="65.411" x2="7.781" y1="38.502" y2="38.502" gradientUnits="userSpaceOnUse"><stop stop-color="#ffe000"/><stop offset=".409" stop-color="#ffbd00"/><stop offset=".775" stop-color="orange"/><stop offset="1" stop-color="#ff9c00"/></linearGradient><linearGradient id="c" x1="32.419" x2="-21.831" y1="50.145" y2="-4.059" gradientUnits="userSpaceOnUse"><stop stop-color="#ff3a44"/><stop offset="1" stop-color="#c31162"/></linearGradient><linearGradient id="d" x1="-.903" x2="23.322" y1="60.604" y2="36.4" gradientUnits="userSpaceOnUse"><stop stop-color="#32a071"/><stop offset=".069" stop-color="#2da771"/><stop offset=".476" stop-color="#15cf74"/><stop offset=".801" stop-color="#06e775"/><stop offset="1" stop-color="#00f076"/></linearGradient></defs></svg>